<svg xmlns="http://www.w3.org/2000/svg" width="89.788" height="89.788" viewBox="-16.59 0 89.788 89.788"><g data-name="Group 1196"><path fill="#534741" d="M718.2 473.173v-54.465l-.032.032-7.638-7.638-1.573-1.573a19.774 19.774 0 0 0 2.422-9.851H699.1l-9.129-9.129-.083.084-.084-.084-9.13 9.131h-7.08a5.8 5.8 0 0 1-.981 3.489 20.334 20.334 0 0 0-2.446 7.018l-8.552 8.551-.028-.028v54.459l.028-.029-.028.028h56.607l-.032-.032Z" data-name="Path 913" opacity=".1" style="mix-blend-mode:multiply;isolation:isolate" transform="translate(-661.583 -383.385)"/><g data-name="Group 1195"><path fill="#e3e5e1" d="m28.387 0-.083.083L28.22 0 14.33 13.89l-.261.262L0 28.22v54.346l.06.059h56.488l.059-.059V28.22Z" data-name="Path 914"/><path fill="none" d="M56.607 77.317V33.469" data-name="Line 1"/><path fill="#d3d6ce" d="m28.391 6.094-.083.083v-1.69l.083-.083 9.486 9.486 2.607 2.607 1.524 1.523 3.345 3.345 1.381 1.393 2.321 2.321 7.558 7.558-.774.417.774.417-.429.417-7.57-7.57-2.345-2.345-1.452-1.44v-.018l-4.678-4.678-2.722-2.722Z" data-name="Path 915"/><path fill="#daddd4" d="m55.837 77.734.774.417-4.475 4.475h-1.679l5.725-5.725.429.417Z" data-name="Path 916"/><g data-name="Group 1189"><g data-name="Group 1186"><path fill="#ce4646" d="M46.117 78.415H31.439a20.126 20.126 0 0 1 2.688-10.366 6.714 6.714 0 0 0 0-6.992 21.321 21.321 0 0 1 0-20.73 6.7 6.7 0 0 0 0-6.981 21.315 21.315 0 0 1 0-20.729 5.8 5.8 0 0 0 .98-3.488h14.682a20.09 20.09 0 0 1-2.69 10.363 6.7 6.7 0 0 0 0 6.981 21.319 21.319 0 0 1 0 20.729 6.706 6.706 0 0 0 0 6.984 21.328 21.328 0 0 1 0 20.734 5.806 5.806 0 0 0-.982 3.495Z" data-name="Path 917"/></g><g data-name="Group 1187"><path fill="#d35e5e" d="M43.368 78.415h-1.835a13.693 13.693 0 0 1 1.941-7.36 13.09 13.09 0 0 0 0-13 14.919 14.919 0 0 1 0-14.717 13.073 13.073 0 0 0 0-12.995 14.913 14.913 0 0 1 0-14.714 11.959 11.959 0 0 0 1.729-6.5h1.835a13.663 13.663 0 0 1-1.942 7.355 13.081 13.081 0 0 0 0 13 14.9 14.9 0 0 1 0 14.713 13.087 13.087 0 0 0 0 13 14.922 14.922 0 0 1 0 14.722 11.976 11.976 0 0 0-1.728 6.496Z" data-name="Path 918"/></g><g data-name="Group 1188"><path fill="#d35e5e" d="M36.486 78.415H34.65a13.692 13.692 0 0 1 1.942-7.36 13.09 13.09 0 0 0 0-13 14.912 14.912 0 0 1 0-14.717 13.073 13.073 0 0 0 0-12.995 14.906 14.906 0 0 1 0-14.714 11.959 11.959 0 0 0 1.729-6.5h1.835a13.662 13.662 0 0 1-1.942 7.355 13.081 13.081 0 0 0 0 13 14.9 14.9 0 0 1 0 14.713 13.087 13.087 0 0 0 0 13 14.922 14.922 0 0 1 0 14.722 11.977 11.977 0 0 0-1.728 6.496Z" data-name="Path 919"/></g></g><path fill="none" d="M.008 33.469v43.848" data-name="Line 2"/><path fill="#d3d6ce" d="m28.224 6.094.083.083v-1.69l-.083-.083-9.486 9.486-2.607 2.607-1.524 1.523-3.345 3.345-1.381 1.393-2.321 2.321-7.558 7.558.774.417-.774.417.429.417 7.57-7.57 2.345-2.345 1.452-1.44v-.018l4.678-4.678 2.725-2.726Z" data-name="Path 920"/><path fill="#daddd4" d="M6.157 82.625H4.479L.004 78.15l.774-.417-.774-.417.429-.417Z" data-name="Path 921"/><path fill="#534741" d="M690.655 420.225a20.114 20.114 0 0 0-2.689-10.365 6.7 6.7 0 0 1 0-6.981 20.094 20.094 0 0 0 2.69-10.363h-14.683a5.8 5.8 0 0 1-.98 3.488 21.315 21.315 0 0 0 0 20.729 6.7 6.7 0 0 1 0 6.981 21.321 21.321 0 0 0 0 20.73 6.714 6.714 0 0 1 0 6.992A20.126 20.126 0 0 0 672.3 461.8h14.682a5.806 5.806 0 0 1 .981-3.495 21.328 21.328 0 0 0 0-20.734 6.706 6.706 0 0 1 0-6.984 20.112 20.112 0 0 0 2.692-10.362Z" data-name="Path 922" opacity=".05" style="mix-blend-mode:multiply;isolation:isolate" transform="translate(-661.583 -383.385)"/><path fill="#534741" d="M711.061 437.576a21.322 21.322 0 0 1 0 20.734 5.822 5.822 0 0 0-.976 3.487H695.4a20.14 20.14 0 0 1 2.69-10.367 6.668 6.668 0 0 0 0-6.986 21.322 21.322 0 0 1 0-20.734 6.649 6.649 0 0 0 0-6.975 21.322 21.322 0 0 1 0-20.734 5.747 5.747 0 0 0 .988-3.487h.024l11.426 11.426a5.187 5.187 0 0 0-.44 2.428 5.825 5.825 0 0 0 .976 3.488 21.32 21.32 0 0 1 0 20.733 5.825 5.825 0 0 0-.976 3.488 5.884 5.884 0 0 0 .973 3.499Z" data-name="Path 923" opacity=".05" style="mix-blend-mode:multiply;isolation:isolate" transform="translate(-661.583 -383.385)"/><g data-name="Group 1193"><g data-name="Group 1190"><path fill="#ce4646" d="M23.017 78.415H8.339a20.125 20.125 0 0 1 2.689-10.366 6.714 6.714 0 0 0 0-6.992 21.317 21.317 0 0 1 0-20.73 6.7 6.7 0 0 0 0-6.981 21.315 21.315 0 0 1 0-20.729 5.8 5.8 0 0 0 .981-3.488h14.682A20.088 20.088 0 0 1 24 19.492a6.7 6.7 0 0 0 0 6.981 21.312 21.312 0 0 1 0 20.729 6.706 6.706 0 0 0 0 6.984 21.322 21.322 0 0 1 0 20.734 5.806 5.806 0 0 0-.983 3.495Z" data-name="Path 924"/></g><g data-name="Group 1191"><path fill="#d35e5e" d="M20.268 78.415h-1.835a13.692 13.692 0 0 1 1.942-7.36 13.1 13.1 0 0 0 0-13 14.912 14.912 0 0 1 0-14.717 13.08 13.08 0 0 0 0-12.995 14.906 14.906 0 0 1 0-14.714 11.96 11.96 0 0 0 1.728-6.5h1.836a13.672 13.672 0 0 1-1.942 7.355 13.075 13.075 0 0 0 0 13 14.9 14.9 0 0 1 0 14.713 13.081 13.081 0 0 0 0 13 14.922 14.922 0 0 1 0 14.722 11.976 11.976 0 0 0-1.729 6.496Z" data-name="Path 925"/></g><g data-name="Group 1192"><path fill="#d35e5e" d="M13.386 78.415h-1.835a13.682 13.682 0 0 1 1.942-7.36 13.1 13.1 0 0 0 0-13 14.912 14.912 0 0 1 0-14.717 13.08 13.08 0 0 0 0-12.995 14.906 14.906 0 0 1 0-14.714 11.959 11.959 0 0 0 1.728-6.5h1.836a13.672 13.672 0 0 1-1.942 7.355 13.075 13.075 0 0 0 0 13 14.9 14.9 0 0 1 0 14.713 13.081 13.081 0 0 0 0 13 14.922 14.922 0 0 1 0 14.722 11.976 11.976 0 0 0-1.729 6.496Z" data-name="Path 926"/></g></g><path fill="#e6eae1" d="M27.235 55.393.003 28.161v54.464Z" data-name="Path 927"/><path fill="#daddd4" d="m.003 32.433 24.785 24.782L.003 82Zm1.263 3.048v43.474l21.736-21.74Z" data-name="Path 928"/><path fill="#e6eae1" d="m29.379 55.393 27.232-27.232v54.464Z" data-name="Path 929"/><path fill="#e6eae1" d="M56.611 82.625H.004l28.4-28.53Z" data-name="Path 930"/><path fill="#daddd4" d="M56.607 82.003 31.822 57.215 56.607 32.43Zm-23-24.785 21.737 21.737V35.481Z" data-name="Path 931"/><g data-name="Group 1194" transform="translate(-661.583 -383.385)"><circle cx="8.133" cy="8.133" r="8.133" fill="#534741" data-name="Ellipse 249" opacity=".1" style="mix-blend-mode:multiply;isolation:isolate" transform="translate(681.856 433.716)"/><circle cx="8.133" cy="8.133" r="8.133" fill="#f1f2f0" data-name="Ellipse 250" transform="translate(681.856 431.335)"/><circle cx="6.596" cy="6.596" r="6.596" fill="none" stroke="#e6eae1" stroke-miterlimit="10" data-name="Ellipse 251" transform="translate(683.394 432.873)"/></g></g></g></svg>