<svg xmlns="http://www.w3.org/2000/svg" width="95.109" height="95.109" viewBox="0 -21.84 95.109 95.109"><g data-name="Group 1140" transform="translate(-642.324 -142.232)"><rect width="95.109" height="41.435" fill="#534741" data-name="Rectangle 189" opacity=".1" rx="20.717" style="mix-blend-mode:multiply;isolation:isolate" transform="translate(642.324 152.232)"/><rect width="95.109" height="41.435" fill="#e5af6e" data-name="Rectangle 190" rx="20.717" transform="translate(642.324 142.232)"/><path fill="#ce975b" d="M716.134 176.723h-52.511a20.256 20.256 0 0 1-20.032-17.333 20.439 20.439 0 0 0-.236 2.935 20.268 20.268 0 0 0 20.268 20.268h52.511a20.269 20.269 0 0 0 20.266-20.268 20.291 20.291 0 0 0-.237-2.935 20.254 20.254 0 0 1-20.029 17.333Z" data-name="Path 790"/><path fill="#f2c18b" d="M666.211 150.218v21.442a4.02 4.02 0 0 1-4.02 4.02v-21.442a4.02 4.02 0 0 1 4.02-4.02Z" data-name="Rectangle 191"/><path fill="#f2c18b" d="M679.05 150.218v21.442a4.02 4.02 0 0 1-4.02 4.02v-21.442a4.02 4.02 0 0 1 4.02-4.02Z" data-name="Rectangle 192"/><path fill="#f2c18b" d="M691.889 150.218v21.442a4.02 4.02 0 0 1-4.02 4.02v-21.442a4.02 4.02 0 0 1 4.02-4.02Z" data-name="Rectangle 193"/><path fill="#f2c18b" d="M704.728 150.218v21.442a4.02 4.02 0 0 1-4.02 4.02v-21.442a4.02 4.02 0 0 1 4.02-4.02Z" data-name="Rectangle 194"/><path fill="#f2c18b" d="M717.567 150.218v21.442a4.02 4.02 0 0 1-4.02 4.02v-21.442a4.02 4.02 0 0 1 4.02-4.02Z" data-name="Rectangle 195"/><circle cx=".826" cy=".826" r=".826" fill="#ce975b" data-name="Ellipse 162" transform="translate(723.237 154.465)"/><circle cx="1.416" cy="1.416" r="1.416" fill="#ce975b" data-name="Ellipse 163" transform="translate(704.355 160.13)"/><circle cx="1.159" cy="1.159" r="1.159" fill="#ce975b" data-name="Ellipse 164" transform="translate(691.889 155.292)"/><circle cx=".905" cy=".905" r=".905" fill="#ce975b" data-name="Ellipse 165" transform="translate(695.544 145.969)"/><circle cx="1.84" cy="1.84" r="1.84" fill="#ce975b" data-name="Ellipse 166" transform="translate(648.889 156.45)"/><circle cx=".983" cy=".983" r=".983" fill="#ce975b" data-name="Ellipse 167" transform="translate(668.794 166.817)"/></g></svg>