<svg xmlns="http://www.w3.org/2000/svg" width="105.909" height="105.909" viewBox="-3.5 0 105.909 105.909"><g data-name="Group 1138"><g data-name="Group 1130" transform="translate(-394.939 -115.928)"><circle cx="49.454" cy="49.454" r="49.454" fill="#534741" data-name="Ellipse 132" opacity=".1" style="mix-blend-mode:multiply;isolation:isolate" transform="translate(394.939 122.928)"/><circle cx="49.454" cy="49.454" r="49.454" fill="#f2f4ef" data-name="Ellipse 133" transform="translate(394.939 115.928)"/><circle cx="34.675" cy="34.675" r="34.675" fill="#e6eae1" data-name="Ellipse 134" transform="translate(409.719 130.708)"/></g><g data-name="Group 1133" transform="translate(-394.939 -115.928)"><g fill="#534741" data-name="Group 1131" opacity=".1" style="mix-blend-mode:multiply;isolation:isolate"><path d="M448.338 142.667v33.044h33.044v-26.073l-6.971-6.971Z" data-name="Path 778"/><path d="m474.411 142.667 6.971 6.971h-6.971Z" data-name="Path 779"/></g><g data-name="Group 1132"><path fill="#e28579" d="M448.338 142.667v31.044a1 1 0 0 0 1 1h31.043a1 1 0 0 0 1-1v-25.073l-6.97-6.971h-25.073a1 1 0 0 0-1 1Z" data-name="Path 780"/><path fill="#534741" d="M481.381 149.824h-6.971v-2.186l6.971 1Z" data-name="Path 781" opacity=".1" style="mix-blend-mode:multiply;isolation:isolate"/><path fill="#edaea9" d="m474.411 141.667 6.97 6.971h-5.97a1 1 0 0 1-1-1Z" data-name="Path 782"/></g><ellipse cx="2.062" cy=".498" fill="#edaea9" data-name="Ellipse 135" rx="2.062" ry=".498" transform="translate(461.214 163.053)"/><ellipse cx="2.062" cy=".498" fill="#edaea9" data-name="Ellipse 136" rx="2.062" ry=".498" transform="translate(471.661 157.193)"/><ellipse cx="2.062" cy=".498" fill="#edaea9" data-name="Ellipse 137" rx="2.062" ry=".498" transform="translate(452.136 150.528)"/><ellipse cx="2.062" cy=".498" fill="#edaea9" data-name="Ellipse 138" rx="2.062" ry=".498" transform="translate(464.384 146.998)"/></g><path fill="#534741" d="M444.19 163.386c4.339 5.207 2.228 9.922-4.253 10.266-.344 6.481-5.059 8.591-10.266 4.252-5.208 4.339-9.922 2.229-10.267-4.252-6.48-.344-8.591-5.059-4.252-10.266-4.339-5.208-2.228-9.922 4.252-10.267.345-6.48 5.059-8.591 10.267-4.252 5.207-4.339 9.922-2.228 10.266 4.252 6.481.345 8.592 5.059 4.253 10.267Z" data-name="Path 783" opacity=".1" style="mix-blend-mode:multiply;isolation:isolate" transform="translate(-394.939 -115.928)"/><path fill="#99c64a" d="M49.251 46.458c4.339 5.207 2.228 9.922-4.253 10.266-.344 6.481-5.059 8.591-10.266 4.252-5.208 4.339-9.922 2.229-10.267-4.252-6.48-.344-8.591-5.059-4.252-10.266-4.339-5.208-2.228-9.922 4.252-10.267.345-6.48 5.059-8.591 10.267-4.252 5.207-4.339 9.922-2.228 10.266 4.252 6.481.345 8.592 5.059 4.253 10.267Z" data-name="Path 784"/><g data-name="Group 1134" transform="translate(-394.939 -115.928)"><circle cx="5.523" cy="5.523" r="5.523" fill="#534741" data-name="Ellipse 139" opacity=".1" style="mix-blend-mode:multiply;isolation:isolate" transform="translate(421.009 163.386)"/><circle cx="5.523" cy="5.523" r="5.523" fill="#f9912b" data-name="Ellipse 140" transform="translate(421.009 162.386)"/><circle cx="2.688" cy="2.688" r="2.688" fill="#ffa655" data-name="Ellipse 141" transform="translate(423.844 165.221)"/></g><g data-name="Group 1135" transform="translate(-394.939 -115.928)"><circle cx="5.523" cy="5.523" r="5.523" fill="#534741" data-name="Ellipse 142" opacity=".1" style="mix-blend-mode:multiply;isolation:isolate" transform="translate(421.009 154.375)"/><circle cx="5.523" cy="5.523" r="5.523" fill="#f9912b" data-name="Ellipse 143" transform="translate(421.009 153.375)"/><circle cx="2.688" cy="2.688" r="2.688" fill="#ffa655" data-name="Ellipse 144" transform="translate(423.844 156.21)"/></g><g data-name="Group 1136" transform="translate(-394.939 -115.928)"><path fill="#534741" d="M472 191.911a5 5 0 0 1-9.369-1.921 222.22 222.22 0 0 1 .1-42.923 5 5 0 1 1 9.951.993 212.209 212.209 0 0 0-.1 40.988 4.969 4.969 0 0 1-.582 2.863Z" data-name="Path 785" opacity=".1" style="mix-blend-mode:multiply;isolation:isolate"/><path fill="#b76f4b" d="M470.971 188.919A5 5 0 0 1 461.6 187a222.23 222.23 0 0 1 .105-42.924 5 5 0 1 1 9.95.994 212.119 212.119 0 0 0-.1 40.987 4.975 4.975 0 0 1-.584 2.862Z" data-name="Path 786"/><path fill="#534741" d="M466.235 140.726a4.787 4.787 0 0 0-1.81.173 4.773 4.773 0 0 1 3.537 5.084 203 203 0 0 0-.1 39.215 4.765 4.765 0 0 1-3.434 5.038 4.769 4.769 0 0 0 5.991-5.059 202.918 202.918 0 0 1 .1-39.215 4.785 4.785 0 0 0-4.284-5.236Z" data-name="Path 787" opacity=".1" style="mix-blend-mode:multiply;isolation:isolate"/><ellipse cx="2.09" cy="1.21" fill="#ffe8c2" data-name="Ellipse 145" opacity=".2" rx="2.09" ry="1.21" transform="rotate(-80.33 318.708 -200.06)"/></g><g data-name="Group 1137" transform="translate(-394.939 -115.928)"><circle cx="17.337" cy="17.337" r="17.337" fill="#534741" data-name="Ellipse 146" opacity=".1" style="mix-blend-mode:multiply;isolation:isolate" transform="translate(427.057 150.648)"/><circle cx="17.337" cy="17.337" r="17.337" fill="#fff" data-name="Ellipse 147" transform="translate(427.057 148.648)"/><circle cx="7.881" cy="7.881" r="7.881" fill="#534741" data-name="Ellipse 148" opacity=".1" style="mix-blend-mode:multiply;isolation:isolate" transform="translate(436.513 158.104)"/><circle cx="7.57" cy="7.57" r="7.57" fill="#f9cc4e" data-name="Ellipse 149" transform="translate(436.824 158.415)"/><path fill="#534741" d="M444.393 171.575a7.571 7.571 0 0 1-7.421-6.08 7.615 7.615 0 0 0-.148 1.49c0 4.18 2.7 8.569 7.569 8.569s7.57-4.389 7.57-8.569a7.612 7.612 0 0 0-.148-1.49 7.571 7.571 0 0 1-7.422 6.08Z" data-name="Path 788" opacity=".1" style="mix-blend-mode:multiply;isolation:isolate"/><ellipse cx="2.072" cy="1.446" fill="#ffe8c2" data-name="Ellipse 150" rx="2.072" ry="1.446" transform="translate(442.322 160.549)"/><ellipse cx=".643" cy=".436" fill="#bc8f48" data-name="Ellipse 151" opacity=".5" rx=".643" ry=".436" transform="rotate(-45 406.246 -444.293)"/><ellipse cx=".921" cy=".625" fill="#bc8f48" data-name="Ellipse 152" opacity=".5" rx=".921" ry=".625" transform="rotate(-45 410.169 -442.538)"/></g></g></svg>