<svg xmlns="http://www.w3.org/2000/svg" width="72.709" height="72.709" viewBox="-4.5 0 72.709 72.709"><g data-name="Group 1122" transform="translate(-183.145 -130.531)"><path fill="#534741" d="M246.854 171.386a12.812 12.812 0 0 0-4.519-9.773v-14.562a3 3 0 0 0-3-3h-14.563a12.824 12.824 0 0 0-19.545 0h-14.562a3 3 0 0 0-3 3v14.562a12.824 12.824 0 0 0 0 19.545v14.563a3 3 0 0 0 3 3h14.562a12.826 12.826 0 0 0 19.545 0h14.563a3 3 0 0 0 3-3v-14.563a12.811 12.811 0 0 0 4.519-9.772Z" data-name="Path 768" opacity=".1" style="mix-blend-mode:multiply;isolation:isolate"/><rect width="54.67" height="54.67" fill="#f9cc4e" data-name="Rectangle 175" rx="3" transform="translate(187.665 135.051)"/><circle cx="10.446" cy="10.446" r="10.446" fill="#d16854" data-name="Ellipse 96" transform="translate(189.41 136.796)"/><circle cx="9.251" cy="9.251" r="9.251" fill="#b5492c" data-name="Ellipse 97" transform="translate(190.605 137.991)"/><circle cx="7.022" cy="7.022" r="7.022" fill="#d16854" data-name="Ellipse 98" transform="translate(192.834 140.22)"/><circle cx="10.446" cy="10.446" r="10.446" fill="#d16854" data-name="Ellipse 99" transform="translate(219.697 136.796)"/><circle cx="9.251" cy="9.251" r="9.251" fill="#b5492c" data-name="Ellipse 100" transform="translate(220.892 137.991)"/><circle cx="7.022" cy="7.022" r="7.022" fill="#d16854" data-name="Ellipse 101" transform="translate(223.121 140.22)"/><circle cx="10.446" cy="10.446" r="10.446" fill="#d16854" data-name="Ellipse 102" transform="translate(219.697 167.082)"/><circle cx="9.251" cy="9.251" r="9.251" fill="#b5492c" data-name="Ellipse 103" transform="translate(220.892 168.278)"/><circle cx="7.022" cy="7.022" r="7.022" fill="#d16854" data-name="Ellipse 104" transform="translate(223.121 170.506)"/><circle cx="10.446" cy="10.446" r="10.446" fill="#d16854" data-name="Ellipse 105" transform="translate(189.41 167.082)"/><circle cx="9.251" cy="9.251" r="9.251" fill="#b5492c" data-name="Ellipse 106" transform="translate(190.605 168.278)"/><circle cx="7.022" cy="7.022" r="7.022" fill="#d16854" data-name="Ellipse 107" transform="translate(192.834 170.506)"/><circle cx="12.848" cy="12.848" r="12.848" fill="#99c64a" data-name="Ellipse 108" transform="translate(183.145 149.538)"/><circle cx="12.848" cy="12.848" r="12.848" fill="#99c64a" data-name="Ellipse 109" transform="translate(202.152 130.531)"/><circle cx="12.848" cy="12.848" r="12.848" fill="#99c64a" data-name="Ellipse 110" transform="translate(221.158 149.538)"/><circle cx="12.848" cy="12.848" r="12.848" fill="#99c64a" data-name="Ellipse 111" transform="translate(202.152 168.544)"/><path fill="#534741" d="M187.665 176.768a28.008 28.008 0 0 0 6.993 12.953h40.683a28.01 28.01 0 0 0 6.994-12.953V164a28.07 28.07 0 0 0-54.67 0Z" data-name="Path 769" opacity=".1" style="mix-blend-mode:multiply;isolation:isolate"/><circle cx="28.073" cy="28.073" r="28.073" fill="#e5af6e" data-name="Ellipse 112" transform="translate(186.927 134.313)"/><circle cx="26.615" cy="26.615" r="26.615" fill="#ce975b" data-name="Ellipse 113" transform="translate(188.385 135.771)"/><ellipse cx="22.166" cy="19.293" fill="#e5af6e" data-name="Ellipse 114" rx="22.166" ry="19.293" transform="translate(192.834 136.898)"/><ellipse cx="1.65" cy=".837" fill="#ffe8c2" data-name="Ellipse 115" rx="1.65" ry=".837" transform="translate(213.349 143.379)"/><ellipse cx="1.65" cy=".837" fill="#ffe8c2" data-name="Ellipse 116" rx="1.65" ry=".837" transform="translate(213.349 161.549)"/><ellipse cx=".837" cy="1.65" fill="#ffe8c2" data-name="Ellipse 117" rx=".837" ry="1.65" transform="rotate(-22.156 523.485 -438.865)"/><ellipse cx="1.65" cy=".837" fill="#ffe8c2" data-name="Ellipse 118" rx="1.65" ry=".837" transform="rotate(-67.156 222.326 -73.985)"/><ellipse cx="1.65" cy=".837" fill="#ffe8c2" data-name="Ellipse 119" rx="1.65" ry=".837" transform="rotate(-22.156 494.848 -458.125)"/><ellipse cx=".837" cy="1.65" fill="#ffe8c2" data-name="Ellipse 120" rx=".837" ry="1.65" transform="rotate(-67.156 223.886 -86.963)"/><ellipse cx=".837" cy="1.65" fill="#ffe8c2" data-name="Ellipse 121" rx=".837" ry="1.65" transform="rotate(-22.156 513.293 -490.918)"/><ellipse cx="1.65" cy=".837" fill="#ffe8c2" data-name="Ellipse 122" rx="1.65" ry=".837" transform="rotate(-67.156 237.678 -84.177)"/><ellipse cx="1.65" cy=".837" fill="#ffe8c2" data-name="Ellipse 123" rx="1.65" ry=".837" transform="rotate(-22.156 546.9 -468.317)"/><ellipse cx=".837" cy="1.65" fill="#ffe8c2" data-name="Ellipse 124" rx=".837" ry="1.65" transform="rotate(-67.156 234.078 -71.61)"/><ellipse cx=".837" cy="1.65" fill="#ffe8c2" data-name="Ellipse 125" rx=".837" ry="1.65" transform="rotate(-45 292.858 -198.433)"/><ellipse cx=".837" cy="1.65" fill="#ffe8c2" data-name="Ellipse 126" rx=".837" ry="1.65" transform="translate(232.333 160.735)"/><ellipse cx="1.65" cy=".837" fill="#ffe8c2" data-name="Ellipse 127" rx="1.65" ry=".837" transform="rotate(-45 325.265 -185.01)"/><ellipse cx="1.65" cy=".837" fill="#ffe8c2" data-name="Ellipse 128" rx="1.65" ry=".837" transform="translate(213.349 179.719)"/><ellipse cx=".837" cy="1.65" fill="#ffe8c2" data-name="Ellipse 129" rx=".837" ry="1.65" transform="rotate(-45 311.027 -154.567)"/><ellipse cx=".837" cy="1.65" fill="#ffe8c2" data-name="Ellipse 130" rx=".837" ry="1.65" transform="translate(195.993 160.735)"/><ellipse cx="1.65" cy=".837" fill="#ffe8c2" data-name="Ellipse 131" rx="1.65" ry=".837" transform="rotate(-45 281.399 -166.84)"/></g></svg>