<svg xmlns="http://www.w3.org/2000/svg" width="82.983" height="82.983" viewBox="-21.07 0 82.983 82.983"><g data-name="Group 1310" transform="translate(-196.082 -398.224)"><g data-name="Group 1309"><path fill="#534741" d="M198.093 405.224h38.839v34.883a.91.91 0 0 1-.216.528 7.934 7.934 0 0 0 0 5.375.9.9 0 0 1 .216.528v34.669h-38.839Z" data-name="Path 959" opacity=".1" style="mix-blend-mode:multiply;isolation:isolate"/><path fill="#efecda" d="M198.093 398.224h38.839v34.883a.91.91 0 0 1-.216.528 7.934 7.934 0 0 0 0 5.375.9.9 0 0 1 .216.528v34.669h-38.839Z" data-name="Path 960"/><g data-name="Group 1301"><path fill="#a0bf7f" d="M216.4 402.72c1.34 0 2.39 1.406 3.555 1.89 1.207.5 2.94.267 3.85 1.177s.676 2.642 1.177 3.85c.483 1.165 1.89 2.215 1.89 3.554s-1.407 2.39-1.89 3.555c-.5 1.207-.268 2.94-1.177 3.85s-2.643.676-3.85 1.177c-1.165.483-2.215 1.89-3.555 1.89s-2.389-1.407-3.554-1.89c-1.208-.5-2.94-.268-3.85-1.178s-.677-2.642-1.177-3.85c-.483-1.164-1.89-2.214-1.89-3.554s1.407-2.39 1.89-3.554c.5-1.208.267-2.94 1.177-3.85s2.642-.677 3.85-1.178c1.166-.483 2.216-1.889 3.554-1.889Z" data-name="Path 961"/></g><circle cx="7.609" cy="7.609" r="7.609" fill="#c45353" data-name="Ellipse 405" transform="translate(208.792 405.582)"/><g data-name="Group 1302"><path fill="#a0bf7f" d="M211.768 467.055c1.34 0 2.844.873 4.009.39 1.207-.5 1.647-2.2 2.557-3.11s2.61-1.351 3.111-2.558c.483-1.165-.391-2.669-.391-4.008s.874-2.844.391-4.009c-.5-1.207-2.2-1.648-3.111-2.558s-1.35-2.609-2.558-3.11c-1.164-.483-2.669.391-4.008.391s-2.844-.874-4.008-.391c-1.208.5-1.648 2.2-2.558 3.11s-2.61 1.351-3.111 2.558c-.483 1.165.391 2.669.391 4.009s-.874 2.843-.391 4.008c.5 1.207 2.2 1.648 3.111 2.558s1.35 2.61 2.558 3.11c1.164.483 2.669-.39 4.008-.39Z" data-name="Path 962"/></g><circle cx="7.609" cy="7.609" r="7.609" fill="#c45353" data-name="Ellipse 406" transform="translate(204.159 450.159)"/><path fill="#d8d5c5" d="m198.1 398.227 3.022 3.486h35.813v-3.486Z" data-name="Path 963"/><path fill="#d8d5c5" d="m198.1 474.2 3.022-3.486h35.813v3.486Z" data-name="Path 964"/><path fill="#c6c4b9" d="M198.1 474.2v-75.973l3.022 3.486v69Z" data-name="Path 965"/><g data-name="Group 1308"><path fill="#c99b69" d="m230.036 407.128-.194.106-7.051 3.8-.634.343-4.119-3.788c-1.82-1.679-4.948-.407-6.45 2.633l-4.4 8.835a6.645 6.645 0 0 0-.318.742 7.073 7.073 0 0 0-.3 1.076l-.933-.28a4.448 4.448 0 0 0-4.736 1.661 9.86 9.86 0 0 0-2.121 6.4v15.161a9.778 9.778 0 0 0 2.121 6.38 4.413 4.413 0 0 0 4.736 1.661l.931-.28a7.01 7.01 0 0 0 .306 1.092 6.488 6.488 0 0 0 .318.742l4.4 8.836c1.5 3.039 4.63 4.312 6.45 2.633l4.119-3.788.634.342 7.245 3.9c1.255.672 3.128.159 4.489-1.236 1.378-1.4 1.855-3.27 1.166-4.507l-3.342-5.98-.013-.024-.338-.6-.427-.763a5.781 5.781 0 0 0-.174-5.333 5.569 5.569 0 0 0-1.737-2.241l1.189-.357a4.922 4.922 0 0 0 2.085-1.325 9.559 9.559 0 0 0 2.439-6.733v-.017a9.622 9.622 0 0 0-2.439-6.733 5.069 5.069 0 0 0-2.085-1.308l-1.189-.357a5.557 5.557 0 0 0 1.737-2.24 5.78 5.78 0 0 0 .174-5.333l.427-.764 3.587-6.414.106-.2c.689-1.237.212-3.11-1.166-4.506-1.365-1.395-3.238-1.907-4.493-1.236Z" data-name="Path 966"/><g data-name="Group 1304"><path fill="#e29386" d="M225.014 434.311a9.9 9.9 0 0 1 3.547.647 10.217 10.217 0 0 1 6.3 6.669 9.776 9.776 0 0 1 .443 2.956 10.281 10.281 0 1 1-13.837-9.625 9.9 9.9 0 0 1 3.547-.647Z" data-name="Path 967"/><circle cx="6.817" cy="6.817" r="6.817" fill="#edbeb7" data-name="Ellipse 407" transform="translate(218.198 437.772)"/><g fill="#e29386" data-name="Group 1303"><circle cx=".346" cy=".346" r=".346" data-name="Ellipse 408" opacity=".4" style="mix-blend-mode:multiply;isolation:isolate" transform="translate(232.855 441.987)"/><circle cx=".346" cy=".346" r=".346" data-name="Ellipse 409" opacity=".4" style="mix-blend-mode:multiply;isolation:isolate" transform="translate(233.548 447.385)"/><circle cx=".346" cy=".346" r=".346" data-name="Ellipse 410" opacity=".4" style="mix-blend-mode:multiply;isolation:isolate" transform="translate(229.696 450.214)"/><circle cx=".346" cy=".346" r=".346" data-name="Ellipse 411" opacity=".4" style="mix-blend-mode:multiply;isolation:isolate" transform="translate(228.265 437.426)"/><circle cx=".346" cy=".346" r=".346" data-name="Ellipse 412" opacity=".4" style="mix-blend-mode:multiply;isolation:isolate" transform="translate(227.343 434.914)"/><circle cx=".346" cy=".346" r=".346" data-name="Ellipse 413" opacity=".4" style="mix-blend-mode:multiply;isolation:isolate" transform="translate(223.531 435.978)"/></g></g><g data-name="Group 1306"><path fill="#e29386" d="M225.014 415.042a10.318 10.318 0 0 1 10.29 10.29 9.852 9.852 0 0 1-1.071 4.527 10.2 10.2 0 0 1-5.672 5.1 3.383 3.383 0 0 1-.554.2c-.2.055-.425.129-.647.166a10.066 10.066 0 0 1-5.893-.369 10.274 10.274 0 0 1 3.547-19.916Z" data-name="Path 968"/><circle cx="6.817" cy="6.817" r="6.817" fill="#edbeb7" data-name="Ellipse 414" transform="translate(218.198 418.509)"/><g fill="#e29386" data-name="Group 1305"><circle cx=".346" cy=".346" r=".346" data-name="Ellipse 415" opacity=".4" style="mix-blend-mode:multiply;isolation:isolate" transform="translate(232.855 422.723)"/><circle cx=".346" cy=".346" r=".346" data-name="Ellipse 416" opacity=".4" style="mix-blend-mode:multiply;isolation:isolate" transform="translate(233.548 428.122)"/><circle cx=".346" cy=".346" r=".346" data-name="Ellipse 417" opacity=".4" style="mix-blend-mode:multiply;isolation:isolate" transform="translate(229.696 430.951)"/><circle cx=".346" cy=".346" r=".346" data-name="Ellipse 418" opacity=".4" style="mix-blend-mode:multiply;isolation:isolate" transform="translate(228.265 418.162)"/><circle cx=".346" cy=".346" r=".346" data-name="Ellipse 419" opacity=".4" style="mix-blend-mode:multiply;isolation:isolate" transform="translate(227.343 415.651)"/><circle cx=".346" cy=".346" r=".346" data-name="Ellipse 420" opacity=".4" style="mix-blend-mode:multiply;isolation:isolate" transform="translate(223.531 416.714)"/></g></g><path fill="#f7ea8d" d="m222.083 460.618-7.021-13.788 13.788-7.022 7.021 13.789z" data-name="Rectangle 261"/><path fill="#f7ea8d" d="m235.871 418.867-7.021 13.788-13.789-7.021 7.022-13.788z" data-name="Rectangle 262"/><path fill="#534741" d="M225.014 415.042a10.219 10.219 0 0 1 7.741 3.528l-.093.148-.443.8a6.1 6.1 0 0 1-.185 5.579 1.847 1.847 0 0 1-.221.425 5.439 5.439 0 0 1-1.589 1.921l1.145.333.093.037a5.3 5.3 0 0 1 2.18 1.367 7.087 7.087 0 0 1 .591.684 10.571 10.571 0 0 1 1.958 6.355v.018a10.9 10.9 0 0 1-1.33 5.4 6.957 6.957 0 0 1-1.219 1.644 5.53 5.53 0 0 1-1.811 1.257 3 3 0 0 1-.369.129l-1.238.369a5.327 5.327 0 0 1 1.33 1.46 4.116 4.116 0 0 1 .48.887 7.027 7.027 0 0 1 .721 3.99 10.276 10.276 0 1 1-11.288-16.4 10.274 10.274 0 0 1 3.547-19.916Z" data-name="Path 969" opacity=".1" style="mix-blend-mode:multiply;isolation:isolate"/><g fill="#e5b376" data-name="Group 1307"><path d="M233.457 407.1c1.441 1.46 1.94 3.418 1.219 4.712l-.111.2-3.75 6.706-3.048 5.45c-.98 1.737-3.677 1.534-5.6-.406l-5.561-5.635c-1.9-1.94-2.051-4.656-.314-5.6l4.9-2.642 7.371-3.972.2-.111c1.313-.702 3.271-.164 4.694 1.298Z" data-name="Path 970"/><path d="m221.19 409.887 9.992 8.174-3.415 6.107c-.98 1.737-3.677 1.534-5.6-.406l-5.561-5.635c-1.9-1.94-2.051-4.656-.314-5.6Z" data-name="Path 971" opacity=".6" style="mix-blend-mode:multiply;isolation:isolate"/><path d="m216.22 406.285 13.56 12.47c1.423 1.312 1.589 3.954.407 6.337a8.035 8.035 0 0 1-.887 1.385 4.942 4.942 0 0 1-4.4 2.107l-18.142-3.27c-2.347-.407-3.307-3.326-2.217-6.263a6.9 6.9 0 0 1 .332-.776l4.6-9.238c1.574-3.177 4.844-4.507 6.747-2.752Z" data-name="Path 972"/><path d="m204.544 419.051 25.643 6.041c-1.07 2.561-3.806 3.75-5.284 3.492l-18.142-3.27c-2.347-.407-3.307-3.326-2.217-6.263Z" data-name="Path 973" opacity=".6" style="mix-blend-mode:multiply;isolation:isolate"/><path d="M233.457 465.367c1.441-1.459 1.94-3.418 1.219-4.711l-3.861-6.91-3.048-5.45c-.98-1.736-3.677-1.533-5.6.407l-5.561 5.635c-1.9 1.939-2.051 4.655-.314 5.6l4.9 2.642 7.574 4.082c1.31.7 3.268.165 4.691-1.295Z" data-name="Path 974"/><path d="m221.19 462.578 9.992-8.174-3.415-6.108c-.98-1.736-3.677-1.533-5.6.407l-5.561 5.635c-1.9 1.939-2.051 4.655-.314 5.6Z" data-name="Path 975" opacity=".6" style="mix-blend-mode:multiply;isolation:isolate"/><path d="m216.22 466.18 13.56-12.471c1.423-1.311 1.589-3.953.407-6.336a8.046 8.046 0 0 0-.887-1.386 4.941 4.941 0 0 0-4.4-2.106l-18.142 3.27c-2.347.406-3.307 3.325-2.217 6.263a7.065 7.065 0 0 0 .332.776l4.6 9.237c1.574 3.178 4.844 4.508 6.747 2.753Z" data-name="Path 976"/><path d="m204.544 453.414 25.643-6.041c-1.07-2.562-3.806-3.751-5.284-3.492l-18.142 3.27c-2.347.406-3.307 3.325-2.217 6.263Z" data-name="Path 977" opacity=".6" style="mix-blend-mode:multiply;isolation:isolate"/><path d="m203.25 419.882 26.364 7.926a5.294 5.294 0 0 1 2.18 1.367 10.059 10.059 0 0 1 2.55 7.039v.018a10 10 0 0 1-2.55 7.039 5.162 5.162 0 0 1-2.18 1.386l-26.364 7.907a4.611 4.611 0 0 1-4.951-1.736 10.221 10.221 0 0 1-2.217-6.67v-15.851a10.306 10.306 0 0 1 2.217-6.688 4.653 4.653 0 0 1 4.951-1.737Z" data-name="Path 978"/><path d="M231.789 430.438a8.259 8.259 0 0 1 2.093 5.777v.016a8.206 8.206 0 0 1-2.093 5.777 8.9 8.9 0 0 1 0-11.57Z" data-name="Path 979" opacity=".6" style="mix-blend-mode:multiply;isolation:isolate"/><path d="m198.3 421.619 20.581 6.189a5.282 5.282 0 0 1 2.18 1.367 10.06 10.06 0 0 1 2.55 7.039v.018a10 10 0 0 1-2.55 7.039 5.15 5.15 0 0 1-2.18 1.386l-20.581 6.171a10.221 10.221 0 0 1-2.217-6.67v-15.851a10.306 10.306 0 0 1 2.217-6.688Z" data-name="Path 980" opacity=".1" style="mix-blend-mode:screen;isolation:isolate"/><path d="m199.946 423.7 17.646 5.306a4.549 4.549 0 0 1 1.869 1.172 8.631 8.631 0 0 1 2.186 6.035v.016a8.575 8.575 0 0 1-2.186 6.035 4.429 4.429 0 0 1-1.869 1.188l-17.646 5.291a8.766 8.766 0 0 1-1.9-5.719v-13.59a8.839 8.839 0 0 1 1.9-5.734Z" data-name="Path 981" opacity=".1" style="mix-blend-mode:screen;isolation:isolate"/><path d="M233.223 407.328c1.248 1.264 1.68 2.96 1.056 4.08l-.1.177a3.758 3.758 0 0 1-.96.112 4.364 4.364 0 0 1-4.369-4.369 4.274 4.274 0 0 1 .128-1.024l.176-.1c1.14-.604 2.837-.14 4.069 1.124Z" data-name="Path 982" opacity=".1" style="mix-blend-mode:screen;isolation:isolate"/><path d="M233.223 465.137c1.248-1.265 1.68-2.961 1.056-4.081l-.1-.176a3.758 3.758 0 0 0-.96-.112 4.364 4.364 0 0 0-4.369 4.369 4.273 4.273 0 0 0 .128 1.024l.176.1c1.14.604 2.837.139 4.069-1.124Z" data-name="Path 983" opacity=".1" style="mix-blend-mode:screen;isolation:isolate"/></g></g></g><ellipse cx=".375" cy=".671" fill="#e5b376" data-name="Ellipse 421" opacity=".4" rx=".375" ry=".671" style="mix-blend-mode:screen;isolation:isolate" transform="translate(204.159 436.324)"/><ellipse cx=".375" cy=".671" fill="#e5b376" data-name="Ellipse 422" opacity=".4" rx=".375" ry=".671" style="mix-blend-mode:screen;isolation:isolate" transform="translate(201.514 429.384)"/><ellipse cx=".375" cy=".671" fill="#e5b376" data-name="Ellipse 423" opacity=".4" rx=".375" ry=".671" style="mix-blend-mode:screen;isolation:isolate" transform="translate(199.609 442.68)"/><ellipse cx=".375" cy=".671" fill="#e5b376" data-name="Ellipse 424" opacity=".4" rx=".375" ry=".671" style="mix-blend-mode:screen;isolation:isolate" transform="translate(212.245 441.779)"/><ellipse cx=".375" cy=".671" fill="#e5b376" data-name="Ellipse 425" opacity=".4" rx=".375" ry=".671" style="mix-blend-mode:screen;isolation:isolate" transform="translate(210.682 430.333)"/></g></svg>