<svg xmlns="http://www.w3.org/2000/svg" width="83.118" height="83.118" viewBox="-7.44 0 83.118 83.118"><g data-name="Group 1139" transform="translate(-536.448 -134.619)"><path fill="#e6eae1" d="M581.431 159.015h18.723a3.03 3.03 0 0 1 3.03 3.03v.007a3.03 3.03 0 0 1-3.03 3.03h-18.723v-6.067Z" data-name="Rectangle 188"/><path fill="#534741" d="M604.684 189.684c0-9.344-8.1-16.945-18.053-16.945a18.935 18.935 0 0 0-7.22 1.425h-38.287V209.4a2.513 2.513 0 0 0-.263 1.1c0 4 10.246 7.239 22.885 7.239s22.886-3.241 22.886-7.239v-3.87c9.954-.002 18.052-7.603 18.052-16.946Zm-18.052 12.238v-24.477c7.284 0 13.211 5.49 13.211 12.239s-5.927 12.238-13.211 12.238Z" data-name="Path 789" opacity=".1" style="mix-blend-mode:multiply;isolation:isolate"/><circle cx="27.43" cy="27.43" r="27.43" fill="#f2f4ef" data-name="Ellipse 153" transform="translate(536.448 134.619)"/><circle cx="24.307" cy="24.307" r="24.307" fill="#f7b74f" data-name="Ellipse 154" transform="translate(539.57 137.741)"/><ellipse cx="25.496" cy="24.608" fill="#f2f4ef" data-name="Ellipse 155" rx="25.496" ry="24.608" transform="translate(538.381 143.115)"/><ellipse cx="16.405" cy="9.841" fill="#e6eae1" data-name="Ellipse 156" rx="16.405" ry="9.841" transform="translate(547.342 168.87)"/><circle cx="1.985" cy="1.985" r="1.985" fill="#bc8f48" data-name="Ellipse 157" opacity=".5" transform="translate(554.344 156.415)"/><circle cx="1.002" cy="1.002" r="1.002" fill="#bc8f48" data-name="Ellipse 158" opacity=".5" transform="translate(570.678 167.723)"/><circle cx="1.603" cy="1.603" r="1.603" fill="#bc8f48" data-name="Ellipse 159" opacity=".5" transform="translate(549.843 170.798)"/><circle cx=".841" cy=".841" r=".841" fill="#bc8f48" data-name="Ellipse 160" opacity=".5" transform="translate(562.905 178.09)"/><circle cx="1.062" cy="1.062" r="1.062" fill="#bc8f48" data-name="Ellipse 161" opacity=".5" transform="translate(571.069 141.17)"/></g></svg>