<svg xmlns="http://www.w3.org/2000/svg" width="75.989" height="75.989" viewBox="-22.57 0 75.989 75.989"><defs><clipPath id="a"><path fill="none" d="M332.873 470.8h-21.492a4.642 4.642 0 0 1-4.642-4.642v-28.912l12.522 8.37a17.837 17.837 0 0 0 9.907 3.006h8.347v17.54a4.642 4.642 0 0 1-4.642 4.638Z" data-name="Path 958"/></clipPath></defs><g data-name="Group 1300" transform="translate(-306.667 -401.815)"><path fill="#534741" d="M332.873 477.8h-21.492a4.642 4.642 0 0 1-4.642-4.642v-28.912l12.522 8.37a17.837 17.837 0 0 0 9.907 3.006h8.347v17.54a4.642 4.642 0 0 1-4.642 4.638Z" data-name="Path 941" opacity=".1" style="mix-blend-mode:multiply;isolation:isolate"/><g data-name="Group 1292"><path fill="#cca35c" d="M317.625 405.779v35.63a3.964 3.964 0 0 1-7.929 0v-35.63a3.964 3.964 0 0 1 7.929 0Z" data-name="Path 942"/><path fill="#bc5e39" d="M314.587 444.926a4.463 4.463 0 0 0 .916-2.713v-37.238a4.463 4.463 0 0 0-.916-2.713 3.653 3.653 0 0 1 2.71 3.514v35.636a3.653 3.653 0 0 1-2.71 3.514Z" data-name="Path 943" opacity=".3" style="mix-blend-mode:multiply;isolation:isolate"/><ellipse cx="1.396" cy=".904" fill="#bc5e39" data-name="Ellipse 390" opacity=".3" rx="1.396" ry=".904" style="mix-blend-mode:screen;isolation:isolate" transform="rotate(-50.004 588.729 -130.382)"/></g><g data-name="Group 1293"><path fill="#cca35c" d="M326.444 405.779v35.63a3.965 3.965 0 0 1-7.93 0v-35.63a3.965 3.965 0 0 1 7.93 0Z" data-name="Path 944"/><path fill="#bc5e39" d="M323.4 444.926a4.463 4.463 0 0 0 .916-2.713v-37.238a4.463 4.463 0 0 0-.916-2.713 3.653 3.653 0 0 1 2.71 3.514v35.636a3.653 3.653 0 0 1-2.71 3.514Z" data-name="Path 945" opacity=".3" style="mix-blend-mode:multiply;isolation:isolate"/><ellipse cx="1.396" cy=".904" fill="#bc5e39" data-name="Ellipse 391" opacity=".3" rx="1.396" ry=".904" style="mix-blend-mode:screen;isolation:isolate" transform="rotate(-50.004 593.14 -139.836)"/></g><g data-name="Group 1294"><path fill="#cca35c" d="M335.3 405.779v35.63a3.965 3.965 0 0 1-7.93 0v-35.63a3.965 3.965 0 0 1 7.93 0Z" data-name="Path 946"/><path fill="#bc5e39" d="M332.266 444.926a4.463 4.463 0 0 0 .916-2.713v-37.238a4.463 4.463 0 0 0-.916-2.713 3.653 3.653 0 0 1 2.71 3.514v35.636a3.653 3.653 0 0 1-2.71 3.514Z" data-name="Path 947" opacity=".3" style="mix-blend-mode:multiply;isolation:isolate"/><ellipse cx="1.396" cy=".904" fill="#bc5e39" data-name="Ellipse 392" opacity=".3" rx="1.396" ry=".904" style="mix-blend-mode:screen;isolation:isolate" transform="rotate(-50.004 597.569 -149.337)"/></g><g data-name="Group 1295"><circle cx="9.255" cy="9.255" r="9.255" fill="#7cc661" data-name="Ellipse 393" transform="translate(311.427 409.442)"/><circle cx="8.048" cy="8.048" r="8.048" fill="#cae09b" data-name="Ellipse 394" transform="translate(312.634 410.649)"/><circle cx="4.896" cy="4.896" r="4.896" fill="#deefb6" data-name="Ellipse 395" transform="translate(315.786 413.801)"/></g><g data-name="Group 1296"><circle cx="9.255" cy="9.255" r="9.255" fill="#7cc661" data-name="Ellipse 396" transform="translate(318.12 407.041)"/><circle cx="8.048" cy="8.048" r="8.048" fill="#cae09b" data-name="Ellipse 397" transform="translate(319.327 408.249)"/><circle cx="4.896" cy="4.896" r="4.896" fill="#deefb6" data-name="Ellipse 398" transform="translate(322.479 411.401)"/></g><path fill="#f4e6be" d="M328.166 448.759H307.35v-33.118a1.085 1.085 0 0 1 .58-.97.944.944 0 0 1 .579-.145c.869.034 1.8.112 2.552.19.134.022.268.033.4.055a17.484 17.484 0 0 1 8.625 3.444c7.166 5.583 8 16.793 8.068 28.505.012.68.012 1.359.012 2.039Z" data-name="Path 948"/><path fill="#f4e6be" d="M328.155 446.72h-12.871c0-7.723.179-15.367 1.906-21.663a25.368 25.368 0 0 1 2.9-6.842c7.163 5.585 7.998 16.793 8.065 28.505Z" data-name="Path 949" style="mix-blend-mode:multiply;isolation:isolate"/><path fill="#f4e6be" d="M335.767 411.169a1.111 1.111 0 0 1 1.136 1.116v33.131h-20.827c0-7.176.167-14.275 1.771-20.136 2.198-8.038 7.084-13.742 17.92-14.111Z" data-name="Path 950"/><path fill="#d84c4c" d="M335.767 411.169a1.111 1.111 0 0 1 1.136 1.116v13.084c0 2.238-2.75 3.843-5.067 1.62a1.093 1.093 0 0 1-.316-.784v-6.72a2.707 2.707 0 0 1-1.392.4 2.626 2.626 0 0 1-1.148-.256 1.1 1.1 0 0 0-1.549 1.025v2.853a1.107 1.107 0 0 1-.323.8 3.084 3.084 0 0 1-3.511.8 1.1 1.1 0 0 0-1.548 1.014v2.479c0 1.717-2.084 2.965-3.878 1.338a1.1 1.1 0 0 1-.324-.791v-3.867c2.198-8.038 7.084-13.742 17.92-14.111Z" data-name="Path 951"/><path fill="#d84c4c" d="M311.462 414.771v2.965a1.766 1.766 0 1 1-3.532 0v-3.065a.944.944 0 0 1 .579-.145c.869.034 1.8.112 2.552.19.139.022.268.033.401.055Z" data-name="Path 952"/><path fill="#ddae6b" d="M337.443 466.162v-31.191l-30.776 13.65" data-name="Path 953"/><path fill="#f2c372" d="M306.981 448.708v17.184a4.548 4.548 0 0 0 4.548 4.547h21.054a4.547 4.547 0 0 0 4.547-4.547" data-name="Path 954"/><ellipse cx="1.718" cy=".69" fill="#d84c4c" data-name="Ellipse 399" opacity=".6" rx="1.718" ry=".69" style="mix-blend-mode:screen;isolation:isolate" transform="rotate(-19.03 1396.962 -769.593)"/><circle cx=".69" cy=".69" r=".69" fill="#f4e6be" data-name="Ellipse 400" opacity=".5" style="mix-blend-mode:multiply;isolation:isolate" transform="translate(307.93 434.971)"/><circle cx="1.252" cy="1.252" r="1.252" fill="#f4e6be" data-name="Ellipse 401" opacity=".5" style="mix-blend-mode:multiply;isolation:isolate" transform="translate(325.882 429.111)"/><circle cx=".69" cy=".69" r=".69" fill="#f4e6be" data-name="Ellipse 402" opacity=".5" style="mix-blend-mode:multiply;isolation:isolate" transform="translate(319.327 440.743)"/><circle cx=".69" cy=".69" r=".69" fill="#f4e6be" data-name="Ellipse 403" opacity=".5" style="mix-blend-mode:multiply;isolation:isolate" transform="translate(332.931 432.891)"/><circle cx=".69" cy=".69" r=".69" fill="#f4e6be" data-name="Ellipse 404" opacity=".5" style="mix-blend-mode:multiply;isolation:isolate" transform="translate(312.97 421.599)"/><path fill="#c99b65" d="M306.739 437.246h.611v.408Z" data-name="Path 955"/><path fill="#c99b65" d="M337.443 434.971h-.54v.24Z" data-name="Path 956"/><path fill="#f2c372" d="M332.873 470.8h-21.492a4.642 4.642 0 0 1-4.642-4.642v-28.912l12.522 8.37a17.837 17.837 0 0 0 9.907 3.006h8.347v17.54a4.642 4.642 0 0 1-4.642 4.638Z" data-name="Path 957"/><g data-name="Group 1299"><g clip-path="url(#a)" data-name="Group 1298"><g fill="#f2c372" data-name="Group 1297"><path d="M0 0h.412v35.38H0z" data-name="Rectangle 252" opacity=".6" style="mix-blend-mode:multiply;isolation:isolate" transform="translate(306.89 436.869)"/><path d="M0 0h.412v35.38H0z" data-name="Rectangle 253" opacity=".6" style="mix-blend-mode:multiply;isolation:isolate" transform="translate(310.648 436.869)"/><path d="M0 0h.412v35.38H0z" data-name="Rectangle 254" opacity=".6" style="mix-blend-mode:multiply;isolation:isolate" transform="translate(314.406 436.869)"/><path d="M0 0h.412v35.38H0z" data-name="Rectangle 255" opacity=".6" style="mix-blend-mode:multiply;isolation:isolate" transform="translate(318.163 436.869)"/><path d="M0 0h.412v35.38H0z" data-name="Rectangle 256" opacity=".6" style="mix-blend-mode:multiply;isolation:isolate" transform="translate(321.921 436.869)"/><path d="M0 0h.412v35.38H0z" data-name="Rectangle 257" opacity=".6" style="mix-blend-mode:multiply;isolation:isolate" transform="translate(325.679 436.869)"/><path d="M0 0h.412v35.38H0z" data-name="Rectangle 258" opacity=".6" style="mix-blend-mode:multiply;isolation:isolate" transform="translate(329.437 436.869)"/><path d="M0 0h.412v35.38H0z" data-name="Rectangle 259" opacity=".6" style="mix-blend-mode:multiply;isolation:isolate" transform="translate(333.195 436.869)"/><path d="M0 0h.412v35.38H0z" data-name="Rectangle 260" opacity=".6" style="mix-blend-mode:multiply;isolation:isolate" transform="translate(336.953 436.869)"/></g></g></g></g></svg>