<svg xmlns="http://www.w3.org/2000/svg" width="70.677" height="70.677" viewBox="-3.05 0 70.677 70.677"><g data-name="Group 1154" transform="translate(-410.032 -262.388)"><path fill="#534741" d="M442.314 270.093a31.484 31.484 0 0 0-22.888 53.1c.273.293.556.576.83.85l.029.029a31.475 31.475 0 0 0 43.8.244c.01 0 .02-.01.029-.019.284-.274.567-.557.83-.84a31.475 31.475 0 0 0-22.634-53.364Zm0 19.744a11.742 11.742 0 1 1-11.727 11.737 11.735 11.735 0 0 1 11.727-11.737Z" data-name="Path 804" opacity=".1" style="mix-blend-mode:multiply;isolation:isolate"/><path fill="#f4ae69" d="M442.314 263.256a31.486 31.486 0 0 0-22.89 53.1c.28.29.56.58.83.85l.03.03q.42.42.87.81a31.469 31.469 0 0 0 42.05.25c.3-.27.6-.54.89-.82.01 0 .01-.01.02-.01.29-.28.57-.56.83-.84a31.478 31.478 0 0 0-22.63-53.37Zm-11.71 30.88c0-.11.01-.22.02-.32a10.328 10.328 0 0 1 .28-1.78 4.9 4.9 0 0 1 .17-.63 10.539 10.539 0 0 1 .67-1.75c.01-.02.02-.03.03-.05a6.172 6.172 0 0 1 .38-.72 11.009 11.009 0 0 1 1.42-1.96 11.914 11.914 0 0 1 1.78-1.63c.21-.16.43-.31.65-.45a10.446 10.446 0 0 1 1.23-.68 4.54 4.54 0 0 1 .45-.21 10.553 10.553 0 0 1 1.85-.61c.14-.04.28-.07.42-.1q.345-.075.69-.12c.21-.03.41-.06.62-.07a2.968 2.968 0 0 1 .42-.03c.21-.01.42-.02.63-.02a12.572 12.572 0 0 1 1.75.13l.53.09.13.03a4.868 4.868 0 0 1 .52.12c.19.05.38.1.56.16.34.1.67.22.99.35.4.17.79.36 1.16.56a11.816 11.816 0 0 1 2.66 2c.26.26.52.54.76.83.12.15.23.29.34.44s.23.31.33.46a11.783 11.783 0 0 1 .61 1.01c.08.15.16.31.24.47.07.14.14.29.2.43a11.864 11.864 0 0 1 .73 2.35 4 4 0 0 1 .08.48c.03.16.05.31.07.47v.01c.02.15.03.29.04.44.01.1.02.2.02.3.01.2.02.4.02.6 0 .22-.01.44-.02.66a1.1 1.1 0 0 1-.02.18 2.7 2.7 0 0 1-.03.4 11.511 11.511 0 0 1-1.99 5.4c-.09.13-.18.26-.28.39a11.232 11.232 0 0 1-1.79 1.92c-.11.09-.22.18-.33.26a11.334 11.334 0 0 1-3 1.73c-.12.05-.25.1-.37.14-.14.05-.28.1-.42.14s-.28.09-.43.12c-.23.07-.46.12-.69.17-.2.04-.39.07-.58.1-.25.04-.5.07-.76.09-.34.03-.68.05-1.03.05a8.707 8.707 0 0 1-1.02-.05 11.336 11.336 0 0 1-1.34-.19c-.23-.05-.47-.1-.7-.17-.14-.03-.29-.08-.43-.12s-.28-.09-.41-.14-.25-.09-.37-.14a11.561 11.561 0 0 1-3.22-1.89c-.13-.12-.26-.23-.39-.35a5 5 0 0 1-.41-.39 8.719 8.719 0 0 1-.76-.84c-.1-.12-.2-.25-.31-.38-.23-.32-.46-.65-.67-1-.1-.16-.19-.32-.28-.49a11.324 11.324 0 0 1-1.18-3.24 8.4 8.4 0 0 1-.17-1.12 2.7 2.7 0 0 1-.03-.4 1.1 1.1 0 0 1-.02-.18c-.01-.22-.02-.44-.02-.66 0-.2.01-.4.016-.6Z" data-name="Path 805"/><path fill="#f4ae69" d="M442.314 263.256a31.486 31.486 0 0 0-22.89 53.1c.28.29.56.58.83.85l.03.03q.42.42.87.81a9.914 9.914 0 0 0 5.09-3.59c.91-1.06 1.39-1.58 2.39-1.76a5.41 5.41 0 0 1 .91-.07c1.08 0 1.81.96 3.22 3.15.2.31.39.62.6.92 1.92 2.92 4.34 5.62 8.95 5.62a11.291 11.291 0 0 0 4.73-.95 14.689 14.689 0 0 0 4.78-3.69c1.56-1.62 2.45-2.47 4.02-2.47a5.5 5.5 0 0 1 3.8 1.24 12.727 12.727 0 0 0 3.56 1.85c.3-.27.6-.54.89-.82.01 0 .01-.01.02-.01.29-.28.57-.56.83-.84a31.478 31.478 0 0 0-22.63-53.37Zm-11.71 30.88c0-.11.01-.22.02-.32.012-.184.039-.366.062-.548a13.8 13.8 0 0 1 .218-1.232c.05-.21.11-.42.17-.63.064-.231.145-.454.225-.677.046-.131.1-.262.148-.391.094-.23.189-.459.3-.682.01-.02.02-.03.03-.05.12-.24.25-.49.38-.72a12.56 12.56 0 0 1 1.42-1.96 11.914 11.914 0 0 1 1.78-1.63c.21-.16.43-.31.65-.45a10.446 10.446 0 0 1 1.23-.68 4.54 4.54 0 0 1 .45-.21 10.553 10.553 0 0 1 1.85-.61c.14-.04.28-.07.42-.1q.345-.075.69-.12c.21-.03.41-.06.62-.07a2.968 2.968 0 0 1 .42-.03c.21-.01.42-.02.63-.02a12.572 12.572 0 0 1 1.75.13 4.892 4.892 0 0 1 .53.09l.13.03a4.868 4.868 0 0 1 .52.12c.19.05.38.1.56.16.34.1.67.22.99.35.4.17.79.36 1.16.56a11.816 11.816 0 0 1 2.66 2c.26.26.52.54.76.83.12.15.23.29.34.44s.23.31.33.46a11.783 11.783 0 0 1 .61 1.01c.08.15.16.31.24.47.07.14.14.29.2.43a11.864 11.864 0 0 1 .73 2.35 4 4 0 0 1 .08.48c.03.16.05.31.07.47v.01c.02.14.03.29.04.44.01.1.02.2.02.3.01.2.02.4.02.6 0 .22-.01.44-.02.66a1.1 1.1 0 0 1-.02.18 2.8 2.8 0 0 1-.03.4 11.511 11.511 0 0 1-1.99 5.4c-.09.13-.18.26-.28.39a11.232 11.232 0 0 1-1.79 1.92c-.11.09-.22.18-.33.26a11.334 11.334 0 0 1-3 1.73c-.12.05-.24.1-.37.14s-.28.1-.42.14-.28.09-.43.12c-.23.07-.46.12-.69.17-.2.04-.39.07-.58.1-.25.04-.5.07-.76.09-.34.03-.68.05-1.03.05a8.707 8.707 0 0 1-1.02-.05 11.336 11.336 0 0 1-1.34-.19c-.23-.05-.47-.1-.7-.17-.14-.03-.29-.08-.43-.12s-.28-.09-.41-.14-.25-.09-.37-.14a11.561 11.561 0 0 1-3.22-1.89c-.13-.12-.26-.23-.39-.35a5 5 0 0 1-.41-.39 8.719 8.719 0 0 1-.76-.84c-.1-.12-.2-.25-.31-.38-.23-.32-.46-.65-.67-1-.1-.16-.19-.32-.28-.49a11.324 11.324 0 0 1-1.18-3.24 10.427 10.427 0 0 1-.17-1.12 2.8 2.8 0 0 1-.03-.4 1.1 1.1 0 0 1-.02-.18c-.01-.22-.02-.44-.02-.66-.003-.2.007-.4.013-.6Z" data-name="Path 806" opacity=".2" style="mix-blend-mode:multiply;isolation:isolate"/><path fill="#ef6060" d="M474.586 293.47a32.089 32.089 0 0 0-7.743-19.657c-.2-.244-.41-.488-.625-.722a32.257 32.257 0 0 0-56.186 21.648c0 .186 0 .371.01.557 0 .332.01.664.029.986a32.157 32.157 0 0 0 7.451 19.148 2.5 2.5 0 0 0 2.46.869c4.883-1.1 4.56-4.9 8.329-5.575a7.632 7.632 0 0 1 1.231-.1c2.607 0 3.857 2.51 5.488 4.97 1.572 2.383 3.486 4.717 7.284 4.717a9.443 9.443 0 0 0 3.925-.772c4.17-1.836 5.254-6.337 9.609-6.337 4.472 0 4.491 2.236 8.446 3.33a2.484 2.484 0 0 0 2.558-.8 32.111 32.111 0 0 0 7.734-22.262Zm-20.555 1.923a11.73 11.73 0 0 1-23.425 0c-.01-.215-.019-.439-.019-.654a11.024 11.024 0 0 1 .088-1.406 12.167 12.167 0 0 1 .6-2.539 10.074 10.074 0 0 1 .508-1.191 11.717 11.717 0 0 1 15.018-5.712 11.393 11.393 0 0 1 1.162.556 11.738 11.738 0 0 1 6.015 8.935v.009a12.157 12.157 0 0 1 .078 1.348c-.005.215-.015.439-.025.654Z" data-name="Path 807"/><path fill="#ef6060" d="M474.584 293.466a32.044 32.044 0 0 0-7.74-19.65c-.2-.25-.41-.49-.63-.73a32.2 32.2 0 0 0-46.6-1.3c-.25.63-.49 1.26-.7 1.9a35.042 35.042 0 0 0 9.4 37.04 7.461 7.461 0 0 1 1.23-.1c2.61 0 3.86 2.51 5.49 4.97a34.636 34.636 0 0 0 11.21 3.94c4.17-1.83 5.25-6.33 9.6-6.33 4.48 0 4.5 2.23 8.45 3.33a2.426 2.426 0 0 0 .65.09 2.526 2.526 0 0 0 1.91-.89 32.122 32.122 0 0 0 7.73-22.27Zm-20.55 1.93a1.1 1.1 0 0 1-.02.18 2.8 2.8 0 0 1-.03.4 11.511 11.511 0 0 1-1.99 5.4 3.885 3.885 0 0 1-.28.39 11.232 11.232 0 0 1-1.79 1.92c-.11.09-.22.18-.33.26a11.334 11.334 0 0 1-3 1.73c-.12.05-.24.1-.37.14s-.28.1-.42.14a3.027 3.027 0 0 1-.43.12c-.23.07-.46.12-.69.17-.19.04-.38.07-.58.1-.25.04-.5.07-.76.09-.34.03-.68.05-1.03.05a8.707 8.707 0 0 1-1.02-.05 11.336 11.336 0 0 1-1.34-.19c-.23-.05-.47-.1-.7-.17a3.448 3.448 0 0 1-.43-.12c-.14-.04-.28-.09-.41-.14s-.25-.09-.37-.14a11.561 11.561 0 0 1-3.22-1.89c-.13-.12-.26-.23-.39-.35a5 5 0 0 1-.41-.39 8.719 8.719 0 0 1-.76-.84c-.11-.12-.21-.25-.31-.38-.23-.32-.46-.65-.67-1-.1-.16-.19-.32-.28-.49a11.324 11.324 0 0 1-1.18-3.24 10.427 10.427 0 0 1-.17-1.12 2.8 2.8 0 0 1-.03-.4 1.1 1.1 0 0 1-.02-.18c-.01-.22-.02-.44-.02-.66 0-.2.01-.4.02-.6 0-.11.01-.21.02-.32.012-.184.039-.366.062-.548a13.8 13.8 0 0 1 .218-1.232c.05-.21.11-.42.17-.63.064-.231.145-.454.225-.677.046-.131.1-.262.148-.391.094-.23.189-.459.3-.682.01-.02.02-.03.03-.05.12-.24.25-.49.38-.72a12.56 12.56 0 0 1 1.42-1.96 11.914 11.914 0 0 1 1.78-1.63c.21-.16.43-.31.65-.45a10.446 10.446 0 0 1 1.23-.68c.15-.08.3-.14.45-.21a10.553 10.553 0 0 1 1.85-.61c.14-.04.28-.07.42-.1q.345-.075.69-.12c.21-.03.41-.06.62-.07a2.968 2.968 0 0 1 .42-.03c.21-.01.42-.02.63-.02a12.572 12.572 0 0 1 1.75.13 4.892 4.892 0 0 1 .53.09l.13.03a4.868 4.868 0 0 1 .52.12 5.144 5.144 0 0 1 .56.16c.34.1.67.22.99.35.4.17.79.36 1.16.56a11.816 11.816 0 0 1 2.66 2 9.963 9.963 0 0 1 .76.83c.12.15.23.29.34.44s.23.31.33.46a11.783 11.783 0 0 1 .61 1.01 5.217 5.217 0 0 1 .24.47c.07.14.14.29.2.43a11.864 11.864 0 0 1 .73 2.35c.03.16.06.32.08.48s.05.31.07.47v.01c.02.14.03.29.04.44.01.1.02.2.02.3.01.2.02.4.02.6-.003.22-.013.44-.023.664Z" data-name="Path 808" opacity=".2" style="mix-blend-mode:screen;isolation:isolate"/><path fill="#ef6060" d="M453.992 292.786c0 .2-.009.4-.019.6a11.73 11.73 0 0 0-23.3-.049 4.913 4.913 0 0 1-.02-.547 11.669 11.669 0 1 1 23.337 0Z" data-name="Path 809" opacity=".28" style="mix-blend-mode:multiply;isolation:isolate"/><ellipse cx="2.991" cy="10.608" fill="#ef6060" data-name="Ellipse 196" opacity=".4" rx="2.991" ry="10.608" style="mix-blend-mode:screen;isolation:isolate" transform="rotate(-71.4 406.408 -172.124)"/><path fill="#ef6060" d="M442.984 317.869a.488.488 0 0 1-.394-.776l.743-1.019a.488.488 0 0 1 .789.576l-.744 1.019a.486.486 0 0 1-.394.2Z" data-name="Path 811" opacity=".3" style="mix-blend-mode:multiply;isolation:isolate"/><path fill="#f7d166" d="m443.633 316.369-.742 1.015a.49.49 0 0 1-.39.2.556.556 0 0 1-.293-.1.527.527 0 0 1-.176-.264.471.471 0 0 1 .078-.42l.742-1.016a.473.473 0 0 1 .42-.2.544.544 0 0 1 .264.1.484.484 0 0 1 .097.685Z" data-name="Path 812"/><path fill="#ef6060" d="m443.2 316.007-.742 1.016a.483.483 0 0 1-.4.2h-.029a.471.471 0 0 1 .078-.42l.742-1.016a.473.473 0 0 1 .42-.2.5.5 0 0 1-.069.42Z" data-name="Path 813" opacity=".1" style="mix-blend-mode:multiply;isolation:isolate"/><path fill="#ef6060" d="M448.669 309.118a.488.488 0 0 1-.857.149l-.757-1.008a.488.488 0 1 1 .781-.586l.757 1.008a.49.49 0 0 1 .076.437Z" data-name="Path 814" opacity=".3" style="mix-blend-mode:multiply;isolation:isolate"/><path fill="#dd3c3c" d="m447.424 308.058.754 1.006a.49.49 0 0 1 .082.434.555.555 0 0 1-.179.251.525.525 0 0 1-.3.091.47.47 0 0 1-.378-.2l-.754-1.007a.467.467 0 0 1-.074-.461.55.55 0 0 1 .171-.224.483.483 0 0 1 .678.11Z" data-name="Path 815"/><path fill="#ef6060" d="m446.953 308.363.754 1.006a.483.483 0 0 1 .079.443l-.009.028a.47.47 0 0 1-.378-.2l-.754-1.007a.467.467 0 0 1-.074-.461.5.5 0 0 1 .382.191Z" data-name="Path 816" opacity=".1" style="mix-blend-mode:multiply;isolation:isolate"/><path fill="#ef6060" d="M416.208 296.384a.489.489 0 0 1-.858.15l-.757-1.009a.488.488 0 1 1 .781-.586l.757 1.009a.485.485 0 0 1 .077.436Z" data-name="Path 817" opacity=".3" style="mix-blend-mode:multiply;isolation:isolate"/><path fill="#dd3c3c" d="m414.962 295.324.755 1.006a.5.5 0 0 1 .082.434.565.565 0 0 1-.179.252.535.535 0 0 1-.3.091.473.473 0 0 1-.379-.2l-.754-1.006a.471.471 0 0 1-.073-.462.538.538 0 0 1 .17-.223.483.483 0 0 1 .678.108Z" data-name="Path 818"/><path fill="#ef6060" d="m414.491 295.629.755 1.007a.485.485 0 0 1 .079.443l-.009.028a.473.473 0 0 1-.379-.2l-.754-1.006a.471.471 0 0 1-.073-.462.5.5 0 0 1 .381.19Z" data-name="Path 819" opacity=".1" style="mix-blend-mode:multiply;isolation:isolate"/><path fill="#ef6060" d="M455.243 310.344a.482.482 0 0 1-.158-.258.488.488 0 0 1 .361-.588l1.226-.295a.488.488 0 1 1 .228.949l-1.226.295a.487.487 0 0 1-.431-.103Z" data-name="Path 820" opacity=".3" style="mix-blend-mode:multiply;isolation:isolate"/><path fill="#8e5442" d="m456.71 309.621-1.223.294a.492.492 0 0 1-.431-.1.564.564 0 0 1-.16-.264.533.533 0 0 1 .037-.315.472.472 0 0 1 .332-.269l1.223-.293a.47.47 0 0 1 .453.115.548.548 0 0 1 .137.245.483.483 0 0 1-.368.587Z" data-name="Path 821"/><path fill="#ef6060" d="m456.617 309.068-1.224.293a.481.481 0 0 1-.437-.1l-.023-.019a.472.472 0 0 1 .332-.269l1.223-.293a.47.47 0 0 1 .453.115.5.5 0 0 1-.324.273Z" data-name="Path 822" opacity=".1" style="mix-blend-mode:multiply;isolation:isolate"/><path fill="#ef6060" d="M467.563 307.844a.488.488 0 0 1-.741-.458l.1-1.256a.489.489 0 1 1 .974.081l-.1 1.256a.484.484 0 0 1-.233.377Z" data-name="Path 823" opacity=".3" style="mix-blend-mode:multiply;isolation:isolate"/><path fill="#3963e5" d="m467.336 306.224-.105 1.254a.489.489 0 0 1-.226.378.547.547 0 0 1-.3.069.524.524 0 0 1-.288-.133.47.47 0 0 1-.151-.4l.1-1.254a.467.467 0 0 1 .252-.393.533.533 0 0 1 .276-.054.482.482 0 0 1 .442.533Z" data-name="Path 824"/><path fill="#ef6060" d="m466.781 306.14-.105 1.253a.481.481 0 0 1-.235.384l-.025.015a.47.47 0 0 1-.151-.4l.1-1.254a.467.467 0 0 1 .252-.393.5.5 0 0 1 .164.395Z" data-name="Path 825" opacity=".1" style="mix-blend-mode:multiply;isolation:isolate"/><g data-name="Group 1144"><path fill="#ef6060" d="M471.713 302.074a.487.487 0 0 1-.389-.778l.748-1.015a.488.488 0 0 1 .786.58l-.749 1.015a.487.487 0 0 1-.396.198Z" data-name="Path 826" opacity=".3" style="mix-blend-mode:multiply;isolation:isolate"/><path fill="#fff" d="m472.371 300.577-.748 1.012a.49.49 0 0 1-.391.2.552.552 0 0 1-.293-.1.525.525 0 0 1-.174-.264.475.475 0 0 1 .08-.42l.748-1.011a.47.47 0 0 1 .421-.2.542.542 0 0 1 .263.1.484.484 0 0 1 .094.683Z" data-name="Path 827"/><path fill="#ef6060" d="m471.943 300.214-.747 1.011a.483.483 0 0 1-.4.2h-.029a.475.475 0 0 1 .08-.42l.748-1.011a.47.47 0 0 1 .421-.2.5.5 0 0 1-.073.42Z" data-name="Path 828" opacity=".1" style="mix-blend-mode:multiply;isolation:isolate"/></g><path fill="#ef6060" d="M414.4 308.01a.489.489 0 0 1-.39-.779l.749-1.015a.488.488 0 0 1 .785.581l-.749 1.014a.488.488 0 0 1-.395.199Z" data-name="Path 829" opacity=".3" style="mix-blend-mode:multiply;isolation:isolate"/><path fill="#69c5ed" d="m415.053 306.512-.747 1.012a.492.492 0 0 1-.392.2.552.552 0 0 1-.292-.1.528.528 0 0 1-.175-.265.47.47 0 0 1 .081-.419l.747-1.012a.471.471 0 0 1 .421-.2.549.549 0 0 1 .263.1.483.483 0 0 1 .094.684Z" data-name="Path 830"/><path fill="#ef6060" d="m414.626 306.149-.748 1.011a.479.479 0 0 1-.4.2h-.03a.47.47 0 0 1 .081-.419l.747-1.012a.471.471 0 0 1 .421-.2.5.5 0 0 1-.071.42Z" data-name="Path 831" opacity=".1" style="mix-blend-mode:multiply;isolation:isolate"/><g data-name="Group 1145"><path fill="#ef6060" d="M435.363 307.833a.488.488 0 0 1 .466-.735l1.255.117a.489.489 0 0 1-.091.973l-1.256-.118a.486.486 0 0 1-.374-.237Z" data-name="Path 832" opacity=".3" style="mix-blend-mode:multiply;isolation:isolate"/><path fill="#fff" d="m436.985 307.624-1.252-.118a.492.492 0 0 1-.376-.231.547.547 0 0 1-.066-.3.533.533 0 0 1 .137-.286.471.471 0 0 1 .4-.147l1.252.118a.469.469 0 0 1 .391.256.537.537 0 0 1 .051.277.483.483 0 0 1-.537.431Z" data-name="Path 833"/><path fill="#ef6060" d="m437.076 307.07-1.253-.118a.48.48 0 0 1-.38-.239l-.015-.026a.471.471 0 0 1 .4-.147l1.252.118a.469.469 0 0 1 .391.256.494.494 0 0 1-.395.156Z" data-name="Path 834" opacity=".1" style="mix-blend-mode:multiply;isolation:isolate"/></g><g data-name="Group 1146"><path fill="#ef6060" d="M429.437 308.111a.488.488 0 0 1-.524-.7l.554-1.133a.488.488 0 1 1 .877.43l-.554 1.132a.486.486 0 0 1-.353.271Z" data-name="Path 835" opacity=".3" style="mix-blend-mode:multiply;isolation:isolate"/><path fill="#f95b30" d="m429.814 306.52-.553 1.129a.486.486 0 0 1-.349.27.546.546 0 0 1-.3-.045.523.523 0 0 1-.219-.228.471.471 0 0 1 0-.428l.554-1.129a.467.467 0 0 1 .377-.275.544.544 0 0 1 .277.05.482.482 0 0 1 .213.656Z" data-name="Path 836"/><path fill="#ef6060" d="m429.328 306.239-.553 1.13a.482.482 0 0 1-.359.271l-.028.006a.471.471 0 0 1 0-.428l.554-1.129a.467.467 0 0 1 .377-.275.494.494 0 0 1 .009.425Z" data-name="Path 837" opacity=".1" style="mix-blend-mode:multiply;isolation:isolate"/></g><g data-name="Group 1147"><path fill="#ef6060" d="M456.648 296.327a.488.488 0 0 1-.523-.7l.554-1.133a.488.488 0 0 1 .877.43L457 296.06a.486.486 0 0 1-.352.267Z" data-name="Path 838" opacity=".3" style="mix-blend-mode:multiply;isolation:isolate"/><path fill="#f95b30" d="m457.026 294.736-.553 1.129a.489.489 0 0 1-.349.27.549.549 0 0 1-.306-.045.528.528 0 0 1-.219-.228.475.475 0 0 1 0-.428l.553-1.129a.469.469 0 0 1 .378-.275.54.54 0 0 1 .276.05.484.484 0 0 1 .22.656Z" data-name="Path 839"/><path fill="#ef6060" d="m456.54 294.455-.553 1.13a.484.484 0 0 1-.359.271l-.029.006a.475.475 0 0 1 0-.428l.553-1.129a.469.469 0 0 1 .378-.275.5.5 0 0 1 .01.425Z" data-name="Path 840" opacity=".1" style="mix-blend-mode:multiply;isolation:isolate"/></g><g data-name="Group 1148"><path fill="#ef6060" d="M422.263 305.941a.481.481 0 0 1-.3.042.489.489 0 0 1-.4-.565l.218-1.243a.488.488 0 0 1 .962.17l-.218 1.241a.49.49 0 0 1-.262.355Z" data-name="Path 841" opacity=".3" style="mix-blend-mode:multiply;isolation:isolate"/><path fill="#fff" d="m422.185 304.307-.219 1.239a.487.487 0 0 1-.26.356.55.55 0 0 1-.306.042.537.537 0 0 1-.274-.159.477.477 0 0 1-.115-.412l.218-1.238a.47.47 0 0 1 .287-.37.547.547 0 0 1 .28-.028.483.483 0 0 1 .389.57Z" data-name="Path 842"/><path fill="#ef6060" d="m421.64 304.172-.219 1.239a.481.481 0 0 1-.268.361l-.027.013a.477.477 0 0 1-.115-.412l.218-1.238a.47.47 0 0 1 .287-.37.5.5 0 0 1 .124.407Z" data-name="Path 843" opacity=".1" style="mix-blend-mode:multiply;isolation:isolate"/></g><g data-name="Group 1149"><path fill="#ef6060" d="M418.831 312.067a.489.489 0 0 1 .871 0l.575 1.122a.489.489 0 0 1-.87.445l-.574-1.122a.487.487 0 0 1-.002-.445Z" data-name="Path 844" opacity=".3" style="mix-blend-mode:multiply;isolation:isolate"/><path fill="#804de2" d="m419.879 313.323-.573-1.12a.49.49 0 0 1-.007-.441.559.559 0 0 1 .219-.218.529.529 0 0 1 .314-.038.473.473 0 0 1 .34.259l.573 1.12a.468.468 0 0 1-.006.467.543.543 0 0 1-.206.191.483.483 0 0 1-.654-.22Z" data-name="Path 845"/><path fill="#ef6060" d="m420.395 313.1-.573-1.12a.484.484 0 0 1 0-.45l.013-.026a.473.473 0 0 1 .34.259l.573 1.12a.468.468 0 0 1-.006.467.5.5 0 0 1-.347-.25Z" data-name="Path 846" opacity=".1" style="mix-blend-mode:multiply;isolation:isolate"/></g><g data-name="Group 1150"><path fill="#ef6060" d="M463.491 298.285a.489.489 0 0 1 .322.809l-.832.947a.488.488 0 1 1-.733-.644l.832-.947a.489.489 0 0 1 .411-.165Z" data-name="Path 847" opacity=".3" style="mix-blend-mode:multiply;isolation:isolate"/><path fill="#804de2" d="m462.708 299.721.831-.944a.491.491 0 0 1 .408-.169.553.553 0 0 1 .283.124.525.525 0 0 1 .151.278.472.472 0 0 1-.116.411l-.831.945a.468.468 0 0 1-.436.166.549.549 0 0 1-.254-.121.484.484 0 0 1-.036-.69Z" data-name="Path 848"/><path fill="#ef6060" d="m463.1 300.12.831-.944a.477.477 0 0 1 .417-.168h.029a.472.472 0 0 1-.116.411l-.831.945a.468.468 0 0 1-.436.166.5.5 0 0 1 .106-.41Z" data-name="Path 849" opacity=".1" style="mix-blend-mode:multiply;isolation:isolate"/></g><g data-name="Group 1151"><path fill="#ef6060" d="M461.285 311.8a.488.488 0 0 1 .87 0l.575 1.123a.488.488 0 0 1-.869.445l-.575-1.123a.487.487 0 0 1-.001-.445Z" data-name="Path 850" opacity=".3" style="mix-blend-mode:multiply;isolation:isolate"/><path fill="#fff" d="m462.332 313.054-.573-1.12a.493.493 0 0 1-.007-.441.551.551 0 0 1 .219-.217.525.525 0 0 1 .315-.038.471.471 0 0 1 .34.258l.572 1.12a.468.468 0 0 1-.006.467.546.546 0 0 1-.206.192.483.483 0 0 1-.654-.221Z" data-name="Path 851"/><path fill="#ef6060" d="m462.848 312.833-.572-1.12a.476.476 0 0 1 0-.449l.013-.026a.471.471 0 0 1 .34.258l.572 1.12a.468.468 0 0 1-.006.467.5.5 0 0 1-.347-.25Z" data-name="Path 852" opacity=".1" style="mix-blend-mode:multiply;isolation:isolate"/></g><path fill="#ef6060" d="M453.032 304.144a.489.489 0 0 1 .871 0l.575 1.123a.488.488 0 0 1-.87.444l-.574-1.122a.487.487 0 0 1-.002-.445Z" data-name="Path 853" opacity=".3" style="mix-blend-mode:multiply;isolation:isolate"/><path fill="#aec95b" d="m454.08 305.4-.573-1.12a.49.49 0 0 1-.007-.441.551.551 0 0 1 .219-.217.529.529 0 0 1 .314-.039.473.473 0 0 1 .34.259l.573 1.12a.468.468 0 0 1-.006.467.553.553 0 0 1-.206.192.483.483 0 0 1-.654-.221Z" data-name="Path 854"/><path fill="#ef6060" d="m454.6 305.179-.573-1.12a.482.482 0 0 1 0-.449l.013-.027a.473.473 0 0 1 .34.259l.573 1.12a.468.468 0 0 1-.006.467.493.493 0 0 1-.347-.25Z" data-name="Path 855" opacity=".1" style="mix-blend-mode:multiply;isolation:isolate"/><g data-name="Group 1152"><path fill="#ef6060" d="M438.355 311.916a.489.489 0 0 1 .871 0l.575 1.123a.488.488 0 1 1-.87.444l-.574-1.122a.487.487 0 0 1-.002-.445Z" data-name="Path 856" opacity=".3" style="mix-blend-mode:multiply;isolation:isolate"/><path fill="#efca30" d="m439.4 313.172-.573-1.12a.49.49 0 0 1-.007-.441.551.551 0 0 1 .219-.217.53.53 0 0 1 .314-.039.473.473 0 0 1 .34.259l.573 1.12a.468.468 0 0 1-.006.467.553.553 0 0 1-.206.192.483.483 0 0 1-.654-.221Z" data-name="Path 857"/><path fill="#ef6060" d="m439.919 312.951-.573-1.12a.482.482 0 0 1 0-.449l.013-.027a.473.473 0 0 1 .34.259l.573 1.12a.468.468 0 0 1-.006.467.5.5 0 0 1-.347-.25Z" data-name="Path 858" opacity=".1" style="mix-blend-mode:multiply;isolation:isolate"/></g><g data-name="Group 1153"><path fill="#ef6060" d="M426.029 298.643a.488.488 0 0 1 .334.8l-.818.96a.488.488 0 0 1-.743-.634l.818-.96a.489.489 0 0 1 .409-.166Z" data-name="Path 859" opacity=".3" style="mix-blend-mode:multiply;isolation:isolate"/><path fill="#efca30" d="m425.267 300.09.817-.956a.491.491 0 0 1 .4-.175.55.55 0 0 1 .285.119.532.532 0 0 1 .155.277.468.468 0 0 1-.109.412l-.817.957a.47.47 0 0 1-.434.173.549.549 0 0 1-.256-.118.484.484 0 0 1-.041-.689Z" data-name="Path 860"/><path fill="#ef6060" d="m425.669 300.483.816-.957a.485.485 0 0 1 .415-.174h.029a.468.468 0 0 1-.109.412l-.817.957a.47.47 0 0 1-.434.173.5.5 0 0 1 .1-.411Z" data-name="Path 861" opacity=".1" style="mix-blend-mode:multiply;isolation:isolate"/></g></g></svg>