<svg xmlns="http://www.w3.org/2000/svg" width="78.118" height="78.118" viewBox="-19.26 0 78.118 78.118"><g data-name="Group 1157"><path fill="#534741" d="M575.329 415.545c-.25-.042-.513-.063-.77-.094-.4-.766-.932-1.242-1.526-1.242V412.3a6.445 6.445 0 0 0-12.89 0v1.909c-.594 0-1.13.476-1.526 1.242-.258.031-.521.052-.77.094-6.944 1.121-11.056 6.686-11.056 12.07v27.516a12.533 12.533 0 0 0 10.756 12.017c.241.042.5.062.745.1.39 1.222 1.07 2.039 1.851 2.039v.934a6.445 6.445 0 0 0 12.89 0v-.934c.78 0 1.461-.817 1.851-2.039.247-.035.5-.055.744-.1a12.533 12.533 0 0 0 10.757-12.017v-27.516c0-5.384-4.113-10.949-11.056-12.07Z" data-name="Path 862" opacity=".1" style="mix-blend-mode:multiply;isolation:isolate" transform="translate(-546.791 -398.544)"/><g data-name="Group 1156" transform="translate(-546.791 -398.544)"><g data-name="Group 1155"><path fill="#f9c953" d="M583.5 420.3v27.516c0 4.754-4.027 9.667-9.753 11.5v-50.507c5.727 1.859 9.753 6.741 9.753 11.491Z" data-name="Path 863"/><path fill="#f9c953" d="M586.385 420.3v27.516a12.533 12.533 0 0 1-10.757 12.017c-.608.107-1.239.192-1.88.246V408.04c.535.043 1.069.107 1.581.193 6.943 1.121 11.056 6.686 11.056 12.067Z" data-name="Path 864"/><path fill="#f9c953" d="M583.5 420.3v27.516c0 4.754-4.027 9.667-9.753 11.5v-50.507c5.727 1.859 9.753 6.741 9.753 11.491Z" data-name="Path 865" opacity=".2" style="mix-blend-mode:screen;isolation:isolate"/><path fill="#8cc140" d="M575.532 420.485a2.211 2.211 0 0 0 0 1.484 7.687 7.687 0 0 1 .417 2.553 7.8 7.8 0 0 1-.417 2.564 2.182 2.182 0 0 0 0 1.474 8.122 8.122 0 0 1 0 5.138 2.214 2.214 0 0 0 0 1.485 7.7 7.7 0 0 1 .417 2.563 7.8 7.8 0 0 1-.417 2.564 2.214 2.214 0 0 0 0 1.485 8.088 8.088 0 0 1 0 5.127 2.214 2.214 0 0 0 0 1.485 7.678 7.678 0 0 1 .417 2.553 7.793 7.793 0 0 1-.417 2.563 2.214 2.214 0 0 0 0 1.485 8.116 8.116 0 0 1 .1 4.828c-.608.107-1.239.192-1.88.246V408.04c.535.043 1.069.107 1.581.193a7.252 7.252 0 0 1 .62 3.076 7.8 7.8 0 0 1-.417 2.564 2.211 2.211 0 0 0 0 1.484 7.706 7.706 0 0 1 .417 2.564 7.8 7.8 0 0 1-.421 2.564Z" data-name="Path 866" opacity=".6" style="mix-blend-mode:multiply;isolation:isolate"/><path fill="#8cc140" d="M575.233 417.921a7.694 7.694 0 0 1-.411 2.56 2.175 2.175 0 0 0 0 1.484 8.147 8.147 0 0 1 0 5.116 2.172 2.172 0 0 0 0 1.483 8.2 8.2 0 0 1 0 5.129 2.177 2.177 0 0 0 0 1.487 8.2 8.2 0 0 1 0 5.126 2.175 2.175 0 0 0 0 1.484 8.194 8.194 0 0 1 0 5.128 2.177 2.177 0 0 0 0 1.485 8.166 8.166 0 0 1 0 5.116 2.174 2.174 0 0 0 0 1.486 7.7 7.7 0 0 1 .411 2.567c0 2.424-.983 4.4-2.2 4.4V406.9c1.217 0 2.2 1.977 2.2 4.412a7.71 7.71 0 0 1-.41 2.559 2.174 2.174 0 0 0 0 1.486 7.7 7.7 0 0 1 .41 2.564Z" data-name="Path 867"/></g><path fill="#f9c953" d="M549.675 420.3v27.516c0 4.754 4.027 9.667 9.752 11.5v-50.507c-5.727 1.859-9.752 6.741-9.752 11.491Z" data-name="Path 868"/><path fill="#f9c953" d="M546.791 420.3v27.516a12.533 12.533 0 0 0 10.756 12.017c.609.107 1.24.192 1.88.246V408.04a18.63 18.63 0 0 0-1.58.193c-6.947 1.121-11.056 6.686-11.056 12.067Z" data-name="Path 869"/><path fill="#f9c953" d="M549.675 420.3v27.516c0 4.754 4.027 9.667 9.752 11.5v-50.507c-5.727 1.859-9.752 6.741-9.752 11.491Z" data-name="Path 870" opacity=".2" style="mix-blend-mode:screen;isolation:isolate"/><path fill="#bc4835" d="M557.644 420.485a2.21 2.21 0 0 1 0 1.484 7.689 7.689 0 0 0-.417 2.553 7.8 7.8 0 0 0 .417 2.564 2.181 2.181 0 0 1 0 1.474 8.122 8.122 0 0 0 0 5.138 2.213 2.213 0 0 1 0 1.485 7.7 7.7 0 0 0-.417 2.563 7.8 7.8 0 0 0 .417 2.564 2.213 2.213 0 0 1 0 1.485 8.088 8.088 0 0 0 0 5.127 2.213 2.213 0 0 1 0 1.485 7.68 7.68 0 0 0-.417 2.553 7.8 7.8 0 0 0 .417 2.563 2.213 2.213 0 0 1 0 1.485 7.7 7.7 0 0 0-.417 2.564 7.806 7.806 0 0 0 .32 2.264c.609.107 1.24.192 1.88.246V408.04a18.63 18.63 0 0 0-1.58.193 7.252 7.252 0 0 0-.62 3.076 7.8 7.8 0 0 0 .417 2.564 2.21 2.21 0 0 1 0 1.484 7.708 7.708 0 0 0-.417 2.564 7.8 7.8 0 0 0 .417 2.564Z" data-name="Path 871" opacity=".3" style="mix-blend-mode:multiply;isolation:isolate"/><path fill="#bc4835" d="M557.943 417.921a7.718 7.718 0 0 0 .41 2.56 2.175 2.175 0 0 1 0 1.484 8.147 8.147 0 0 0 0 5.116 2.178 2.178 0 0 1 0 1.483 8.2 8.2 0 0 0 0 5.129 2.183 2.183 0 0 1 0 1.487 8.206 8.206 0 0 0 0 5.126 2.175 2.175 0 0 1 0 1.484 8.2 8.2 0 0 0 0 5.128 2.177 2.177 0 0 1 0 1.485 8.166 8.166 0 0 0 0 5.116 2.181 2.181 0 0 1 0 1.486 7.7 7.7 0 0 0-.411 2.567c0 2.424.982 4.4 2.2 4.4V406.9c-1.218 0-2.2 1.977-2.2 4.412a7.683 7.683 0 0 0 .41 2.559 2.181 2.181 0 0 1 0 1.486 7.7 7.7 0 0 0-.409 2.564Z" data-name="Path 872"/><path fill="#bc5e39" d="M573.033 404.988v57.918a6.445 6.445 0 0 1-12.89 0v-57.918a6.445 6.445 0 0 1 12.89 0Z" data-name="Path 873"/><path fill="#bc5e39" d="M568.094 468.623a7.26 7.26 0 0 0 1.489-4.409V403.68a7.26 7.26 0 0 0-1.489-4.409 5.939 5.939 0 0 1 4.405 5.712v57.927a5.94 5.94 0 0 1-4.405 5.713Z" data-name="Path 874" opacity=".3" style="mix-blend-mode:multiply;isolation:isolate"/><ellipse cx="2.27" cy="1.469" fill="#bc5e39" data-name="Ellipse 197" opacity=".3" rx="2.27" ry="1.469" style="mix-blend-mode:screen;isolation:isolate" transform="rotate(-50.004 712.369 -400.064)"/><path fill="#bc5e39" d="M565.52 463.017a1.068 1.068 0 0 1-1.068-1.068c0-2.037 1.44-3.033 2.6-3.833 1.071-.74 1.676-1.2 1.676-2.075s-.6-1.337-1.676-2.077c-1.156-.8-2.6-1.795-2.6-3.832s1.44-3.032 2.6-3.831c1.07-.74 1.675-1.2 1.675-2.074s-.6-1.332-1.675-2.07c-1.157-.8-2.6-1.794-2.6-3.829s1.44-3.031 2.6-3.83c1.07-.739 1.675-1.2 1.675-2.073s-.6-1.333-1.675-2.072c-1.157-.8-2.6-1.793-2.6-3.829s1.44-3.03 2.6-3.829c1.07-.739 1.675-1.2 1.675-2.072s-.6-1.333-1.675-2.072c-1.157-.8-2.6-1.793-2.6-3.829s1.44-3.029 2.6-3.828c1.07-.738 1.675-1.2 1.675-2.07a1.069 1.069 0 1 1 2.137 0c0 2.035-1.441 3.029-2.6 3.828-1.07.738-1.675 1.2-1.675 2.07s.6 1.333 1.675 2.072c1.157.8 2.6 1.793 2.6 3.829s-1.441 3.03-2.6 3.829c-1.07.739-1.675 1.2-1.675 2.072s.6 1.333 1.675 2.072c1.157.8 2.6 1.793 2.6 3.829s-1.441 3.031-2.6 3.83c-1.07.74-1.675 1.2-1.675 2.073s.6 1.332 1.675 2.071c1.157.8 2.6 1.793 2.6 3.828s-1.441 3.032-2.6 3.832c-1.07.739-1.675 1.2-1.675 2.073s.6 1.336 1.676 2.075c1.156.8 2.6 1.8 2.6 3.834s-1.441 3.033-2.6 3.833c-1.071.739-1.676 1.2-1.676 2.075a1.068 1.068 0 0 1-1.069 1.068Z" data-name="Path 875" opacity=".4" style="mix-blend-mode:multiply;isolation:isolate"/><path fill="#f9e446" d="M564.452 463.017a1.069 1.069 0 0 1-1.069-1.068c0-2.037 1.44-3.033 2.6-3.833 1.07-.74 1.676-1.2 1.676-2.075s-.606-1.337-1.676-2.077c-1.157-.8-2.6-1.795-2.6-3.832s1.44-3.032 2.6-3.831c1.069-.74 1.675-1.2 1.675-2.074s-.6-1.332-1.675-2.07c-1.157-.8-2.6-1.794-2.6-3.829s1.44-3.031 2.6-3.83c1.069-.739 1.675-1.2 1.675-2.073s-.606-1.333-1.675-2.072c-1.158-.8-2.6-1.793-2.6-3.829s1.44-3.03 2.6-3.829c1.069-.739 1.675-1.2 1.675-2.072s-.606-1.333-1.675-2.072c-1.158-.8-2.6-1.793-2.6-3.829s1.44-3.029 2.6-3.828c1.07-.738 1.675-1.2 1.675-2.07a1.068 1.068 0 1 1 2.136 0c0 2.035-1.44 3.029-2.6 3.828-1.069.738-1.674 1.2-1.674 2.07s.6 1.333 1.675 2.072c1.157.8 2.6 1.793 2.6 3.829s-1.44 3.03-2.6 3.829c-1.07.739-1.675 1.2-1.675 2.072s.6 1.333 1.675 2.072c1.157.8 2.6 1.793 2.6 3.829s-1.44 3.031-2.6 3.83c-1.07.74-1.675 1.2-1.675 2.073s.6 1.332 1.675 2.071c1.157.8 2.6 1.793 2.6 3.828s-1.44 3.032-2.6 3.832c-1.07.739-1.675 1.2-1.675 2.073s.6 1.336 1.675 2.075c1.157.8 2.6 1.8 2.6 3.834s-1.44 3.033-2.6 3.833c-1.07.739-1.675 1.2-1.675 2.075a1.068 1.068 0 0 1-1.068 1.068Z" data-name="Path 876"/></g></g></svg>