<svg xmlns="http://www.w3.org/2000/svg" width="72.717" height="72.717" viewBox="-20.69 0 72.717 72.717"><g data-name="Group 1141" transform="translate(-85.495 -267.52)"><path fill="#534741" d="M0 0h5.292v20.684a2.646 2.646 0 0 1-2.646 2.646A2.646 2.646 0 0 1 0 20.684V0Z" data-name="Rectangle 196" opacity=".1" style="mix-blend-mode:multiply;isolation:isolate" transform="translate(98.522 316.906)"/><path fill="#e5af6e" d="M98.522 313.906h5.292v20.684a2.646 2.646 0 0 1-2.646 2.646 2.646 2.646 0 0 1-2.646-2.646v-20.684Z" data-name="Rectangle 197"/><path fill="#534741" d="M15.67 0h.005a15.67 15.67 0 0 1 15.67 15.67v34.09a3 3 0 0 1-3 3H3a3 3 0 0 1-3-3V15.67A15.67 15.67 0 0 1 15.67 0Z" data-name="Rectangle 198" opacity=".1" style="mix-blend-mode:multiply;isolation:isolate" transform="translate(85.495 273.52)"/><path fill="#99c64a" d="M101.165 267.52h.005a15.67 15.67 0 0 1 15.67 15.67v34.09a3 3 0 0 1-3 3H88.495a3 3 0 0 1-3-3v-34.09a15.67 15.67 0 0 1 15.67-15.67Z" data-name="Rectangle 199"/><path fill="#534741" d="M113.84 317.279H88.5a3 3 0 0 1-3-3v2a3 3 0 0 0 3 3h25.34a3 3 0 0 0 3-3v-2a3 3 0 0 1-3 3Z" data-name="Path 791" opacity=".1" style="mix-blend-mode:multiply;isolation:isolate"/><path fill="#f9ccb8" d="M101.17 267.9a14.974 14.974 0 0 0-14.974 14.975v1.486a14.974 14.974 0 0 1 14.974-14.974 14.975 14.975 0 0 1 14.975 14.974v-1.486A14.975 14.975 0 0 0 101.17 267.9Z" data-name="Path 792" opacity=".2" style="mix-blend-mode:screen;isolation:isolate"/><rect width="4.012" height="32.15" fill="#534741" data-name="Rectangle 200" opacity=".1" rx="2.006" style="mix-blend-mode:multiply;isolation:isolate" transform="translate(92.986 281.93)"/><rect width="4.012" height="32.15" fill="#534741" data-name="Rectangle 201" opacity=".1" rx="2.006" style="mix-blend-mode:multiply;isolation:isolate" transform="rotate(180 54.674 157.04)"/></g></svg>