<svg xmlns="http://www.w3.org/2000/svg" width="71.076" height="71.076" viewBox="0 -2.2 71.076 71.076"><g data-name="Group 1121" transform="translate(-66.62 -130.045)"><path fill="#534741" d="m67.013 150.691 33.539 45.221a2 2 0 0 0 3.213 0l33.535-45.221a2.011 2.011 0 0 0-.488-2.853 61.041 61.041 0 0 0-69.315 0 2.01 2.01 0 0 0-.484 2.853Z" data-name="Path 761" opacity=".1" style="mix-blend-mode:multiply;isolation:isolate"/><path fill="#e5af6e" d="m67.013 143.691 33.539 45.221a2 2 0 0 0 3.213 0l33.535-45.221a2.011 2.011 0 0 0-.488-2.853 61.041 61.041 0 0 0-69.315 0 2.01 2.01 0 0 0-.484 2.853Z" data-name="Path 762"/><path fill="#bc8f48" d="m68.02 145.05 1.114 1.5a61.02 61.02 0 0 1 66.049 0l1.113-1.5a61 61 0 0 0-68.276 0Z" data-name="Path 763" opacity=".5"/><path fill="#ffe8c2" d="m70.763 148.748 29.789 40.164a2 2 0 0 0 3.213 0l29.788-40.164a52.7 52.7 0 0 0-62.79 0Z" data-name="Path 764"/><path fill="none" stroke="#d16854" stroke-linecap="round" stroke-miterlimit="10" stroke-width="2" d="M80.622 145c4.928 0 4.928 8 9.856 8s4.927-8 9.853-8 4.93 8 9.86 8 11.134-10.22 13.409-5.846c2.018 3.88-9.279.332-13.153 2.361s-.161 9.116-4.034 11.144-7.588-5.056-11.464-3.026-.463 5.232-2.241 9.229c-1.208 2.717-.682 2.375 2.291 2.375s2.976-8 5.951-8 2.977 8 5.955 8 7.4-8.772 9.171-6.378c1.469 1.986-7.876 1.757-9.44 3.669s4.628 6.977 3.064 8.89-7.759-3.15-9.326-1.234 4.626 6.98 3.059 8.9" data-name="Path 765"/><circle cx="2.151" cy="2.151" r="2.151" fill="#99c64a" data-name="Ellipse 74" transform="translate(91.14 160.898)"/><circle cx="2.151" cy="2.151" r="2.151" fill="#99c64a" data-name="Ellipse 75" transform="translate(108.875 160.898)"/><path fill="#534741" d="M103.765 186.912a2 2 0 0 1-3.213 0l-28.819-38.856c-.324.229-.651.455-.97.692l29.789 40.164a2 2 0 0 0 3.213 0l29.788-40.164c-.319-.237-.646-.463-.97-.692Z" data-name="Path 766" opacity=".1" style="mix-blend-mode:multiply;isolation:isolate"/><path fill="#534741" d="M102.158 140.375a52.439 52.439 0 0 1 30.425 9.681l.97-1.308a52.7 52.7 0 0 0-62.79 0l.97 1.308a52.441 52.441 0 0 1 30.425-9.681Z" data-name="Path 767" opacity=".1" style="mix-blend-mode:multiply;isolation:isolate"/><circle cx="6.096" cy="6.096" r="6.096" fill="#534741" data-name="Ellipse 76" opacity=".1" style="mix-blend-mode:multiply;isolation:isolate" transform="translate(84.533 147.286)"/><circle cx="6.096" cy="6.096" r="6.096" fill="#d16854" data-name="Ellipse 77" transform="translate(84.533 146.286)"/><circle cx="5.398" cy="5.398" r="5.398" fill="#b5492c" data-name="Ellipse 78" transform="translate(85.23 146.983)"/><circle cx="1.86" cy="1.86" r="1.86" fill="#d16854" data-name="Ellipse 79" transform="translate(88.769 150.522)"/><circle cx="6.096" cy="6.096" r="6.096" fill="#534741" data-name="Ellipse 80" opacity=".1" style="mix-blend-mode:multiply;isolation:isolate" transform="translate(96.062 164.292)"/><circle cx="6.096" cy="6.096" r="6.096" fill="#d16854" data-name="Ellipse 81" transform="translate(96.062 163.292)"/><circle cx="5.398" cy="5.398" r="5.398" fill="#b5492c" data-name="Ellipse 82" transform="translate(96.76 163.989)"/><circle cx="1.86" cy="1.86" r="1.86" fill="#d16854" data-name="Ellipse 83" transform="translate(100.298 167.528)"/><circle cx="6.096" cy="6.096" r="6.096" fill="#534741" data-name="Ellipse 84" opacity=".1" style="mix-blend-mode:multiply;isolation:isolate" transform="translate(107.592 147.286)"/><circle cx="6.096" cy="6.096" r="6.096" fill="#d16854" data-name="Ellipse 85" transform="translate(107.592 146.286)"/><circle cx="5.398" cy="5.398" r="5.398" fill="#b5492c" data-name="Ellipse 86" transform="translate(108.289 146.983)"/><circle cx="1.86" cy="1.86" r="1.86" fill="#d16854" data-name="Ellipse 87" transform="translate(111.828 150.522)"/><circle cx="1.908" cy="1.908" r="1.908" fill="#bc8f48" data-name="Ellipse 88" transform="translate(77.44 147.286)"/><circle cx="1.908" cy="1.908" r="1.908" fill="#bc8f48" data-name="Ellipse 89" transform="translate(123.06 147.286)"/><circle cx="1.908" cy="1.908" r="1.908" fill="#bc8f48" data-name="Ellipse 90" transform="translate(100.25 156.569)"/><circle cx="1.908" cy="1.908" r="1.908" fill="#bc8f48" data-name="Ellipse 91" transform="translate(100.25 143.286)"/><circle cx="1.244" cy="1.244" r="1.244" fill="#876636" data-name="Ellipse 92" transform="translate(92.047 161.804)"/><circle cx="1.244" cy="1.244" r="1.244" fill="#876636" data-name="Ellipse 93" transform="translate(109.782 161.804)"/><circle cx="1.638" cy="1.638" r="1.638" fill="#99c64a" data-name="Ellipse 94" transform="translate(100.521 150.556)"/><circle cx="1.638" cy="1.638" r="1.638" fill="#99c64a" data-name="Ellipse 95" transform="translate(100.521 178.718)"/></g></svg>