<svg xmlns="http://www.w3.org/2000/svg" width="76.452" height="76.452" viewBox="0 -10.09 76.452 76.452"><g data-name="Group 1291"><path fill="#534741" d="M582.495 325.982c13.014 0 24.319-13.258 24.319-26.271 0-12.877-8.513-23.343-21.39-23.343a23.289 23.289 0 0 0-16.834 7.188 23.641 23.641 0 0 0-.983-.969l-.007.007a23.248 23.248 0 0 0-15.848-6.226c-12.877 0-21.39 10.466-21.39 23.343 0 13.013 11.3 26.271 24.319 26.271Zm-13.9.791 13.9-6.649a12.189 12.189 0 0 1-9.655-5.008c-.307-.383-.589-.8-.869-1.212.129-.275.259-.55.38-.828a33.774 33.774 0 0 0 2.753-13.365 23.245 23.245 0 0 0-2.955-11.343c.076-.089.144-.187.222-.275a17.419 17.419 0 0 1 13.053-5.867c9.645 0 15.532 7.839 15.532 17.485 0 9.723-8.728 20.413-18.461 20.413Zm-27.814 0c-9.734 0-18.462-10.69-18.462-20.413 0-9.646 5.887-17.485 15.533-17.485a17.4 17.4 0 0 1 12.718 5.527c.192.2.386.4.568.612a23.139 23.139 0 0 0-2.957 11.346 33.53 33.53 0 0 0 3.134 14.192c-.282.418-.573.827-.879 1.213a12.175 12.175 0 0 1 4.245-1.641Zm14.214-16.01c-.082.523-.194 1.04-.306 1.556a28.181 28.181 0 0 1-.65-5.959 17.292 17.292 0 0 1 .652-4.689c.06.211.119.423.168.637a16.819 16.819 0 0 1 .488 4.052 27.63 27.63 0 0 1 13.553-2.246Zm-.3 15.1v.005c.213.273.454.527.692.781H567.9q.353-7.026.693-7.432Z" data-name="Path 932" opacity=".1" style="mix-blend-mode:multiply;isolation:isolate" transform="translate(-530.362 -270.51)"/><g data-name="Group 1290"><g data-name="Group 1287"><path fill="#e5b376" d="M51.205 49.497s-.107.02-.312.049l-3.661.43a92.743 92.743 0 0 1-9 .429 75.778 75.778 0 0 1-8.884-.478h-.01l-.479-.068a33.513 33.513 0 0 1-1.874-.284l-.293-.048c-.058-.01-.1-.02-.117-.02a.031.031 0 0 0-.02-.01V43.64h23.109Z" data-name="Path 933"/><path fill="#e5b376" d="m581.255 320.056-3.661.43a23.162 23.162 0 0 1-9-5.057 21.817 21.817 0 0 1-8.884 5.008h-.01l-.479-.068-1.874-.284-.293-.048c-.058-.01-.1-.02-.117-.02a.031.031 0 0 0-.02-.01v-4.842a10.76 10.76 0 0 0 3.613-1.015h16.128a10.748 10.748 0 0 0 3.612 1.015Z" data-name="Path 934" opacity=".5" style="mix-blend-mode:multiply;isolation:isolate" transform="translate(-530.362 -270.51)"/><path fill="#e5b376" d="M41.755 11.94v-.01a23.362 23.362 0 0 0-3.524-4.735l-.088-.087A23.269 23.269 0 0 0 21.39 0C8.513 0 0 10.466 0 23.343c0 13.014 11.3 26.271 24.319 26.271a17.627 17.627 0 0 0 12.984-5.72 20.094 20.094 0 0 0 1.445-1.68c.342-.429.664-.878.976-1.347.41-.615.811-1.269 1.182-1.933a27.77 27.77 0 0 0 1.083-2.226 33.77 33.77 0 0 0 2.753-13.365 23.246 23.246 0 0 0-2.987-11.403Zm-7.781 26.809a12.175 12.175 0 0 1-9.655 5.008c-9.734 0-18.462-10.69-18.462-20.414 0-9.646 5.887-17.485 15.533-17.485a17.423 17.423 0 0 1 13.053 5.867c.1.117.205.235.3.352a17.323 17.323 0 0 1 3.173 5.574 15.709 15.709 0 0 1 .479 1.64 16.819 16.819 0 0 1 .488 4.052 27.63 27.63 0 0 1-.352 4.4 27.068 27.068 0 0 1-.947 4 22.642 22.642 0 0 1-2.265 5.067 18.4 18.4 0 0 1-1.345 1.939Z" data-name="Path 935"/><path fill="#e5b376" d="M37.245 6.219c-.088.078-.166.166-.244.244a22.491 22.491 0 0 0-3.339 4.442 17.3 17.3 0 0 1 3.817 5.565 17.3 17.3 0 0 1 3.31-5.477c.078-.088.156-.166.244-.254a23.1 23.1 0 0 0-3.788-4.52Z" data-name="Path 936"/><path fill="#e5b376" d="M567.607 276.729c-.088.078-.166.166-.244.244a22.491 22.491 0 0 0-3.339 4.442 17.3 17.3 0 0 1 3.817 5.565 17.3 17.3 0 0 1 3.31-5.477c.078-.088.156-.166.244-.254a23.1 23.1 0 0 0-3.788-4.52Z" data-name="Path 937" opacity=".5" style="mix-blend-mode:multiply;isolation:isolate" transform="translate(-530.362 -270.51)"/><g fill="#efd8bd" data-name="Group 1198" transform="translate(-530.362 -270.51)"><ellipse cx=".483" cy=".651" data-name="Ellipse 252" opacity=".5" rx=".483" ry=".651" style="mix-blend-mode:multiply;isolation:isolate" transform="rotate(-84.094 459.75 -158.05)"/><g data-name="Group 1197"><ellipse cx=".483" cy=".651" data-name="Ellipse 253" rx=".483" ry=".651" transform="rotate(-84.094 459.907 -157.876)"/><ellipse cx=".211" cy=".285" data-name="Ellipse 254" opacity=".7" rx=".211" ry=".285" style="mix-blend-mode:screen;isolation:isolate" transform="rotate(-73.232 497.297 -225.528)"/></g></g><path fill="#e5b376" d="M55.062 0a23.29 23.29 0 0 0-16.841 7.195 23.385 23.385 0 0 0-6.5 16.148 33.1 33.1 0 0 0 3.837 15.591c.371.664.761 1.318 1.171 1.933a21.42 21.42 0 0 0 2.421 3.027 17.631 17.631 0 0 0 12.985 5.72c13.014 0 24.319-13.257 24.319-26.271C76.452 10.466 67.938 0 55.062 0Zm-2.929 43.757a12.189 12.189 0 0 1-9.655-5.008 21.444 21.444 0 0 1-3.613-7 27.916 27.916 0 0 1-1.288-8.406 17.46 17.46 0 0 1 4.432-11.618 17.423 17.423 0 0 1 13.053-5.867c9.645 0 15.532 7.839 15.532 17.485 0 9.724-8.728 20.414-18.461 20.414Z" data-name="Path 938"/><path fill="#e5b376" d="M585.424 272.463a21.228 21.228 0 0 0-15.437 6.6 20.59 20.59 0 0 0-1.394 1.62 20.824 20.824 0 0 0-1.4-1.62 21.224 21.224 0 0 0-15.436-6.6c-11.264 0-19.438 9-19.438 21.39 0 12.5 10.869 24.319 22.366 24.319a15.684 15.684 0 0 0 11.569-5.113 19.371 19.371 0 0 0 2.213-2.765c.04-.06.081-.129.121-.191.04.062.081.131.121.191a19.307 19.307 0 0 0 2.213 2.765 15.682 15.682 0 0 0 11.568 5.113c11.5 0 22.367-11.819 22.367-24.319.005-12.394-8.17-21.39-19.433-21.39Zm-19.553 38.016a14.05 14.05 0 0 1-11.181 5.74c-11.308 0-20.414-12.235-20.414-22.366 0-11.263 7.354-19.438 17.486-19.438a19.438 19.438 0 0 1 14.512 6.523c.4.453.779.924 1.136 1.406-.222.348-.438.7-.641 1.064a21.319 21.319 0 0 0-2.735 10.445 31.108 31.108 0 0 0 3.416 14.3 20.656 20.656 0 0 1-1.579 2.326Zm2.722-26.337a18.914 18.914 0 0 1 1.545 3.389 19.112 19.112 0 0 1 1.061 6.322 30 30 0 0 1-1.381 9 25.693 25.693 0 0 1-1.225 3.12 25.524 25.524 0 0 1-1.225-3.12 30 30 0 0 1-1.382-9 19.138 19.138 0 0 1 1.061-6.322 18.918 18.918 0 0 1 1.546-3.389Zm13.9 32.077a14.049 14.049 0 0 1-11.18-5.74 20.519 20.519 0 0 1-1.579-2.33 31.108 31.108 0 0 0 3.416-14.3 21.33 21.33 0 0 0-2.735-10.445c-.2-.363-.419-.716-.641-1.064.356-.482.731-.953 1.135-1.406a19.44 19.44 0 0 1 14.513-6.523c10.132 0 17.485 8.175 17.485 19.438.002 10.135-9.107 22.37-20.412 22.37Z" data-name="Path 939" opacity=".2" style="mix-blend-mode:screen;isolation:isolate" transform="translate(-530.362 -270.51)"/><path fill="#e5b376" d="M571.961 308.058a24.887 24.887 0 0 1-1.875 3.319 22 22 0 0 1-1.493 1.992 13.155 13.155 0 0 0 .917 1.035 21.621 21.621 0 0 0 1.553-2.051 25.8 25.8 0 0 0 1.777-3.094q-.455-.572-.879-1.201Z" data-name="Path 940" opacity=".5" style="mix-blend-mode:multiply;isolation:isolate" transform="translate(-530.362 -270.51)"/><g fill="#efd8bd" data-name="Group 1200" transform="translate(-530.362 -270.51)"><ellipse cx=".651" cy=".483" data-name="Ellipse 255" opacity=".5" rx=".651" ry=".483" style="mix-blend-mode:multiply;isolation:isolate" transform="translate(551.181 272.984)"/><g data-name="Group 1199"><ellipse cx=".651" cy=".483" data-name="Ellipse 256" rx=".651" ry=".483" transform="translate(551.181 272.67)"/><ellipse cx=".211" cy=".285" data-name="Ellipse 257" opacity=".7" rx=".211" ry=".285" style="mix-blend-mode:screen;isolation:isolate" transform="rotate(-79.16 441.109 -197.082)"/></g></g><g fill="#efd8bd" data-name="Group 1202" transform="translate(-530.362 -270.51)"><ellipse cx=".483" cy=".651" data-name="Ellipse 258" opacity=".5" rx=".483" ry=".651" style="mix-blend-mode:multiply;isolation:isolate" transform="rotate(-77.7 449.133 -206.633)"/><g data-name="Group 1201"><ellipse cx=".483" cy=".651" data-name="Ellipse 259" rx=".483" ry=".651" transform="rotate(-77.7 448.975 -206.828)"/><ellipse cx=".211" cy=".285" data-name="Ellipse 260" opacity=".7" rx=".211" ry=".285" style="mix-blend-mode:screen;isolation:isolate" transform="rotate(-66.852 486.726 -283.473)"/></g></g><g fill="#efd8bd" data-name="Group 1204" transform="translate(-530.362 -270.51)"><ellipse cx=".651" cy=".483" data-name="Ellipse 261" opacity=".5" rx=".651" ry=".483" style="mix-blend-mode:multiply;isolation:isolate" transform="rotate(-52.092 557.039 -406.361)"/><g data-name="Group 1203"><ellipse cx=".651" cy=".483" data-name="Ellipse 262" rx=".651" ry=".483" transform="rotate(-52.092 556.717 -406.204)"/><ellipse cx=".285" cy=".211" data-name="Ellipse 263" opacity=".7" rx=".285" ry=".211" style="mix-blend-mode:screen;isolation:isolate" transform="rotate(-41.229 642.847 -570.823)"/></g></g><g fill="#efd8bd" data-name="Group 1206" transform="translate(-530.362 -270.51)"><ellipse cx=".483" cy=".651" data-name="Ellipse 264" opacity=".5" rx=".483" ry=".651" style="mix-blend-mode:multiply;isolation:isolate" transform="rotate(-51.665 568.501 -441.8)"/><g data-name="Group 1205"><ellipse cx=".483" cy=".651" data-name="Ellipse 265" rx=".483" ry=".651" transform="rotate(-51.665 568.344 -442.125)"/><ellipse cx=".211" cy=".285" data-name="Ellipse 266" opacity=".7" rx=".211" ry=".285" style="mix-blend-mode:screen;isolation:isolate" transform="rotate(-40.802 655.22 -618.438)"/></g></g><g fill="#efd8bd" data-name="Group 1208" transform="translate(-530.362 -270.51)"><ellipse cx=".483" cy=".651" data-name="Ellipse 267" opacity=".5" rx=".483" ry=".651" style="mix-blend-mode:multiply;isolation:isolate" transform="rotate(-13.425 1508.722 -2284.203)"/><g data-name="Group 1207"><ellipse cx=".483" cy=".651" data-name="Ellipse 268" rx=".483" ry=".651" transform="rotate(-13.425 1508.565 -2285.54)"/><ellipse cx=".211" cy=".285" data-name="Ellipse 269" opacity=".7" rx=".211" ry=".285" style="mix-blend-mode:screen;isolation:isolate" transform="rotate(-2.562 6730.332 -12656.288)"/></g></g><g fill="#efd8bd" data-name="Group 1210" transform="translate(-530.362 -270.51)"><ellipse cx=".651" cy=".483" data-name="Ellipse 270" opacity=".5" rx=".651" ry=".483" style="mix-blend-mode:multiply;isolation:isolate" transform="rotate(-82.49 452.922 -178.565)"/><g data-name="Group 1209"><ellipse cx=".651" cy=".483" data-name="Ellipse 271" rx=".651" ry=".483" transform="rotate(-82.49 453.101 -178.723)"/><ellipse cx=".285" cy=".211" data-name="Ellipse 272" opacity=".7" rx=".285" ry=".211" style="mix-blend-mode:screen;isolation:isolate" transform="rotate(-71.627 489.25 -249.148)"/></g></g><g fill="#efd8bd" data-name="Group 1212" transform="translate(-530.362 -270.51)"><ellipse cx=".651" cy=".483" data-name="Ellipse 273" opacity=".5" rx=".651" ry=".483" style="mix-blend-mode:multiply;isolation:isolate" transform="rotate(-74.682 483.058 -224.431)"/><g data-name="Group 1211"><ellipse cx=".651" cy=".483" data-name="Ellipse 274" rx=".651" ry=".483" transform="rotate(-74.682 483.264 -224.589)"/><ellipse cx=".285" cy=".211" data-name="Ellipse 275" opacity=".7" rx=".285" ry=".211" style="mix-blend-mode:screen;isolation:isolate" transform="rotate(-63.82 527.805 -309.443)"/></g></g><g fill="#efd8bd" data-name="Group 1214" transform="translate(-530.362 -270.51)"><ellipse cx=".651" cy=".483" data-name="Ellipse 276" opacity=".5" rx=".651" ry=".483" style="mix-blend-mode:multiply;isolation:isolate" transform="rotate(-68.83 508.918 -262.26)"/><g data-name="Group 1213"><ellipse cx=".651" cy=".483" data-name="Ellipse 277" rx=".651" ry=".483" transform="rotate(-68.83 509.147 -262.417)"/><ellipse cx=".285" cy=".211" data-name="Ellipse 278" opacity=".7" rx=".285" ry=".211" style="mix-blend-mode:screen;isolation:isolate" transform="rotate(-57.946 562.207 -361.343)"/></g></g><g fill="#efd8bd" data-name="Group 1216" transform="translate(-530.362 -270.51)"><ellipse cx=".483" cy=".651" data-name="Ellipse 279" opacity=".5" rx=".483" ry=".651" style="mix-blend-mode:multiply;isolation:isolate" transform="rotate(-72.85 464.638 -241.785)"/><g data-name="Group 1215"><ellipse cx=".483" cy=".651" data-name="Ellipse 280" rx=".483" ry=".651" transform="rotate(-72.85 464.48 -241.998)"/><ellipse cx=".211" cy=".285" data-name="Ellipse 281" opacity=".7" rx=".211" ry=".285" style="mix-blend-mode:screen;isolation:isolate" transform="rotate(-62.03 506.997 -328.961)"/></g></g><g fill="#efd8bd" data-name="Group 1218" transform="translate(-530.362 -270.51)"><ellipse cx=".651" cy=".483" data-name="Ellipse 282" opacity=".5" rx=".651" ry=".483" style="mix-blend-mode:multiply;isolation:isolate" transform="rotate(-32.47 764.046 -841.373)"/><g data-name="Group 1217"><ellipse cx=".651" cy=".483" data-name="Ellipse 283" rx=".651" ry=".483" transform="rotate(-32.47 763.507 -841.216)"/><ellipse cx=".285" cy=".211" data-name="Ellipse 284" opacity=".7" rx=".285" ry=".211" style="mix-blend-mode:screen;isolation:isolate" transform="rotate(-21.57 1014.73 -1360.391)"/></g></g><g fill="#efd8bd" data-name="Group 1220" transform="translate(-530.362 -270.51)"><ellipse cx=".651" cy=".483" data-name="Ellipse 285" opacity=".5" rx=".651" ry=".483" style="mix-blend-mode:multiply;isolation:isolate" transform="rotate(-14.318 1375.135 -2156.006)"/><g data-name="Group 1219"><ellipse cx=".651" cy=".483" data-name="Ellipse 286" rx=".651" ry=".483" transform="rotate(-14.318 1373.882 -2155.848)"/><ellipse cx=".285" cy=".211" data-name="Ellipse 287" opacity=".7" rx=".285" ry=".211" style="mix-blend-mode:screen;isolation:isolate" transform="rotate(-3.62 4859.856 -9445.188)"/></g></g><g fill="#efd8bd" data-name="Group 1222" transform="translate(-530.362 -270.51)"><ellipse cx=".483" cy=".651" data-name="Ellipse 288" opacity=".5" rx=".483" ry=".651" style="mix-blend-mode:multiply;isolation:isolate" transform="rotate(-86.059 440.05 -175.051)"/><g data-name="Group 1221"><ellipse cx=".483" cy=".651" data-name="Ellipse 289" rx=".483" ry=".651" transform="rotate(-86.059 439.893 -175.22)"/><ellipse cx=".211" cy=".285" data-name="Ellipse 290" opacity=".7" rx=".211" ry=".285" style="mix-blend-mode:screen;isolation:isolate" transform="rotate(-75.17 471.146 -242.349)"/></g></g><g fill="#efd8bd" data-name="Group 1224" transform="translate(-530.362 -270.51)"><ellipse cx=".651" cy=".483" data-name="Ellipse 291" opacity=".5" rx=".651" ry=".483" style="mix-blend-mode:multiply;isolation:isolate" transform="rotate(-58.193 542.059 -366.423)"/><g data-name="Group 1223"><ellipse cx=".651" cy=".483" data-name="Ellipse 292" rx=".651" ry=".483" transform="rotate(-58.193 541.777 -366.265)"/><ellipse cx=".285" cy=".211" data-name="Ellipse 293" opacity=".7" rx=".285" ry=".211" style="mix-blend-mode:screen;isolation:isolate" transform="rotate(-47.31 611.231 -504.82)"/></g></g><g fill="#efd8bd" data-name="Group 1226" transform="translate(-530.362 -270.51)"><ellipse cx=".651" cy=".483" data-name="Ellipse 294" opacity=".5" rx=".651" ry=".483" style="mix-blend-mode:multiply;isolation:isolate" transform="rotate(-47.726 600.969 -500.244)"/><g data-name="Group 1225"><ellipse cx=".651" cy=".483" data-name="Ellipse 295" rx=".651" ry=".483" transform="rotate(-47.726 600.614 -500.087)"/><ellipse cx=".285" cy=".211" data-name="Ellipse 296" opacity=".7" rx=".285" ry=".211" style="mix-blend-mode:screen;isolation:isolate" transform="rotate(-36.864 704.074 -710.61)"/></g></g><g fill="#efd8bd" data-name="Group 1228" transform="translate(-530.362 -270.51)"><ellipse cx=".651" cy=".483" data-name="Ellipse 297" opacity=".5" rx=".651" ry=".483" style="mix-blend-mode:multiply;isolation:isolate" transform="rotate(-71.186 484.926 -248.748)"/><g data-name="Group 1227"><ellipse cx=".651" cy=".483" data-name="Ellipse 298" rx=".651" ry=".483" transform="rotate(-71.186 484.707 -248.59)"/><ellipse cx=".285" cy=".211" data-name="Ellipse 299" opacity=".7" rx=".285" ry=".211" style="mix-blend-mode:screen;isolation:isolate" transform="rotate(-60.324 531.338 -340.306)"/></g></g><g fill="#efd8bd" data-name="Group 1230" transform="translate(-530.362 -270.51)"><ellipse cx=".483" cy=".651" data-name="Ellipse 300" opacity=".5" rx=".483" ry=".651" style="mix-blend-mode:multiply;isolation:isolate" transform="rotate(-8.88 2216.157 -3528.589)"/><g data-name="Group 1229"><ellipse cx=".483" cy=".651" data-name="Ellipse 301" rx=".483" ry=".651" transform="rotate(-8.88 2216.31 -3526.544)"/><ellipse cx=".285" cy=".211" data-name="Ellipse 302" opacity=".7" rx=".285" ry=".211" style="mix-blend-mode:screen;isolation:isolate" transform="rotate(-87.94 437.492 -144.872)"/></g></g><g fill="#efd8bd" data-name="Group 1232" transform="translate(-530.362 -270.51)"><ellipse cx=".483" cy=".651" data-name="Ellipse 303" opacity=".5" rx=".483" ry=".651" style="mix-blend-mode:multiply;isolation:isolate" transform="rotate(-23.94 999.007 -1180.624)"/><g data-name="Group 1231"><ellipse cx=".483" cy=".651" data-name="Ellipse 304" rx=".483" ry=".651" transform="rotate(-23.94 999.165 -1179.881)"/><ellipse cx=".211" cy=".285" data-name="Ellipse 305" opacity=".7" rx=".211" ry=".285" style="mix-blend-mode:screen;isolation:isolate" transform="rotate(-13.074 1610.115 -2313.891)"/></g></g><g fill="#efd8bd" data-name="Group 1234" transform="translate(-530.362 -270.51)"><ellipse cx=".483" cy=".651" data-name="Ellipse 306" opacity=".5" rx=".483" ry=".651" style="mix-blend-mode:multiply;isolation:isolate" transform="rotate(-79.75 456.616 -215.428)"/><g data-name="Group 1233"><ellipse cx=".483" cy=".651" data-name="Ellipse 307" rx=".483" ry=".651" transform="rotate(-79.75 456.458 -215.616)"/><ellipse cx=".211" cy=".285" data-name="Ellipse 308" opacity=".7" rx=".211" ry=".285" style="mix-blend-mode:screen;isolation:isolate" transform="rotate(-68.894 491.92 -292.851)"/></g></g><g fill="#efd8bd" data-name="Group 1236" transform="translate(-530.362 -270.51)"><ellipse cx=".483" cy=".651" data-name="Ellipse 309" opacity=".5" rx=".483" ry=".651" style="mix-blend-mode:multiply;isolation:isolate" transform="rotate(-67.434 502.886 -306.298)"/><g data-name="Group 1235"><ellipse cx=".483" cy=".651" data-name="Ellipse 310" rx=".483" ry=".651" transform="rotate(-67.434 502.729 -306.533)"/><ellipse cx=".211" cy=".285" data-name="Ellipse 311" opacity=".7" rx=".211" ry=".285" style="mix-blend-mode:screen;isolation:isolate" transform="rotate(-56.571 552.374 -413.97)"/></g></g><g fill="#efd8bd" data-name="Group 1238" transform="translate(-530.362 -270.51)"><ellipse cx=".483" cy=".651" data-name="Ellipse 312" opacity=".5" rx=".483" ry=".651" style="mix-blend-mode:multiply;isolation:isolate" transform="rotate(-43.978 643.334 -602.52)"/><g data-name="Group 1237"><ellipse cx=".483" cy=".651" data-name="Ellipse 313" rx=".483" ry=".651" transform="rotate(-43.978 643.176 -602.91)"/><ellipse cx=".211" cy=".285" data-name="Ellipse 314" opacity=".7" rx=".211" ry=".285" style="mix-blend-mode:screen;isolation:isolate" transform="rotate(-33.116 766.7 -869.763)"/></g></g><g fill="#efd8bd" data-name="Group 1240" transform="translate(-530.362 -270.51)"><ellipse cx=".483" cy=".651" data-name="Ellipse 315" opacity=".5" rx=".483" ry=".651" style="mix-blend-mode:multiply;isolation:isolate" transform="rotate(-34.634 753.42 -817.94)"/><g data-name="Group 1239"><ellipse cx=".483" cy=".651" data-name="Ellipse 316" rx=".483" ry=".651" transform="rotate(-34.634 753.262 -818.445)"/><ellipse cx=".211" cy=".285" data-name="Ellipse 317" opacity=".7" rx=".211" ry=".285" style="mix-blend-mode:screen;isolation:isolate" transform="rotate(-23.772 972.496 -1282.145)"/></g></g><g fill="#efd8bd" data-name="Group 1242" transform="translate(-530.362 -270.51)"><ellipse cx=".651" cy=".483" data-name="Ellipse 318" opacity=".5" rx=".651" ry=".483" style="mix-blend-mode:multiply;isolation:isolate" transform="rotate(-86.96 454.063 -171.369)"/><g data-name="Group 1241"><ellipse cx=".651" cy=".483" data-name="Ellipse 319" rx=".651" ry=".483" transform="rotate(-86.96 454.229 -171.526)"/><ellipse cx=".285" cy=".211" data-name="Ellipse 320" opacity=".7" rx=".285" ry=".211" style="mix-blend-mode:screen;isolation:isolate" transform="rotate(-76.11 486.854 -239.017)"/></g></g><g fill="#efd8bd" data-name="Group 1244" transform="translate(-530.362 -270.51)"><ellipse cx=".651" cy=".483" data-name="Ellipse 321" opacity=".5" rx=".651" ry=".483" style="mix-blend-mode:multiply;isolation:isolate" transform="rotate(-84.03 466.128 -187.591)"/><g data-name="Group 1243"><ellipse cx=".651" cy=".483" data-name="Ellipse 322" rx=".651" ry=".483" transform="rotate(-84.03 466.302 -187.748)"/><ellipse cx=".285" cy=".211" data-name="Ellipse 323" opacity=".7" rx=".285" ry=".211" style="mix-blend-mode:screen;isolation:isolate" transform="rotate(-73.156 501.718 -260.042)"/></g></g><g fill="#efd8bd" data-name="Group 1246" transform="translate(-530.362 -270.51)"><ellipse cx=".651" cy=".483" data-name="Ellipse 324" opacity=".5" rx=".651" ry=".483" style="mix-blend-mode:multiply;isolation:isolate" transform="rotate(-84.03 467.322 -183.09)"/><g data-name="Group 1245"><ellipse cx=".651" cy=".483" data-name="Ellipse 325" rx=".651" ry=".483" transform="rotate(-84.03 467.497 -183.246)"/><ellipse cx=".285" cy=".211" data-name="Ellipse 326" opacity=".7" rx=".285" ry=".211" style="mix-blend-mode:screen;isolation:isolate" transform="rotate(-73.156 503.534 -255.133)"/></g></g><g fill="#efd8bd" data-name="Group 1248" transform="translate(-530.362 -270.51)"><ellipse cx=".651" cy=".483" data-name="Ellipse 327" opacity=".5" rx=".651" ry=".483" style="mix-blend-mode:multiply;isolation:isolate" transform="rotate(-70.861 516.172 -269.355)"/><g data-name="Group 1247"><ellipse cx=".651" cy=".483" data-name="Ellipse 328" rx=".651" ry=".483" transform="rotate(-70.861 516.394 -269.512)"/><ellipse cx=".285" cy=".211" data-name="Ellipse 329" opacity=".7" rx=".285" ry=".211" style="mix-blend-mode:screen;isolation:isolate" transform="rotate(-59.999 566.626 -368.164)"/></g></g><g fill="#efd8bd" data-name="Group 1250" transform="translate(-530.362 -270.51)"><ellipse cx=".651" cy=".483" data-name="Ellipse 330" opacity=".5" rx=".651" ry=".483" style="mix-blend-mode:multiply;isolation:isolate" transform="rotate(-55.912 589.958 -404.668)"/><g data-name="Group 1249"><ellipse cx=".651" cy=".483" data-name="Ellipse 331" rx=".651" ry=".483" transform="rotate(-55.912 590.254 -404.826)"/><ellipse cx=".285" cy=".211" data-name="Ellipse 332" opacity=".7" rx=".285" ry=".211" style="mix-blend-mode:screen;isolation:isolate" transform="rotate(-45.09 672.32 -561.417)"/></g></g><g fill="#efd8bd" data-name="Group 1252" transform="translate(-530.362 -270.51)"><ellipse cx=".651" cy=".483" data-name="Ellipse 333" opacity=".5" rx=".651" ry=".483" style="mix-blend-mode:multiply;isolation:isolate" transform="rotate(-43.519 691.488 -585.286)"/><g data-name="Group 1251"><ellipse cx=".651" cy=".483" data-name="Ellipse 334" rx=".651" ry=".483" transform="rotate(-43.519 691.882 -585.444)"/><ellipse cx=".285" cy=".211" data-name="Ellipse 335" opacity=".7" rx=".285" ry=".211" style="mix-blend-mode:screen;isolation:isolate" transform="matrix(.842 -.54 .54 .842 593.72 315.655)"/></g></g><g fill="#efd8bd" data-name="Group 1254" transform="translate(-530.362 -270.51)"><ellipse cx=".651" cy=".483" data-name="Ellipse 336" opacity=".5" rx=".651" ry=".483" style="mix-blend-mode:multiply;isolation:isolate" transform="rotate(-13.675 1605.79 -2281.757)"/><g data-name="Group 1253"><ellipse cx=".651" cy=".483" data-name="Ellipse 337" rx=".651" ry=".483" transform="rotate(-13.675 1607.102 -2281.912)"/><ellipse cx=".285" cy=".211" data-name="Ellipse 338" opacity=".7" rx=".285" ry=".211" style="mix-blend-mode:screen;isolation:isolate" transform="rotate(-2.813 6719.275 -11761.918)"/></g></g><g fill="#efd8bd" data-name="Group 1256" transform="translate(-530.362 -270.51)"><ellipse cx=".483" cy=".651" data-name="Ellipse 339" opacity=".5" rx=".483" ry=".651" style="mix-blend-mode:multiply;isolation:isolate" transform="rotate(-85.913 459.946 -151.318)"/><g data-name="Group 1255"><ellipse cx=".483" cy=".651" data-name="Ellipse 340" rx=".483" ry=".651" transform="rotate(-85.913 460.103 -151.149)"/><ellipse cx=".211" cy=".285" data-name="Ellipse 341" opacity=".7" rx=".211" ry=".285" style="mix-blend-mode:screen;isolation:isolate" transform="rotate(-75.051 496.394 -217.223)"/></g></g><g fill="#efd8bd" data-name="Group 1258" transform="translate(-530.362 -270.51)"><ellipse cx=".483" cy=".651" data-name="Ellipse 342" opacity=".5" rx=".483" ry=".651" style="mix-blend-mode:multiply;isolation:isolate" transform="rotate(-58.949 563.89 -350.873)"/><g data-name="Group 1257"><ellipse cx=".483" cy=".651" data-name="Ellipse 343" rx=".483" ry=".651" transform="rotate(-58.949 564.047 -350.595)"/><ellipse cx=".211" cy=".285" data-name="Ellipse 344" opacity=".7" rx=".211" ry=".285" style="mix-blend-mode:screen;isolation:isolate" transform="rotate(-48.086 638.07 -486.236)"/></g></g><g fill="#efd8bd" data-name="Group 1260" transform="translate(-530.362 -270.51)"><ellipse cx=".483" cy=".651" data-name="Ellipse 345" opacity=".5" rx=".483" ry=".651" style="mix-blend-mode:multiply;isolation:isolate" transform="rotate(-79.852 472.548 -178.308)"/><g data-name="Group 1259"><ellipse cx=".483" cy=".651" data-name="Ellipse 346" rx=".483" ry=".651" transform="rotate(-79.852 472.706 -178.12)"/><ellipse cx=".211" cy=".285" data-name="Ellipse 347" opacity=".7" rx=".211" ry=".285" style="mix-blend-mode:screen;isolation:isolate" transform="rotate(-68.989 514.167 -251.84)"/></g></g><g fill="#efd8bd" data-name="Group 1262" transform="translate(-530.362 -270.51)"><ellipse cx=".483" cy=".651" data-name="Ellipse 348" opacity=".5" rx=".483" ry=".651" style="mix-blend-mode:multiply;isolation:isolate" transform="rotate(-18.651 1177.997 -1696.472)"/><g data-name="Group 1261"><ellipse cx=".483" cy=".651" data-name="Ellipse 349" rx=".483" ry=".651" transform="rotate(-18.651 1177.838 -1697.43)"/><ellipse cx=".211" cy=".285" data-name="Ellipse 350" opacity=".7" rx=".211" ry=".285" style="mix-blend-mode:screen;isolation:isolate" transform="rotate(-7.789 2417.056 -4302.073)"/></g></g><g fill="#efd8bd" data-name="Group 1264" transform="translate(-530.362 -270.51)"><ellipse cx=".651" cy=".483" data-name="Ellipse 351" opacity=".5" rx=".651" ry=".483" style="mix-blend-mode:multiply;isolation:isolate" transform="rotate(-22.18 976.808 -1244.926)"/><g data-name="Group 1263"><ellipse cx=".651" cy=".483" data-name="Ellipse 352" rx=".651" ry=".483" transform="rotate(-22.18 976.008 -1244.768)"/><ellipse cx=".285" cy=".211" data-name="Ellipse 353" opacity=".7" rx=".285" ry=".211" style="mix-blend-mode:screen;isolation:isolate" transform="rotate(-11.338 1665.063 -2598.421)"/></g></g><g fill="#efd8bd" data-name="Group 1266" transform="translate(-530.362 -270.51)"><ellipse cx=".651" cy=".483" data-name="Ellipse 354" opacity=".5" rx=".651" ry=".483" style="mix-blend-mode:multiply;isolation:isolate" transform="rotate(-81.746 433.883 -161.349)"/><g data-name="Group 1265"><ellipse cx=".651" cy=".483" data-name="Ellipse 355" rx=".651" ry=".483" transform="rotate(-81.746 433.701 -161.191)"/><ellipse cx=".285" cy=".211" data-name="Ellipse 356" opacity=".7" rx=".285" ry=".211" style="mix-blend-mode:screen;isolation:isolate" transform="rotate(-70.884 469.662 -227.807)"/></g></g><g fill="#efd8bd" data-name="Group 1268" transform="translate(-530.362 -270.51)"><ellipse cx=".483" cy=".651" data-name="Ellipse 357" opacity=".5" rx=".483" ry=".651" style="mix-blend-mode:multiply;isolation:isolate" transform="rotate(-17.06 1270.449 -1628.352)"/><g data-name="Group 1267"><ellipse cx=".483" cy=".651" data-name="Ellipse 358" rx=".483" ry=".651" transform="rotate(-17.06 1270.605 -1627.302)"/><ellipse cx=".211" cy=".285" data-name="Ellipse 359" opacity=".7" rx=".211" ry=".285" style="mix-blend-mode:screen;isolation:isolate" transform="rotate(-6.161 3060.775 -4800.662)"/></g></g><g fill="#efd8bd" data-name="Group 1270" transform="translate(-530.362 -270.51)"><ellipse cx=".483" cy=".651" data-name="Ellipse 360" opacity=".5" rx=".483" ry=".651" style="mix-blend-mode:multiply;isolation:isolate" transform="rotate(-31.816 806.533 -790.55)"/><g data-name="Group 1269"><ellipse cx=".483" cy=".651" data-name="Ellipse 361" rx=".483" ry=".651" transform="rotate(-31.816 806.69 -790)"/><ellipse cx=".211" cy=".285" data-name="Ellipse 362" opacity=".7" rx=".211" ry=".285" style="mix-blend-mode:screen;isolation:isolate" transform="rotate(-20.954 1097.954 -1301.066)"/></g></g><g fill="#efd8bd" data-name="Group 1272" transform="translate(-530.362 -270.51)"><ellipse cx=".483" cy=".651" data-name="Ellipse 363" opacity=".5" rx=".483" ry=".651" style="mix-blend-mode:multiply;isolation:isolate" transform="rotate(-37.72 727.817 -634.927)"/><g data-name="Group 1271"><ellipse cx=".483" cy=".651" data-name="Ellipse 364" rx=".483" ry=".651" transform="rotate(-37.72 727.975 -634.468)"/><ellipse cx=".211" cy=".285" data-name="Ellipse 365" opacity=".7" rx=".211" ry=".285" style="mix-blend-mode:screen;isolation:isolate" transform="rotate(-26.895 924.667 -974.081)"/></g></g><g fill="#efd8bd" data-name="Group 1274" transform="translate(-530.362 -270.51)"><ellipse cx=".483" cy=".651" data-name="Ellipse 366" opacity=".5" rx=".483" ry=".651" style="mix-blend-mode:multiply;isolation:isolate" transform="rotate(-58.596 554.67 -330.708)"/><g data-name="Group 1273"><ellipse cx=".483" cy=".651" data-name="Ellipse 367" rx=".483" ry=".651" transform="rotate(-58.596 554.827 -330.427)"/><ellipse cx=".211" cy=".285" data-name="Ellipse 368" opacity=".7" rx=".211" ry=".285" style="mix-blend-mode:screen;isolation:isolate" transform="rotate(-47.733 630.213 -461.612)"/></g></g><g fill="#efd8bd" data-name="Group 1276" transform="translate(-530.362 -270.51)"><ellipse cx=".483" cy=".651" data-name="Ellipse 369" opacity=".5" rx=".483" ry=".651" style="mix-blend-mode:multiply;isolation:isolate" transform="rotate(-87.028 445.115 -132.946)"/><g data-name="Group 1275"><ellipse cx=".483" cy=".651" data-name="Ellipse 370" rx=".483" ry=".651" transform="rotate(-87.028 445.272 -132.78)"/><ellipse cx=".211" cy=".285" data-name="Ellipse 371" opacity=".7" rx=".211" ry=".285" style="mix-blend-mode:screen;isolation:isolate" transform="rotate(-76.17 480.75 -194.722)"/></g></g><g fill="#efd8bd" data-name="Group 1278" transform="translate(-530.362 -270.51)"><ellipse cx=".651" cy=".483" data-name="Ellipse 372" opacity=".5" rx=".651" ry=".483" style="mix-blend-mode:multiply;isolation:isolate" transform="rotate(-41.337 696.175 -588.89)"/><g data-name="Group 1277"><ellipse cx=".651" cy=".483" data-name="Ellipse 373" rx=".651" ry=".483" transform="rotate(-41.337 696.59 -589.046)"/><ellipse cx=".285" cy=".211" data-name="Ellipse 374" opacity=".7" rx=".285" ry=".211" style="mix-blend-mode:screen;isolation:isolate" transform="rotate(-30.474 856.94 -876.782)"/></g></g><g fill="#efd8bd" data-name="Group 1280" transform="translate(-530.362 -270.51)"><ellipse cx=".651" cy=".483" data-name="Ellipse 375" opacity=".5" rx=".651" ry=".483" style="mix-blend-mode:multiply;isolation:isolate" transform="rotate(-74.626 456.534 -206.616)"/><g data-name="Group 1279"><ellipse cx=".651" cy=".483" data-name="Ellipse 376" rx=".651" ry=".483" transform="rotate(-74.626 456.327 -206.459)"/><ellipse cx=".285" cy=".211" data-name="Ellipse 377" opacity=".7" rx=".285" ry=".211" style="mix-blend-mode:screen;isolation:isolate" transform="rotate(-63.764 498.58 -285.912)"/></g></g><g fill="#efd8bd" data-name="Group 1282" transform="translate(-530.362 -270.51)"><ellipse cx=".651" cy=".483" data-name="Ellipse 378" opacity=".5" rx=".651" ry=".483" style="mix-blend-mode:multiply;isolation:isolate" transform="rotate(-31.02 768.149 -833.718)"/><g data-name="Group 1281"><ellipse cx=".651" cy=".483" data-name="Ellipse 379" rx=".651" ry=".483" transform="rotate(-31.02 767.581 -833.561)"/><ellipse cx=".285" cy=".211" data-name="Ellipse 380" opacity=".7" rx=".285" ry=".211" style="mix-blend-mode:screen;isolation:isolate" transform="rotate(-20.129 1046.854 -1382.191)"/></g></g><g fill="#efd8bd" data-name="Group 1284" transform="translate(-530.362 -270.51)"><ellipse cx=".651" cy=".483" data-name="Ellipse 381" opacity=".5" rx=".651" ry=".483" style="mix-blend-mode:multiply;isolation:isolate" transform="rotate(-86.96 422.859 -134.462)"/><g data-name="Group 1283"><ellipse cx=".651" cy=".483" data-name="Ellipse 382" rx=".651" ry=".483" transform="rotate(-86.96 422.693 -134.304)"/><ellipse cx=".285" cy=".211" data-name="Ellipse 383" opacity=".7" rx=".285" ry=".211" style="mix-blend-mode:screen;isolation:isolate" transform="rotate(-76.094 455.46 -194.415)"/></g></g><g fill="#efd8bd" data-name="Group 1286" transform="translate(-530.362 -270.51)"><ellipse cx=".483" cy=".651" data-name="Ellipse 384" opacity=".5" rx=".483" ry=".651" style="mix-blend-mode:multiply;isolation:isolate" transform="rotate(-89.55 410.494 -138.384)"/><g data-name="Group 1285"><ellipse cx=".483" cy=".651" data-name="Ellipse 385" rx=".483" ry=".651" transform="rotate(-89.55 410.336 -138.543)"/><ellipse cx=".211" cy=".285" data-name="Ellipse 386" opacity=".7" rx=".211" ry=".285" style="mix-blend-mode:screen;isolation:isolate" transform="rotate(-78.687 439.226 -196.953)"/></g></g></g><g fill="#efd8bd" data-name="Group 1289" transform="translate(-530.362 -270.51)"><ellipse cx=".483" cy=".651" data-name="Ellipse 387" opacity=".5" rx=".483" ry=".651" style="mix-blend-mode:multiply;isolation:isolate" transform="rotate(-84.094 463.066 -156.625)"/><g data-name="Group 1288"><ellipse cx=".483" cy=".651" data-name="Ellipse 388" rx=".483" ry=".651" transform="rotate(-84.094 463.224 -156.451)"/><ellipse cx=".211" cy=".285" data-name="Ellipse 389" opacity=".7" rx=".211" ry=".285" style="mix-blend-mode:screen;isolation:isolate" transform="rotate(-73.232 501.155 -224.288)"/></g></g></g></g></svg>