<svg xmlns="http://www.w3.org/2000/svg" width="63.957" height="63.957" viewBox="-5 0 63.957 63.957"><g data-name="Group 1142" transform="translate(-188.023 -267.921)"><path fill="#534741" d="M241.976 285.22a7.74 7.74 0 0 0-7.74-7.74h-2.206a8.964 8.964 0 0 0-11.654-.4 8.961 8.961 0 0 0-10.975-.166 8.952 8.952 0 0 0-11.431.562h-2.207a7.74 7.74 0 0 0-7.74 7.74 7.687 7.687 0 0 0 2.263 5.445v4.943a8.967 8.967 0 0 0-.574 9.591 8.958 8.958 0 0 0 .135 8.917 8.946 8.946 0 0 0 .439 9.814v4.862a3.086 3.086 0 0 0 3.086 3.086h43.255a3.086 3.086 0 0 0 3.086-3.086v-4.858a8.949 8.949 0 0 0 .44-9.814 8.965 8.965 0 0 0 .135-8.917 8.97 8.97 0 0 0-.575-9.591v-4.943a7.687 7.687 0 0 0 2.263-5.445Z" data-name="Path 793" opacity=".1" style="mix-blend-mode:multiply;isolation:isolate"/><rect width="49.427" height="46.487" fill="#f9cc4e" data-name="Rectangle 202" rx="3" transform="translate(190.286 278.19)"/><circle cx="8.997" cy="8.997" r="8.997" fill="#b5492c" data-name="Ellipse 168" transform="translate(188.59 284.654)"/><circle cx="8.997" cy="8.997" r="8.997" fill="#b5492c" data-name="Ellipse 169" transform="translate(188.59 302.489)"/><circle cx="8.997" cy="8.997" r="8.997" fill="#99c64a" data-name="Ellipse 170" transform="translate(188.59 293.349)"/><circle cx="8.997" cy="8.997" r="8.997" fill="#b5492c" data-name="Ellipse 171" transform="translate(223.416 284.654)"/><circle cx="8.997" cy="8.997" r="8.997" fill="#b5492c" data-name="Ellipse 172" transform="translate(223.416 302.489)"/><circle cx="8.997" cy="8.997" r="8.997" fill="#99c64a" data-name="Ellipse 173" transform="translate(223.416 293.349)"/><circle cx="8.997" cy="8.997" r="8.997" fill="#b5492c" data-name="Ellipse 174" transform="translate(195.029 267.921)"/><circle cx="8.997" cy="8.997" r="8.997" fill="#b5492c" data-name="Ellipse 175" transform="translate(216.978 267.921)"/><circle cx="8.997" cy="8.997" r="8.997" fill="#99c64a" data-name="Ellipse 176" transform="translate(205.781 267.921)"/><path fill="#e5af6e" d="M234.236 270.278h-38.473a7.74 7.74 0 0 0-7.74 7.74 7.736 7.736 0 0 0 4.971 7.221v34.85a2.263 2.263 0 0 0 2.263 2.263h39.485a2.264 2.264 0 0 0 2.264-2.263V285.24a7.735 7.735 0 0 0 4.97-7.221 7.74 7.74 0 0 0-7.74-7.741Z" data-name="Path 794"/><path fill="#ffe8c2" d="M195.257 320.09v-36.4l-1.452-.558a5.474 5.474 0 0 1 1.958-10.586h38.474a5.474 5.474 0 0 1 1.958 10.586l-1.452.558v36.4Z" data-name="Path 795"/><circle cx="1.023" cy="1.023" r="1.023" fill="#e5af6e" data-name="Ellipse 177" transform="translate(200.426 294.58)"/><circle cx="1.023" cy="1.023" r="1.023" fill="#e5af6e" data-name="Ellipse 178" transform="translate(221.341 284.573)"/><circle cx="1.023" cy="1.023" r="1.023" fill="#e5af6e" data-name="Ellipse 179" transform="translate(205.167 309.584)"/><circle cx="1.023" cy="1.023" r="1.023" fill="#e5af6e" data-name="Ellipse 180" transform="translate(226.454 309.584)"/><circle cx="1.023" cy="1.023" r="1.023" fill="#e5af6e" data-name="Ellipse 181" transform="translate(227.476 295.293)"/><circle cx="1.023" cy="1.023" r="1.023" fill="#e5af6e" data-name="Ellipse 182" transform="translate(215.485 292.628)"/><circle cx="1.023" cy="1.023" r="1.023" fill="#e5af6e" data-name="Ellipse 183" transform="translate(220.83 302.033)"/><circle cx="1.023" cy="1.023" r="1.023" fill="#e5af6e" data-name="Ellipse 184" transform="translate(210.465 299.228)"/><circle cx="1.023" cy="1.023" r="1.023" fill="#e5af6e" data-name="Ellipse 185" transform="translate(203.122 280.358)"/></g></svg>