<svg xmlns="http://www.w3.org/2000/svg" width="87.203" height="87.203" viewBox="-30.82 0 87.203 87.203"><g data-name="Group 1143" transform="translate(-309.226 -258.404)"><path fill="#534741" d="M0 0h3.852v67.079H0z" data-name="Rectangle 203" opacity=".1" style="mix-blend-mode:multiply;isolation:isolate" transform="translate(320.082 278.528)"/><path fill="#e5af6e" d="M320.082 273.888h3.852v66.079a1 1 0 0 1-1 1h-1.852a1 1 0 0 1-1-1v-66.079Z" data-name="Rectangle 204"/><path fill="#534741" d="m328.853 300.029.091-.05.039-.021a5.164 5.164 0 0 0 1.435-1.13 4.214 4.214 0 0 0 1.022-2.863 4.38 4.38 0 0 0-2.673-4.111c3.612-1.217 6.023-3.743 6.023-8.317 0-3.531-1.433-5.847-3.748-7.279a1.545 1.545 0 0 0 .712-2.526l-8.605-9.412a1.546 1.546 0 0 0-2.283 0l-8.605 9.412a1.544 1.544 0 0 0 .713 2.526c-2.316 1.432-3.748 3.748-3.748 7.279 0 4.574 2.41 7.1 6.022 8.317a4.38 4.38 0 0 0-2.672 4.111 4.327 4.327 0 0 0 2.456 3.993l.039.021.091.05c-3.565 1.228-5.936 3.751-5.936 8.289 0 4.6 2.44 7.129 6.088 8.338-1.692.253-2.738 1.005-2.738 3a2.563 2.563 0 0 0 1.608 2.707 2.562 2.562 0 0 0-1.608 2.707c0 3.494 3.22 4.353 7.506 4.515a2.36 2.36 0 0 1 1.926-1.16 2.3 2.3 0 0 1 1.9 1.161c4.3-.16 7.532-1.015 7.532-4.516a2.561 2.561 0 0 0-1.609-2.707 2.563 2.563 0 0 0 1.609-2.707c0-1.991-1.047-2.743-2.739-3 3.649-1.209 6.089-3.737 6.089-8.338 0-4.538-2.372-7.061-5.937-8.289Z" data-name="Path 796" opacity=".1" style="mix-blend-mode:multiply;isolation:isolate"/><ellipse cx="9.432" cy="5.321" fill="#99c64a" data-name="Ellipse 186" rx="9.432" ry="5.321" transform="translate(312.576 285.231)"/><ellipse cx="9.432" cy="3" fill="#99c64a" data-name="Ellipse 187" rx="9.432" ry="3" transform="translate(312.576 311.238)"/><path fill="#b5492c" d="M331.44 319.652c0 4-4.223 4.547-9.432 4.547s-9.432-.545-9.432-4.547 4.222-3 9.432-3 9.432-1.002 9.432 3Z" data-name="Path 797"/><path fill="#534741" d="M322.008 291.325c-3.3 0-6.284.582-8.411 2.09 1.555 1.794 4.733 2.457 8.411 2.457s6.855-.663 8.41-2.457c-2.127-1.508-5.106-2.09-8.41-2.09Z" data-name="Path 798" opacity=".1" style="mix-blend-mode:multiply;isolation:isolate"/><ellipse cx="12.782" cy="9.259" fill="#b76f4b" data-name="Ellipse 188" rx="12.782" ry="9.259" transform="translate(309.226 293.645)"/><path fill="#534741" d="M322.008 308.054c-6.022 0-11-1.548-11.927-6.3a8.584 8.584 0 0 0-.168 1.662c0 6.068 5.415 7.958 12.1 7.958s12.094-1.89 12.094-7.958a8.582 8.582 0 0 0-.168-1.662c-.93 4.752-5.91 6.3-11.931 6.3Z" data-name="Path 799" opacity=".1" style="mix-blend-mode:multiply;isolation:isolate"/><circle cx="1.768" cy="1.768" r="1.768" fill="#534741" data-name="Ellipse 189" opacity=".1" style="mix-blend-mode:multiply;isolation:isolate" transform="translate(323.933 301.136)"/><circle cx=".728" cy=".728" r=".728" fill="#534741" data-name="Ellipse 190" opacity=".1" style="mix-blend-mode:multiply;isolation:isolate" transform="translate(329.69 298.99)"/><circle cx=".915" cy=".915" r=".915" fill="#ffe8c2" data-name="Ellipse 191" opacity=".2" transform="translate(315.192 298.075)"/><path fill="#f9cc4e" d="m312.261 268.318 8.605-9.411a1.546 1.546 0 0 1 2.283 0l8.605 9.411a1.547 1.547 0 0 1-1.141 2.591H313.4a1.547 1.547 0 0 1-1.139-2.591Z" data-name="Path 800"/><path fill="#534741" d="M322.008 259.947c-.441 0-.876 6.974-1.3 7-3.232.226-6 1.346-7.628 3.909a1.553 1.553 0 0 0 .325.049h17.211a1.543 1.543 0 0 0 .325-.049c-1.627-2.563-4.4-3.683-7.631-3.909-.429-.026-.862-7-1.302-7Z" data-name="Path 801" opacity=".1" style="mix-blend-mode:multiply;isolation:isolate"/><ellipse cx="12.782" cy="9.259" fill="#b76f4b" data-name="Ellipse 192" rx="12.782" ry="9.259" transform="translate(309.226 268.865)"/><path fill="#534741" d="M322.008 283.273c-6.022 0-11-1.548-11.927-6.3a8.6 8.6 0 0 0-.168 1.662c0 6.068 5.415 7.959 12.1 7.959s12.094-1.891 12.094-7.959a8.6 8.6 0 0 0-.168-1.662c-.93 4.752-5.91 6.3-11.931 6.3Z" data-name="Path 802" opacity=".1" style="mix-blend-mode:multiply;isolation:isolate"/><circle cx="1.768" cy="1.768" r="1.768" fill="#534741" data-name="Ellipse 193" opacity=".1" style="mix-blend-mode:multiply;isolation:isolate" transform="translate(315.192 274.685)"/><circle cx=".728" cy=".728" r=".728" fill="#534741" data-name="Ellipse 194" opacity=".1" style="mix-blend-mode:multiply;isolation:isolate" transform="translate(321.363 280.488)"/><circle cx=".915" cy=".915" r=".915" fill="#ffe8c2" data-name="Ellipse 195" opacity=".2" transform="translate(326.788 272.379)"/><path fill="#ffe8c2" d="M328.895 317.482c0 .357-3.083 1.42-6.887 1.42s-6.888-1.063-6.888-1.42 3.084.127 6.888.127 6.887-.484 6.887-.127Z" data-name="Path 803" opacity=".2"/></g></svg>