<svg xmlns="http://www.w3.org/2000/svg" width="74.564" height="74.564" viewBox="-12.1 0 74.564 74.564"><defs><clipPath id="a"><path fill="none" d="M346.21 153.944c0 13.9-11.273 40.387-25.178 40.387s-25.177-26.482-25.177-40.387a25.177 25.177 0 0 1 50.355 0Z" data-name="Path 776"/></clipPath><clipPath id="b"><path fill="none" d="M295.855 153.944c0 13.9 11.272 40.387 25.177 40.387s25.178-26.482 25.178-40.387a25.177 25.177 0 0 0-50.355 0Z" data-name="Path 777"/></clipPath></defs><g data-name="Group 1129"><path fill="#534741" d="M346.21 162.944c0 13.9-11.273 40.387-25.178 40.387s-25.177-26.482-25.177-40.387a25.177 25.177 0 0 1 50.355 0Z" data-name="Path 770" opacity=".1" style="mix-blend-mode:multiply;isolation:isolate" transform="translate(-295.855 -128.767)"/><path fill="#b76f4b" d="M50.355 25.177c0 13.9-11.273 40.387-25.178 40.387S0 39.082 0 25.177a25.178 25.178 0 0 1 50.355 0Z" data-name="Path 771"/><path fill="#edaea9" d="M25.177 62.917c-11.3 0-22.775-24.441-22.775-38.1 0-12.226 10.217-22.172 22.775-22.172s22.776 9.946 22.776 22.172c0 13.659-11.48 38.1-22.776 38.1Z" data-name="Path 772"/><path fill="#e28579" d="M25.177 61.564C14.677 61.564 4 38.22 4 25.177a21.177 21.177 0 0 1 42.355 0c0 13.043-10.675 36.387-21.178 36.387Z" data-name="Path 773"/><path fill="#edaea9" d="M9.268 48.45q.717 1.341 1.486 2.611c11.064-5.886 14.212-13.935 17.258-21.737 2.66-6.81 5.407-13.837 13.6-19.825a22.724 22.724 0 0 0-2.285-2.03c-8.479 6.382-11.348 13.682-14.114 20.764-2.968 7.623-5.802 14.849-15.945 20.217Z" data-name="Path 774"/><path fill="#f9e2e1" d="M25.177 40.956c-3.009 0-6.068-6.63-6.068-10.334a6.069 6.069 0 0 1 12.137 0c-.001 3.704-3.059 10.334-6.069 10.334Z" data-name="Path 775"/><g data-name="Group 1125" opacity=".5"><g clip-path="url(#a)" data-name="Group 1124" transform="translate(-295.855 -128.767)"><g fill="#b76f4b" data-name="Group 1123"><path d="M0 0h78.318v2.236H0z" data-name="Rectangle 176" opacity=".9" style="mix-blend-mode:multiply;isolation:isolate" transform="rotate(-30 430.878 -454.095)"/><path d="M0 0h78.318v2.236H0z" data-name="Rectangle 177" opacity=".9" style="mix-blend-mode:multiply;isolation:isolate" transform="rotate(-30 450.56 -448.821)"/><path d="M0 0h78.318v2.236H0z" data-name="Rectangle 178" opacity=".9" style="mix-blend-mode:multiply;isolation:isolate" transform="rotate(-30 470.238 -443.548)"/><path d="M0 0h78.318v2.236H0z" data-name="Rectangle 179" opacity=".9" style="mix-blend-mode:multiply;isolation:isolate" transform="rotate(-30 489.92 -438.275)"/><path d="M0 0h78.318v2.236H0z" data-name="Rectangle 180" opacity=".9" style="mix-blend-mode:multiply;isolation:isolate" transform="rotate(-30 509.598 -433.002)"/><path d="M0 0h78.318v2.236H0z" data-name="Rectangle 181" opacity=".9" style="mix-blend-mode:multiply;isolation:isolate" transform="rotate(-30 529.278 -427.729)"/></g></g></g><g data-name="Group 1128" opacity=".5"><g clip-path="url(#b)" data-name="Group 1127" transform="translate(-295.855 -128.767)"><g fill="#b76f4b" data-name="Group 1126"><path d="M0 0h78.318v2.236H0z" data-name="Rectangle 182" opacity=".9" style="mix-blend-mode:multiply;isolation:isolate" transform="rotate(-150 199.058 30.552)"/><path d="M0 0h78.318v2.236H0z" data-name="Rectangle 183" opacity=".9" style="mix-blend-mode:multiply;isolation:isolate" transform="rotate(-150 200.471 35.825)"/><path d="M0 0h78.318v2.236H0z" data-name="Rectangle 184" opacity=".9" style="mix-blend-mode:multiply;isolation:isolate" transform="rotate(-150 201.884 41.098)"/><path d="M0 0h78.318v2.236H0z" data-name="Rectangle 185" opacity=".9" style="mix-blend-mode:multiply;isolation:isolate" transform="rotate(-150 203.297 46.371)"/><path d="M0 0h78.318v2.236H0z" data-name="Rectangle 186" opacity=".9" style="mix-blend-mode:multiply;isolation:isolate" transform="rotate(-150 204.71 51.645)"/><path d="M0 0h78.318v2.236H0z" data-name="Rectangle 187" opacity=".9" style="mix-blend-mode:multiply;isolation:isolate" transform="rotate(-150 206.123 56.918)"/></g></g></g></g></svg>