<svg xmlns="http://www.w3.org/2000/svg" width="99.192" height="99.192" viewBox="0 -1.93 99.192 99.192"><g data-name="Group 1179" transform="translate(-404.936 -390.107)"><rect width="83.447" height="83.447" fill="#534741" data-name="Rectangle 245" opacity=".1" rx="9.748" style="mix-blend-mode:multiply;isolation:isolate" transform="translate(404.936 398.459)"/><rect width="83.447" height="83.447" fill="#f2f4ef" data-name="Rectangle 246" rx="9.748" transform="translate(404.936 390.107)"/><rect width="53.313" height="53.313" fill="#e6eae1" data-name="Rectangle 247" rx="6.231" transform="translate(420.002 405.174)"/><g fill="#a07d4a" data-name="Group 1162"><path d="m502.455 427.422-.658-.658-56.343 55.421 1.119 1.119Z" data-name="Path 879"/><path d="m503.469 428.436.658.658-55.421 56.343-1.119-1.119Z" data-name="Path 880"/></g><g fill="#534741" data-name="Group 1163" opacity=".1" style="mix-blend-mode:multiply;isolation:isolate"><path d="M488.383 450.073v1.456l-22.013 22.025h-1.861Z" data-name="Path 881"/><path d="M488.383 453.569v1.491L470.2 473.554h-1.825Z" data-name="Path 882"/></g><g data-name="Group 1164"><circle cx="10.11" cy="10.11" r="10.11" fill="#534741" data-name="Ellipse 202" opacity=".1" style="mix-blend-mode:multiply;isolation:isolate" transform="translate(424.775 413.374)"/><circle cx="10.11" cy="10.11" r="10.11" fill="#4d4e4f" data-name="Ellipse 203" transform="translate(424.775 409.152)"/><circle cx="8.462" cy="8.462" r="8.462" fill="#f2f4f7" data-name="Ellipse 204" transform="translate(426.422 410.799)"/><path fill="#f2f4f7" d="M443.338 419.26a2.063 2.063 0 0 1-.021.359 8.441 8.441 0 0 0-16.868 0 2.066 2.066 0 0 1-.021-.359 8.455 8.455 0 1 1 16.91 0Z" data-name="Path 883" opacity=".7" style="mix-blend-mode:multiply;isolation:isolate"/><circle cx="4.662" cy="4.662" r="4.662" fill="#534741" data-name="Ellipse 205" opacity=".1" style="mix-blend-mode:multiply;isolation:isolate" transform="translate(430.223 415.51)"/><path fill="#dd884e" d="M434.885 414.61v9.3a5.072 5.072 0 0 1-3.3-1.354 4.7 4.7 0 0 1-1.023-1.585 1.25 1.25 0 0 1-.128-.434 3.63 3.63 0 0 1-.2-1.278 1.222 1.222 0 0 1 .026-.307l.051-.435a3.667 3.667 0 0 1 .562-1.584l.281-.435a4.575 4.575 0 0 1 3.731-1.888Z" data-name="Path 884"/><path fill="#c17744" d="M430.872 416.936h4.013v-.436h-3.732Z" data-name="Path 885"/><path fill="#c17744" d="M430.259 418.955h4.626v-.434h-4.575Z" data-name="Path 886"/><path fill="#c17744" d="M434.885 420.54v.434h-4.32a1.25 1.25 0 0 1-.128-.434Z" data-name="Path 887"/><path fill="#c17744" d="M434.885 422.559v.434h-2.761a4.517 4.517 0 0 1-.536-.434Z" data-name="Path 888"/><path fill="#97c644" d="M434.885 414.6a4.662 4.662 0 0 1 4.662 4.662h-4.662Z" data-name="Path 889"/><path fill="#f25757" d="M434.885 423.924a4.663 4.663 0 0 0 4.662-4.662h-4.662Z" data-name="Path 890"/></g><g data-name="Group 1173"><circle cx="10.11" cy="10.11" r="10.11" fill="#534741" data-name="Ellipse 206" opacity=".1" style="mix-blend-mode:multiply;isolation:isolate" transform="translate(448.29 413.364)"/><circle cx="10.11" cy="10.11" r="10.11" fill="#4d4e4f" data-name="Ellipse 207" transform="translate(448.29 409.142)"/><circle cx="8.462" cy="8.462" r="8.462" fill="#f2f4f7" data-name="Ellipse 208" transform="translate(449.938 410.789)"/><path fill="#f2f4f7" d="M466.912 419.269a2.06 2.06 0 0 1-.021.359 8.441 8.441 0 0 0-16.868 0 2.06 2.06 0 0 1-.021-.359 8.455 8.455 0 1 1 16.91 0Z" data-name="Path 891" opacity=".7" style="mix-blend-mode:multiply;isolation:isolate"/><path fill="#534741" d="M465.657 419.636c0-.792-1.745-2.1-3.057-2.343a1.766 1.766 0 0 0-2.174-.723 1.817 1.817 0 0 0-.466-.893 1.879 1.879 0 0 0-2.659 0 .9.9 0 0 1-1.624.764 1.881 1.881 0 0 0-1.88 1.881 1.82 1.82 0 0 1 .069 3.2 1.881 1.881 0 0 0 1.881 1.881 1.025 1.025 0 1 1 1.554 1.33 1.881 1.881 0 0 0 2.659 0 .954.954 0 0 1 1.365-1.33 1.856 1.856 0 0 0 1.818-1.567c1.203-.436 2.514-1.513 2.514-2.2Zm-8.132-1.151c.015.012.031.02.046.031-.022.01-.039.029-.06.041.003-.025.012-.047.014-.072Zm.046 3.4-.021.014.005-.025Zm1.907-.206c0 .026.012.049.015.075-.022-.012-.041-.031-.063-.042.016-.012.032-.012.048-.029Z" data-name="Path 892" opacity=".1" style="mix-blend-mode:multiply;isolation:isolate"/><g data-name="Group 1172"><path fill="#a0c167" d="M465.657 418.685c0 .874-2.127 2.393-3.448 2.393a2.393 2.393 0 1 1 0-4.785c1.321 0 3.448 1.519 3.448 2.392Z" data-name="Path 893"/><g fill="#ed7845" data-name="Group 1165"><circle cx="1.881" cy="1.881" r="1.881" data-name="Ellipse 209" transform="translate(459.186 415.49)"/><path d="M462.55 418a1.614 1.614 0 0 1-3.1-.626 1.589 1.589 0 0 1 1-1.483 1.378 1.378 0 0 0-.139.626 1.642 1.642 0 0 0 1.622 1.622 1.375 1.375 0 0 0 .617-.139Z" data-name="Path 894" opacity=".2" style="mix-blend-mode:multiply;isolation:isolate"/><circle cx=".571" cy=".571" r=".571" data-name="Ellipse 210" opacity=".5" style="mix-blend-mode:screen;isolation:isolate" transform="translate(461.067 416.056)"/></g><g fill="#ed7845" data-name="Group 1166"><circle cx="1.881" cy="1.881" r="1.881" data-name="Ellipse 211" transform="translate(456.75 414.175)"/><path d="M460.122 415.449a1.615 1.615 0 0 1-2.639 1.754 1.591 1.591 0 0 1-.344-1.754 1.382 1.382 0 0 0 .344.541 1.643 1.643 0 0 0 2.3 0 1.383 1.383 0 0 0 .339-.541Z" data-name="Path 895" opacity=".2" style="mix-blend-mode:multiply;isolation:isolate"/><circle cx=".571" cy=".571" r=".571" data-name="Ellipse 212" opacity=".5" style="mix-blend-mode:screen;isolation:isolate" transform="translate(457.937 414.555)"/></g><g fill="#ed7845" data-name="Group 1167"><circle cx="1.881" cy="1.881" r="1.881" data-name="Ellipse 213" transform="translate(456.75 420.566)"/><path d="M460.122 423.053a1.614 1.614 0 0 0-2.639-1.753 1.589 1.589 0 0 0-.344 1.753 1.379 1.379 0 0 1 .344-.54 1.643 1.643 0 0 1 2.3 0 1.379 1.379 0 0 1 .339.54Z" data-name="Path 896" opacity=".2" style="mix-blend-mode:multiply;isolation:isolate"/><circle cx=".571" cy=".571" r=".571" data-name="Ellipse 214" opacity=".5" style="mix-blend-mode:screen;isolation:isolate" transform="translate(457.937 422.806)"/></g><g fill="#ed7845" data-name="Group 1168"><circle cx="1.881" cy="1.881" r="1.881" data-name="Ellipse 215" transform="translate(459.445 418.685)"/><path d="M462.809 419.941a1.614 1.614 0 0 0-3.106.625 1.591 1.591 0 0 0 1 1.484 1.378 1.378 0 0 1-.14-.626 1.643 1.643 0 0 1 1.623-1.623 1.378 1.378 0 0 1 .623.14Z" data-name="Path 897" opacity=".2" style="mix-blend-mode:multiply;isolation:isolate"/><circle cx=".571" cy=".571" r=".571" data-name="Ellipse 216" opacity=".5" style="mix-blend-mode:screen;isolation:isolate" transform="translate(461.325 420.739)"/></g><g fill="#ed7845" data-name="Group 1169"><circle cx="1.881" cy="1.881" r="1.881" data-name="Ellipse 217" transform="translate(453.797 415.49)"/><path d="M454.194 418a1.614 1.614 0 0 0 3.106-.626 1.589 1.589 0 0 0-1-1.483 1.378 1.378 0 0 1 .139.626 1.641 1.641 0 0 1-1.622 1.622 1.375 1.375 0 0 1-.623-.139Z" data-name="Path 898" opacity=".2" style="mix-blend-mode:multiply;isolation:isolate"/><circle cx=".571" cy=".571" r=".571" data-name="Ellipse 218" opacity=".5" style="mix-blend-mode:screen;isolation:isolate" transform="translate(454.536 416.056)"/></g><g fill="#ed7845" data-name="Group 1170"><circle cx="1.881" cy="1.881" r="1.881" data-name="Ellipse 219" transform="translate(453.866 418.685)"/><path d="M454.264 419.941a1.614 1.614 0 0 1 3.1.625 1.591 1.591 0 0 1-1 1.484 1.391 1.391 0 0 0 .139-.626 1.643 1.643 0 0 0-1.623-1.623 1.374 1.374 0 0 0-.616.14Z" data-name="Path 899" opacity=".2" style="mix-blend-mode:multiply;isolation:isolate"/><circle cx=".571" cy=".571" r=".571" data-name="Ellipse 220" opacity=".5" style="mix-blend-mode:screen;isolation:isolate" transform="translate(454.605 420.739)"/></g><g fill="#ed7845" data-name="Group 1171"><circle cx="1.881" cy="1.881" r="1.881" data-name="Ellipse 221" transform="translate(456.491 417.371)"/><path d="M459.855 419.877a1.614 1.614 0 0 1-3.105-.626 1.59 1.59 0 0 1 1-1.483 1.388 1.388 0 0 0-.139.626 1.643 1.643 0 0 0 1.623 1.622 1.374 1.374 0 0 0 .621-.139Z" data-name="Path 900" opacity=".2" style="mix-blend-mode:multiply;isolation:isolate"/><circle cx=".571" cy=".571" r=".571" data-name="Ellipse 222" opacity=".5" style="mix-blend-mode:screen;isolation:isolate" transform="translate(458.372 417.936)"/></g></g></g><g data-name="Group 1175"><path fill="#534741" d="m440.318 448.92-2.435-2.435L435 443.6l-2.436-2.435a1.868 1.868 0 0 0-2.641 0l-3.467 3.467a1.869 1.869 0 0 0 0 2.642l2.435 2.435 2.883 2.882 2.435 2.435a1.866 1.866 0 0 0 2.641 0l3.467-3.467a1.866 1.866 0 0 0 .001-2.639Z" data-name="Path 901" opacity=".1" style="mix-blend-mode:multiply;isolation:isolate"/><g data-name="Group 1174"><rect width="14.7" height="8.639" fill="#ede064" data-name="Rectangle 248" rx="1.868" transform="rotate(45 -312.222 739.2)"/><path fill="#4d4e4f" d="m435.001 441.037 2.882 2.882-6.109 6.109-2.882-2.882z" data-name="Rectangle 249"/></g></g><g data-name="Group 1177"><path fill="#534741" d="M456.283 450.266a4.094 4.094 0 0 0-1.145-2.064l-.6-.6-3.686-3.686a4.319 4.319 0 0 0-6.109 6.108l1.5 1.5 2.184 2.183.6.6a4.256 4.256 0 0 0 2.04 1.133 3.631 3.631 0 0 0 1.015.131 4.361 4.361 0 0 0 3.054-1.264 4.3 4.3 0 0 0 1.147-4.041Z" data-name="Path 902" opacity=".1" style="mix-blend-mode:multiply;isolation:isolate"/><path fill="#ea8571" d="M455.2 450.729a4.358 4.358 0 0 1-3.055 1.265 3.657 3.657 0 0 1-1.014-.131 4.25 4.25 0 0 1-2.04-1.134l-4.283-4.283a4.32 4.32 0 1 1 6.109-6.109l4.283 4.284a4.1 4.1 0 0 1 1.145 2.064 4.3 4.3 0 0 1-1.145 4.044Z" data-name="Path 903"/><g data-name="Group 1176"><path fill="#e5693e" d="M455.2 450.729a4.358 4.358 0 0 1-3.055 1.265 3.657 3.657 0 0 1-1.014-.131 4.315 4.315 0 0 1 4.2-5.31 3.62 3.62 0 0 1 1.014.132 4.3 4.3 0 0 1-1.145 4.044Z" data-name="Path 904"/><path fill="#ea8571" d="M454.605 444.024a4.32 4.32 0 0 0-6.109 0 4.307 4.307 0 0 0 0 6.109l-3.686-3.687a4.32 4.32 0 1 1 6.109-6.109Z" data-name="Path 905"/><path fill="#e5693e" d="M452.41 441.841a4.315 4.315 0 1 0-6.1 6.108l-1.5-1.5a4.32 4.32 0 1 1 6.109-6.109Z" data-name="Path 906"/><path fill="#e5693e" d="M455.494 444.925a4.315 4.315 0 0 0-6.1 6.109l-1.5-1.5a4.319 4.319 0 1 1 6.106-6.112Z" data-name="Path 907"/></g><path fill="#4d4e4f" d="m451.615 441.037 2.882 2.882-6.109 6.109-2.882-2.882z" data-name="Rectangle 250"/></g><g data-name="Group 1178"><circle cx="2.788" cy="2.788" r="2.788" fill="#534741" data-name="Ellipse 223" opacity=".1" style="mix-blend-mode:multiply;isolation:isolate" transform="translate(460.471 440.111)"/><circle cx="2.788" cy="2.788" r="2.788" fill="#8eb748" data-name="Ellipse 224" transform="translate(460.471 439.083)"/><circle cx=".459" cy=".459" r=".459" fill="#8eb748" data-name="Ellipse 225" opacity=".6" style="mix-blend-mode:multiply;isolation:isolate" transform="translate(463.98 439.89)"/><circle cx=".272" cy=".272" r=".272" fill="#8eb748" data-name="Ellipse 226" opacity=".3" style="mix-blend-mode:multiply;isolation:isolate" transform="translate(464.376 443.075)"/><circle cx=".425" cy=".425" r=".425" fill="#8eb748" data-name="Ellipse 227" opacity=".3" style="mix-blend-mode:multiply;isolation:isolate" transform="translate(461.238 442.738)"/></g></g></svg>