<svg xmlns="http://www.w3.org/2000/svg" width="75.43" height="75.43" viewBox="0 -11.14 75.43 75.43"><g data-name="Group 1185" transform="translate(-63.453 -417.236)"><path fill="#534741" d="M136.38 470.382a2.5 2.5 0 0 0 2.5-2.663 37.8 37.8 0 0 0-75.418 0 2.5 2.5 0 0 0 2.5 2.663Z" data-name="Path 908" opacity=".1" style="mix-blend-mode:multiply;isolation:isolate"/><path fill="#9bbc6c" d="M136.277 453.024c-6.715 1.83-7.287-2.426-14.238-2.426s-6.95 2.482-13.912 2.482-6.95-2.482-13.912-2.482-6.849 1.483-13.743 2.459c-7.186 1.022-7.7 1.8-14.417-.033.258-3.717 2.481-8.085 3.6-11.431a19.968 19.968 0 0 0 .775-3.873c.067-.438.112-.876.179-1.314a12.311 12.311 0 0 1 1.707-5.614 8.505 8.505 0 0 1 2.032-1.977c1.752-1.257 3.919-2.1 5.805-3.2h.023a11.83 11.83 0 0 0 1.4-.909c2.864-2.156 4.975-6.007 8.5-7.13 2.684-.876 5.783.168 8.882.606h4.4c3.111-.438 6.21-1.482 8.882-.606 3.526 1.123 5.637 4.974 8.5 7.13a10.936 10.936 0 0 0 1.392.909c1.9 1.1 4.076 1.943 5.839 3.189a8.826 8.826 0 0 1 2.044 1.988 12.57 12.57 0 0 1 1.706 5.614l.169 1.314a19.832 19.832 0 0 0 .786 3.873c1.119 3.346 3.343 7.714 3.601 11.431Z" data-name="Path 909"/><rect width="69.391" height="14.623" fill="#f2db79" data-name="Rectangle 251" rx="4.5" transform="translate(66.47 437.688)"/><path fill="#534741" d="M127.867 435.6a6.5 6.5 0 0 1-11.981-3.6 6.422 6.422 0 0 1-9.342-4.02 6.5 6.5 0 0 1-10.745 0 6.439 6.439 0 0 1-9.354 4.02 6.494 6.494 0 1 1-12.093-3.178c1.752-1.257 3.919-2.1 5.805-3.2h.023a6.754 6.754 0 0 1 2.863.8 6.485 6.485 0 0 1 11.857-3.771 6.5 6.5 0 0 1 4.065-4.469h4.4a6.5 6.5 0 0 1 4.065 4.469 6.491 6.491 0 0 1 11.868 3.762 6.616 6.616 0 0 1 2.841-.8c1.9 1.1 4.076 1.943 5.839 3.189a6.469 6.469 0 0 1-.111 6.798Z" data-name="Path 910" opacity=".1" style="mix-blend-mode:multiply;isolation:isolate"/><g data-name="Group 1184"><circle cx="6.296" cy="6.296" r="6.296" fill="#ce4646" data-name="Ellipse 228" transform="translate(94.871 419.576)"/><circle cx="3.789" cy="3.789" r="3.789" fill="#bc4444" data-name="Ellipse 229" transform="translate(97.379 422.084)"/><g data-name="Group 1180"><circle cx="6.296" cy="6.296" r="6.296" fill="#ce4646" data-name="Ellipse 230" transform="translate(106.131 421.505)"/><circle cx="3.789" cy="3.789" r="3.789" fill="#bc4444" data-name="Ellipse 231" transform="translate(108.638 424.013)"/></g><g data-name="Group 1181"><circle cx="6.296" cy="6.296" r="6.296" fill="#ce4646" data-name="Ellipse 232" transform="translate(115.393 427.122)"/><circle cx="3.789" cy="3.789" r="3.789" fill="#bc4444" data-name="Ellipse 233" transform="translate(117.901 429.63)"/></g><g data-name="Group 1182"><circle cx="6.296" cy="6.296" r="6.296" fill="#ce4646" data-name="Ellipse 234" transform="translate(83.612 421.505)"/><circle cx="3.789" cy="3.789" r="3.789" fill="#bc4444" data-name="Ellipse 235" transform="translate(86.12 424.013)"/></g><g data-name="Group 1183"><circle cx="6.296" cy="6.296" r="6.296" fill="#ce4646" data-name="Ellipse 236" transform="translate(74.35 427.122)"/><circle cx="3.789" cy="3.789" r="3.789" fill="#bc4444" data-name="Ellipse 237" transform="translate(76.857 429.63)"/></g></g><path fill="#534741" d="M131.9 437.72a4.25 4.25 0 0 0-.539-.034H70.973a4.226 4.226 0 0 0-.539.034c.067-.438.112-.876.179-1.314a1.893 1.893 0 0 1 .36-.023h60.386a2 2 0 0 1 .37.023q.084.657.171 1.314Z" data-name="Path 911" opacity=".1" style="mix-blend-mode:multiply;isolation:isolate"/><path fill="#f7dcbf" d="M136.38 462.777a2.5 2.5 0 0 0 2.5-2.663 37.8 37.8 0 0 0-75.418 0 2.5 2.5 0 0 0 2.5 2.663Z" data-name="Path 912"/><circle cx=".804" cy=".804" r=".804" fill="#f7dcbf" data-name="Ellipse 238" style="mix-blend-mode:multiply;isolation:isolate" transform="translate(101.972 459.057)"/><circle cx=".804" cy=".804" r=".804" fill="#f7dcbf" data-name="Ellipse 239" style="mix-blend-mode:multiply;isolation:isolate" transform="translate(110.355 454.863)"/><circle cx=".804" cy=".804" r=".804" fill="#f7dcbf" data-name="Ellipse 240" style="mix-blend-mode:multiply;isolation:isolate" transform="translate(132.021 456.471)"/><circle cx=".804" cy=".804" r=".804" fill="#f7dcbf" data-name="Ellipse 241" style="mix-blend-mode:multiply;isolation:isolate" transform="translate(119.142 459.861)"/><circle cx=".804" cy=".804" r=".804" fill="#f7dcbf" data-name="Ellipse 242" style="mix-blend-mode:multiply;isolation:isolate" transform="translate(122.937 450.37)"/><circle cx=".804" cy=".804" r=".804" fill="#f7dcbf" data-name="Ellipse 243" style="mix-blend-mode:multiply;isolation:isolate" transform="translate(92.894 453.532)"/><circle cx=".804" cy=".804" r=".804" fill="#f7dcbf" data-name="Ellipse 244" style="mix-blend-mode:multiply;isolation:isolate" transform="translate(81.203 454.863)"/><circle cx=".804" cy=".804" r=".804" fill="#f7dcbf" data-name="Ellipse 245" style="mix-blend-mode:multiply;isolation:isolate" transform="translate(100.364 443.073)"/><circle cx=".804" cy=".804" r=".804" fill="#f7dcbf" data-name="Ellipse 246" style="mix-blend-mode:multiply;isolation:isolate" transform="translate(86.139 447.958)"/><circle cx=".804" cy=".804" r=".804" fill="#f7dcbf" data-name="Ellipse 247" style="mix-blend-mode:multiply;isolation:isolate" transform="translate(75.249 446.351)"/><circle cx=".804" cy=".804" r=".804" fill="#f7dcbf" data-name="Ellipse 248" style="mix-blend-mode:multiply;isolation:isolate" transform="translate(68.011 457.275)"/></g></svg>