<svg xmlns="http://www.w3.org/2000/svg" width="90.909" height="90.909" viewBox="-3 0 90.909 90.909"><g data-name="Group 1161" transform="translate(-646.756 -250.819)"><g data-name="Group 1158"><circle cx="42.45" cy="42.45" r="42.45" fill="#534741" data-name="Ellipse 198" opacity=".1" style="mix-blend-mode:multiply;isolation:isolate" transform="translate(646.756 256.828)"/><circle cx="42.45" cy="42.45" r="42.45" fill="#f2f4ef" data-name="Ellipse 199" transform="translate(646.756 250.819)"/><circle cx="29.764" cy="29.764" r="29.764" fill="#e6eae1" data-name="Ellipse 200" transform="translate(659.442 263.506)"/></g><path fill="#534741" d="M2.92 0h37.91a2.918 2.918 0 0 1 2.918 2.918v37.911a2.92 2.92 0 0 1-2.92 2.92H2.92A2.92 2.92 0 0 1 0 40.829V2.92A2.92 2.92 0 0 1 2.92 0Z" data-name="Rectangle 205" opacity=".1" style="mix-blend-mode:multiply;isolation:isolate" transform="rotate(45 24.734 964.534)"/><path fill="#d1aa5a" d="m691.338 265.004 26.806 26.806a2.918 2.918 0 0 1 0 4.127l-26.807 26.807a2.92 2.92 0 0 1-4.13 0l-26.804-26.805a2.92 2.92 0 0 1 0-4.13l26.805-26.805a2.92 2.92 0 0 1 4.13 0Z" data-name="Rectangle 206"/><rect width="40.011" height="40.011" fill="#f2cb6b" data-name="Rectangle 207" rx="2.203" transform="rotate(-45 685.228 -650.938)"/><rect width="7.307" height="7.307" fill="#ddb55b" data-name="Rectangle 208" rx=".402" transform="rotate(-45 686.75 -654.614)"/><rect width="7.307" height="7.307" fill="#ddb55b" data-name="Rectangle 209" rx=".402" transform="rotate(-45 682.02 -666.035)"/><rect width="7.307" height="7.307" fill="#ddb55b" data-name="Rectangle 210" rx=".402" transform="rotate(-45 677.29 -677.456)"/><rect width="7.307" height="7.307" fill="#ddb55b" data-name="Rectangle 211" rx=".402" transform="rotate(-45 672.56 -688.876)"/><rect width="7.307" height="7.307" fill="#ddb55b" data-name="Rectangle 212" rx=".402" transform="rotate(-45 698.171 -659.345)"/><rect width="7.307" height="7.307" fill="#ddb55b" data-name="Rectangle 213" rx=".402" transform="rotate(-45 693.44 -670.766)"/><rect width="7.307" height="7.307" fill="#ddb55b" data-name="Rectangle 214" rx=".402" transform="rotate(-45 688.71 -682.186)"/><rect width="7.307" height="7.307" fill="#ddb55b" data-name="Rectangle 215" rx=".402" transform="rotate(-45 683.98 -693.607)"/><rect width="7.307" height="7.307" fill="#ddb55b" data-name="Rectangle 216" rx=".402" transform="rotate(-45 709.593 -664.075)"/><rect width="7.307" height="7.307" fill="#ddb55b" data-name="Rectangle 217" rx=".402" transform="rotate(-45 704.863 -675.496)"/><rect width="7.307" height="7.307" fill="#ddb55b" data-name="Rectangle 218" rx=".402" transform="rotate(-45 700.13 -686.917)"/><rect width="7.307" height="7.307" fill="#ddb55b" data-name="Rectangle 219" rx=".402" transform="rotate(-45 695.4 -698.337)"/><rect width="7.307" height="7.307" fill="#ddb55b" data-name="Rectangle 220" rx=".402" transform="rotate(-45 721.014 -668.806)"/><rect width="7.307" height="7.307" fill="#ddb55b" data-name="Rectangle 221" rx=".402" transform="rotate(-45 716.283 -680.226)"/><rect width="7.307" height="7.307" fill="#ddb55b" data-name="Rectangle 222" rx=".402" transform="rotate(-45 711.551 -691.647)"/><rect width="7.307" height="7.307" fill="#ddb55b" data-name="Rectangle 223" rx=".402" transform="rotate(-45 706.82 -703.068)"/><path fill="#534741" d="M2.918 0H40.83a2.918 2.918 0 0 1 2.918 2.918v37.911a2.92 2.92 0 0 1-2.92 2.92H2.92A2.92 2.92 0 0 1 0 40.829V2.918A2.918 2.918 0 0 1 2.918 0Z" data-name="Rectangle 224" opacity=".1" style="mix-blend-mode:multiply;isolation:isolate" transform="rotate(90 218.804 492.724)"/><path fill="#d1aa5a" d="M711.528 274.76v37.912a2.918 2.918 0 0 1-2.918 2.918h-37.911a2.92 2.92 0 0 1-2.92-2.92v-37.908a2.92 2.92 0 0 1 2.92-2.92h37.911a2.918 2.918 0 0 1 2.918 2.918Z" data-name="Rectangle 225"/><rect width="40.011" height="40.011" fill="#f2cb6b" data-name="Rectangle 226" rx="2.203" transform="translate(669.648 273.711)"/><rect width="7.307" height="7.307" fill="#ddb55b" data-name="Rectangle 227" rx=".402" transform="translate(671.802 275.865)"/><rect width="7.307" height="7.307" fill="#ddb55b" data-name="Rectangle 228" rx=".402" transform="translate(681.263 275.865)"/><rect width="7.307" height="7.307" fill="#ddb55b" data-name="Rectangle 229" rx=".402" transform="translate(690.724 275.865)"/><rect width="7.307" height="7.307" fill="#ddb55b" data-name="Rectangle 230" rx=".402" transform="translate(700.186 275.865)"/><rect width="7.307" height="7.307" fill="#ddb55b" data-name="Rectangle 231" rx=".402" transform="translate(671.802 285.326)"/><rect width="7.307" height="7.307" fill="#ddb55b" data-name="Rectangle 232" rx=".402" transform="translate(681.263 285.326)"/><rect width="7.307" height="7.307" fill="#ddb55b" data-name="Rectangle 233" rx=".402" transform="translate(690.724 285.326)"/><rect width="7.307" height="7.307" fill="#ddb55b" data-name="Rectangle 234" rx=".402" transform="translate(700.186 285.326)"/><rect width="7.307" height="7.307" fill="#ddb55b" data-name="Rectangle 235" rx=".402" transform="translate(671.802 294.788)"/><rect width="7.307" height="7.307" fill="#ddb55b" data-name="Rectangle 236" rx=".402" transform="translate(681.263 294.788)"/><rect width="7.307" height="7.307" fill="#ddb55b" data-name="Rectangle 237" rx=".402" transform="translate(690.724 294.788)"/><rect width="7.307" height="7.307" fill="#ddb55b" data-name="Rectangle 238" rx=".402" transform="translate(700.186 294.788)"/><rect width="7.307" height="7.307" fill="#ddb55b" data-name="Rectangle 239" rx=".402" transform="translate(671.802 304.249)"/><rect width="7.307" height="7.307" fill="#ddb55b" data-name="Rectangle 240" rx=".402" transform="translate(681.263 304.249)"/><rect width="7.307" height="7.307" fill="#ddb55b" data-name="Rectangle 241" rx=".402" transform="translate(690.724 304.249)"/><rect width="7.307" height="7.307" fill="#ddb55b" data-name="Rectangle 242" rx=".402" transform="translate(700.186 304.249)"/><g data-name="Group 1160"><g data-name="Group 1159" opacity=".8"><path fill="#796fbc" d="M706.341 293.717c0 2.116-2.493 3.722-3.256 5.563-.791 1.908-.194 4.8-1.632 6.237s-4.329.84-6.237 1.631c-1.84.763-3.446 3.257-5.563 3.257s-3.722-2.494-5.563-3.257c-1.908-.791-4.8-.193-6.237-1.631s-.84-4.329-1.631-6.237c-.763-1.841-3.256-3.447-3.256-5.563s2.493-3.723 3.256-5.563c.791-1.908.194-4.8 1.631-6.237s4.329-.841 6.237-1.632c1.841-.763 3.447-3.256 5.563-3.256s3.723 2.493 5.563 3.256c1.908.792 4.8.194 6.238 1.632s.84 4.329 1.631 6.237c.763 1.84 3.256 3.446 3.256 5.563Z" data-name="Path 877"/></g><rect width="9.568" height="9.568" fill="#ddb55b" data-name="Rectangle 243" opacity=".4" rx="2.154" style="mix-blend-mode:multiply;isolation:isolate" transform="rotate(-45 697.285 -676.925)"/><rect width="9.568" height="9.568" fill="#f4e192" data-name="Rectangle 244" rx="2.154" transform="rotate(-45 695.992 -677.46)"/><path fill="#f9ebb4" d="M689.653 298.513a1.074 1.074 0 0 1-.762-.315l-3.719-3.719a1.081 1.081 0 0 1 0-1.524l3.719-3.719a1.077 1.077 0 0 1 1.524 0l3.719 3.719a1.079 1.079 0 0 1 0 1.524l-3.719 3.719a1.073 1.073 0 0 1-.762.315Z" data-name="Path 878"/><ellipse cx=".942" cy="2.154" fill="#a0754d" data-name="Ellipse 201" opacity=".7" rx=".942" ry="2.154" style="mix-blend-mode:screen;isolation:isolate" transform="rotate(-79.565 518.451 -276.88)"/></g></g></svg>