<svg xmlns="http://www.w3.org/2000/svg" width="96" height="96" viewBox="0 0 508 508"><circle cx="254" cy="254" r="254" fill="#90DFAA"/><path fill="#FFF" d="M263.3 87.5c-86.8 0-157.2 70.4-157.2 157.2 0 27.2 6.9 52.8 19.1 75.1l-19.1 82.1 82.1-19.1c22.3 12.2 47.9 19.1 75.1 19.1 86.8 0 157.2-70.4 157.2-157.2S350.1 87.5 263.3 87.5z"/><path fill="#FF7058" d="M271.6 280.3h-29.3v-15.8c0-6.9.8-12.1 2.5-15.4 1.6-3.4 5.2-7.8 10.8-13.3l18.9-18.9c4-4.3 6-9.7 6-16.1 0-6.4-2.1-11.7-6.2-15.9-4.2-4.2-9.5-6.4-16.1-6.4s-12 2-16.5 6.1c-4.4 4.1-7 9.5-7.7 16.2h-31.4c1.7-15.4 7.7-27.4 18-36.1 10.3-8.7 23.1-13.1 38.5-13.1s27.9 4.2 37.6 12.6c9.7 8.4 14.5 20.1 14.5 35.1 0 10.4-2.8 19-8.5 25.9-3.3 4.1-5.8 7.1-7.5 8.8s-4 3.9-6.9 6.6c-2.9 2.7-5.3 5-7.3 7s-3.6 3.7-4.8 5.1c-3.1 3.8-4.7 9.2-4.7 16.1v11.5h.1zm-14.1 57.6c-5.4 0-10.1-1.9-14.1-5.6s-6-8.2-6-13.5 1.9-9.8 5.8-13.6c3.9-3.8 8.6-5.7 14-5.7s10.1 1.9 14.1 5.6 5.9 8.2 5.9 13.5-1.9 9.8-5.8 13.6c-3.8 3.8-8.5 5.7-13.9 5.7z"/></svg>