<svg xmlns="http://www.w3.org/2000/svg" xml:space="preserve" width="256" height="256"><g style="stroke:none;stroke-width:0;stroke-dasharray:none;stroke-linecap:butt;stroke-linejoin:miter;stroke-miterlimit:10;fill:none;fill-rule:nonzero;opacity:1" transform="matrix(2.81 0 0 2.81 1.407 1.407)"><path d="M46.184 33.546a.5.5 0 0 1-.46-.305c-3.315-7.807-.718-17.371 6.948-25.583a.5.5 0 0 1 .73.683c-7.387 7.915-9.914 17.078-6.758 24.51a.501.501 0 0 1-.46.695z" style="stroke:none;stroke-width:1;stroke-dasharray:none;stroke-linecap:butt;stroke-linejoin:miter;stroke-miterlimit:10;fill:#333;fill-rule:nonzero;opacity:1"/><ellipse cx="38.223" cy="8.995" rx="7.023" ry="11.325" style="stroke:none;stroke-width:1;stroke-dasharray:none;stroke-linecap:butt;stroke-linejoin:miter;stroke-miterlimit:10;fill:#b9a61d;fill-rule:nonzero;opacity:1" transform="rotate(-45.001 38.222 8.994)"/><path d="M30.214.985c3.65-2.029 9.051-.881 12.974 3.042s5.071 9.324 3.042 12.974L30.214.985z" style="stroke:none;stroke-width:1;stroke-dasharray:none;stroke-linecap:butt;stroke-linejoin:miter;stroke-miterlimit:10;fill:#ceb923;fill-rule:nonzero;opacity:1"/><path d="M45 24.878C25.001 15.224 4.941 31.014 8.995 55.01 13.314 75.47 26.79 92.674 45 89.655 63.21 92.674 76.686 75.47 81.005 55.01 85.059 31.014 64.999 15.224 45 24.878z" style="stroke:none;stroke-width:1;stroke-dasharray:none;stroke-linecap:butt;stroke-linejoin:miter;stroke-miterlimit:10;fill:#e13919;fill-rule:nonzero;opacity:1"/><path d="M23.357 55.01c-1.812-17.841 4.391-31.135 12.632-32.82C19.476 20.207 5.556 34.65 8.995 55.01c4.069 19.275 16.268 35.654 32.894 34.961C32.53 89.289 25.7 73.479 23.357 55.01z" style="stroke:none;stroke-width:1;stroke-dasharray:none;stroke-linecap:butt;stroke-linejoin:miter;stroke-miterlimit:10;fill:#d13315;fill-rule:nonzero;opacity:1"/></g></svg>