<svg xmlns="http://www.w3.org/2000/svg" xml:space="preserve" width="256" height="256"><g style="stroke:none;stroke-width:0;stroke-dasharray:none;stroke-linecap:butt;stroke-linejoin:miter;stroke-miterlimit:10;fill:none;fill-rule:nonzero;opacity:1" transform="matrix(2.81 0 0 2.81 1.407 1.407)"><ellipse cx="46.887" cy="27.545" rx="19.277" ry="11.955" style="stroke:none;stroke-width:1;stroke-dasharray:none;stroke-linecap:butt;stroke-linejoin:miter;stroke-miterlimit:10;fill:#b9a61d;fill-rule:nonzero;opacity:1" transform="rotate(-66.146 46.886 27.54)"/><path d="M54.681 9.911c5.463 4.549 6.957 13.829 3.138 22.465S46.132 46.151 39.09 45.171l15.591-35.26z" style="stroke:none;stroke-width:1;stroke-dasharray:none;stroke-linecap:butt;stroke-linejoin:miter;stroke-miterlimit:10;fill:#ceb923;fill-rule:nonzero;opacity:1"/><ellipse cx="25.375" cy="27.537" rx="11.955" ry="19.277" style="stroke:none;stroke-width:1;stroke-dasharray:none;stroke-linecap:butt;stroke-linejoin:miter;stroke-miterlimit:10;fill:#b9a61d;fill-rule:nonzero;opacity:1" transform="rotate(-45.001 25.375 27.541)"/><path d="M11.745 13.91c6.214-3.454 15.407-1.499 22.084 5.178s8.632 15.87 5.178 22.084L11.745 13.91z" style="stroke:none;stroke-width:1;stroke-dasharray:none;stroke-linecap:butt;stroke-linejoin:miter;stroke-miterlimit:10;fill:#ceb923;fill-rule:nonzero;opacity:1"/><ellipse cx="18.535" cy="47.097" rx="11.955" ry="19.277" style="stroke:none;stroke-width:1;stroke-dasharray:none;stroke-linecap:butt;stroke-linejoin:miter;stroke-miterlimit:10;fill:#b9a61d;fill-rule:nonzero;opacity:1" transform="rotate(-74.008 18.533 47.097)"/><path d="M0 41.786c3.759-6.034 12.747-8.783 21.824-6.182 9.077 2.601 15.246 9.693 15.238 16.802L0 41.786z" style="stroke:none;stroke-width:1;stroke-dasharray:none;stroke-linecap:butt;stroke-linejoin:miter;stroke-miterlimit:10;fill:#ceb923;fill-rule:nonzero;opacity:1"/><circle cx="56.358" cy="50.718" r="13.108" style="stroke:none;stroke-width:1;stroke-dasharray:none;stroke-linecap:butt;stroke-linejoin:miter;stroke-miterlimit:10;fill:#e13919;fill-rule:nonzero;opacity:1"/><path d="M47.25 50.723c0-6.874 4.486-12.502 10.191-13.054a13.352 13.352 0 0 0-1.083-.055c-7.24 0-13.108 5.869-13.108 13.108S49.119 63.83 56.358 63.83c.365 0 .725-.025 1.083-.055-5.704-.551-10.191-6.178-10.191-13.052z" style="stroke:none;stroke-width:1;stroke-dasharray:none;stroke-linecap:butt;stroke-linejoin:miter;stroke-miterlimit:10;fill:#d13315;fill-rule:nonzero;opacity:1"/><circle cx="76.888" cy="60.318" r="13.108" style="stroke:none;stroke-width:1;stroke-dasharray:none;stroke-linecap:butt;stroke-linejoin:miter;stroke-miterlimit:10;fill:#e13919;fill-rule:nonzero;opacity:1"/><circle cx="53.118" cy="67.098" r="13.108" style="stroke:none;stroke-width:1;stroke-dasharray:none;stroke-linecap:butt;stroke-linejoin:miter;stroke-miterlimit:10;fill:#e13919;fill-rule:nonzero;opacity:1"/><circle cx="36.868" cy="52.618" r="13.108" style="stroke:none;stroke-width:1;stroke-dasharray:none;stroke-linecap:butt;stroke-linejoin:miter;stroke-miterlimit:10;fill:#e13919;fill-rule:nonzero;opacity:1"/><path d="M67.783 60.317c0-6.874 4.486-12.502 10.191-13.054a13.352 13.352 0 0 0-1.083-.055c-7.24 0-13.108 5.869-13.108 13.108s5.869 13.108 13.108 13.108c.365 0 .725-.025 1.083-.055-5.704-.55-10.191-6.178-10.191-13.052zM44.011 67.1c0-6.874 4.486-12.502 10.191-13.054a13.352 13.352 0 0 0-1.083-.055c-7.24 0-13.108 5.869-13.108 13.108S45.88 80.208 53.12 80.208c.365 0 .725-.025 1.083-.055-5.705-.551-10.192-6.179-10.192-13.053zM27.756 52.617c0-6.874 4.486-12.502 10.191-13.054a13.352 13.352 0 0 0-1.083-.055c-7.24 0-13.108 5.869-13.108 13.108s5.869 13.108 13.108 13.108c.365 0 .725-.025 1.083-.055-5.705-.55-10.191-6.178-10.191-13.052z" style="stroke:none;stroke-width:1;stroke-dasharray:none;stroke-linecap:butt;stroke-linejoin:miter;stroke-miterlimit:10;fill:#d13315;fill-rule:nonzero;opacity:1"/><circle cx="50.78" cy="73.09" r="1.99" style="stroke:none;stroke-width:1;stroke-dasharray:none;stroke-linecap:butt;stroke-linejoin:miter;stroke-miterlimit:10;fill:#353231;fill-rule:nonzero;opacity:1"/><circle cx="84.78" cy="60.09" r="1.99" style="stroke:none;stroke-width:1;stroke-dasharray:none;stroke-linecap:butt;stroke-linejoin:miter;stroke-miterlimit:10;fill:#353231;fill-rule:nonzero;opacity:1"/><circle cx="34.78" cy="58.09" r="1.99" style="stroke:none;stroke-width:1;stroke-dasharray:none;stroke-linecap:butt;stroke-linejoin:miter;stroke-miterlimit:10;fill:#353231;fill-rule:nonzero;opacity:1"/><circle cx="64.78" cy="47.09" r="1.99" style="stroke:none;stroke-width:1;stroke-dasharray:none;stroke-linecap:butt;stroke-linejoin:miter;stroke-miterlimit:10;fill:#353231;fill-rule:nonzero;opacity:1"/></g></svg>