<svg xmlns="http://www.w3.org/2000/svg" xml:space="preserve" width="256" height="256"><g style="stroke:none;stroke-width:0;stroke-dasharray:none;stroke-linecap:butt;stroke-linejoin:miter;stroke-miterlimit:10;fill:none;fill-rule:nonzero;opacity:1"><path d="M61.474 29.863c-2.288.813-4.97.729-7.296-.324-2.309-1.035-4.34-2.993-5.155-5.567-.397-1.274-.493-2.686-.15-4.002.078-.336.178-.624.296-.961.119-.335.302-.674.516-.972a4.647 4.647 0 0 1 1.618-1.424c2.563-1.288 5.527-.515 7.384 1.183l-.604.555c-.832-1.353-1.314-3.056-.82-4.65a4.166 4.166 0 0 1 1.35-2.017c.626-.527 1.373-.889 2.148-1.106l.011-.003.046-.007c2.078-.294 4.241.449 5.894 1.741 1.688 1.286 2.876 3.101 3.683 5.023 1.543 3.88 1.504 8.421-.261 12.259-.42.965-.959 1.874-1.572 2.721-.299.434-.623.834-.954 1.222-.35.404-.572.747-.876 1.117-1.132 1.48-1.998 3.142-2.397 4.917-.41 1.773-.292 3.674.201 5.521.503 1.847 1.26 3.663 2.093 5.451l-.173.1c-1.129-1.623-2.174-3.334-2.908-5.231-.348-.953-.657-1.941-.791-2.977-.1-.513-.1-1.041-.135-1.567.036-.524.02-1.061.125-1.58.292-2.114 1.209-4.074 2.373-5.783.292-.414.62-.889.902-1.241.298-.37.581-.745.828-1.131.522-.763.948-1.58 1.331-2.413a15.458 15.458 0 0 0 1.312-5.315 14.164 14.164 0 0 0-.749-5.446c-.59-1.746-1.55-3.381-2.87-4.66-1.315-1.274-3.112-2.084-4.989-1.987l.057-.01c-.697.162-1.371.437-1.924.877-.546.44-.98 1.027-1.176 1.704a4.032 4.032 0 0 0-.017 2.092c.186.687.514 1.337.943 1.914l1.659 2.23-2.264-1.675c-1.797-1.33-4.378-1.55-6.047-.43-.403.276-.754.601-.99.995a3.104 3.104 0 0 0-.293.624c-.075.228-.17.508-.222.756a6.243 6.243 0 0 0 .074 3.086c.584 2.036 2.129 3.814 4.071 4.92 1.945 1.124 4.305 1.584 6.67 1.276l.048.195zm17.41 19.288c2.032.212 4.03-.189 5.67-1.162 1.638-.952 2.927-2.464 3.411-4.17a5.29 5.29 0 0 0 .058-2.579c-.042-.206-.124-.445-.185-.633a2.554 2.554 0 0 0-.235-.51c-.189-.322-.473-.59-.804-.82-1.368-.929-3.547-.813-5.085.313l-2.369 1.735 1.765-2.29c.739-.959 1.147-2.231.802-3.387-.165-.572-.533-1.067-.995-1.438-.468-.371-1.041-.6-1.632-.735l.057.01a5.56 5.56 0 0 0-3.424 1.067c-.99.703-1.756 1.686-2.352 2.741a11.9 11.9 0 0 0-1.401 7.059 13.567 13.567 0 0 0 2.693 6.683c1.634 2.082 2.934 4.967 2.456 7.711l-.2.011c-.744-2.579-2.192-4.525-3.876-6.469-1.786-2.145-2.968-4.926-3.105-7.765-.176-2.823.472-5.725 2.07-8.08.797-1.17 1.85-2.188 3.103-2.875 1.242-.703 2.71-1.006 4.102-.822l.044.006.014.004c.67.19 1.315.506 1.857.964a3.627 3.627 0 0 1 1.169 1.751c.429 1.382.016 2.856-.695 4.031l-.604-.555a6.143 6.143 0 0 1 2.959-1.506c1.117-.228 2.354-.143 3.464.437.55.29 1.052.718 1.431 1.252.189.262.354.563.458.857.104.297.19.544.259.838.302 1.149.214 2.384-.134 3.494-.715 2.244-2.49 3.934-4.495 4.816-2.019.892-4.342.958-6.296.209l.045-.193z" style="stroke:none;stroke-width:1;stroke-dasharray:none;stroke-linecap:butt;stroke-linejoin:miter;stroke-miterlimit:10;fill:#e2e1e0;fill-rule:nonzero;opacity:1" transform="matrix(2.82 0 0 2.82 1.408 1.408)"/><path d="M56.628 45.919a6.587 6.587 0 0 1-1.699-2.283 6.6 6.6 0 0 1-.589-2.861c.064-1.986.97-3.825 2.288-5.158-.649 1.767-1.255 3.451-1.288 5.184-.03.861.093 1.719.32 2.569.232.851.584 1.684.968 2.549z" style="stroke:none;stroke-width:1;stroke-dasharray:none;stroke-linecap:butt;stroke-linejoin:miter;stroke-miterlimit:10;fill:#e2e1e0;fill-rule:nonzero;opacity:1" transform="matrix(2.82 0 0 2.82 1.408 1.408)"/><path d="M42.273 52.449c-23.377 0-42.328 9.51-42.328 21.241 0 3.132 2.563 5.695 5.695 5.695h73.266c3.132 0 5.695-2.563 5.695-5.695.001-11.731-18.95-21.241-42.328-21.241z" style="stroke:none;stroke-width:1;stroke-dasharray:none;stroke-linecap:butt;stroke-linejoin:miter;stroke-miterlimit:10;fill:#b9791c;fill-rule:nonzero;opacity:1" transform="matrix(2.82 0 0 2.82 1.408 1.408)"/><path d="M13.21 76.862c-3.132 0-5.695-2.563-5.695-5.695 0-6.565 5.937-12.432 15.26-16.328C9.213 58.379-.055 65.489-.055 73.69c0 3.132 2.563 5.695 5.695 5.695h73.266a5.7 5.7 0 0 0 4.722-2.523H13.21z" style="stroke:none;stroke-width:1;stroke-dasharray:none;stroke-linecap:butt;stroke-linejoin:miter;stroke-miterlimit:10;fill:#996313;fill-rule:nonzero;opacity:1" transform="matrix(2.82 0 0 2.82 1.408 1.408)"/><path d="M73.167 74.382h7.899c-.42-7.959-9.544-14.826-22.79-18.283 9.323 3.897 15.446 14.298 14.891 18.283zm-15.139 0h7.899c-.292-7.959-6.639-14.826-15.853-18.283 6.485 3.897 8.701 16.004 7.954 18.283zm-14.324 0h7.81c-.194-7.959-4.402-14.826-10.51-18.283 4.3 3.897 3.196 16.004 2.7 18.283z" style="stroke:none;stroke-width:1;stroke-dasharray:none;stroke-linecap:butt;stroke-linejoin:miter;stroke-miterlimit:10;fill:#996313;fill-rule:nonzero;opacity:1" transform="matrix(2.82 0 0 2.82 1.408 1.408)"/></g></svg>