<svg xmlns="http://www.w3.org/2000/svg" xml:space="preserve" width="256" height="256"><g style="stroke:none;stroke-width:0;stroke-dasharray:none;stroke-linecap:butt;stroke-linejoin:miter;stroke-miterlimit:10;fill:none;fill-rule:nonzero;opacity:1" transform="matrix(2.82 0 0 2.82 1.41 1.41)"><path d="m87.37 69.979-6.39 12.785a3.131 3.131 0 0 1-2.801 1.731H10.412a3.131 3.131 0 0 1-2.801-1.731l-6.39-12.785H87.37z" style="stroke:none;stroke-width:1;stroke-dasharray:none;stroke-linecap:butt;stroke-linejoin:miter;stroke-miterlimit:10;fill:#f2f2f2;fill-rule:nonzero;opacity:1"/><path d="M48.512 82.387H28.377c-2.131-3.659-3.725-7.833-4.902-12.408H1.222l6.39 12.785a3.131 3.131 0 0 0 2.801 1.731h67.768c1.186 0 2.271-.67 2.801-1.731l.188-.377H48.512z" style="stroke:none;stroke-width:1;stroke-dasharray:none;stroke-linecap:butt;stroke-linejoin:miter;stroke-miterlimit:10;fill:#e2e1e0;fill-rule:nonzero;opacity:1"/><path d="M79.922 66.775H9.078v-1.447c0-14.714 12.039-26.753 26.753-26.753h17.338c14.714 0 26.753 12.039 26.753 26.753v1.447z" style="stroke:none;stroke-width:1;stroke-dasharray:none;stroke-linecap:butt;stroke-linejoin:miter;stroke-miterlimit:10;fill:#b9791c;fill-rule:nonzero;opacity:1"/><path d="M34.876 38.685c-14.766.653-26.319 12.577-25.798 28.09h13.703v-4.984c0-9.533 4.799-17.995 12.095-23.106z" style="stroke:none;stroke-width:1;stroke-dasharray:none;stroke-linecap:butt;stroke-linejoin:miter;stroke-miterlimit:10;fill:#996313;fill-rule:nonzero;opacity:1"/><path d="M87.937 64.822c-1.29-1.994-3.873-3.357-6.855-3.357s-5.565 1.363-6.855 3.357c-1.527 2.247-3.054 2.247-4.581 0-1.29-1.994-3.873-3.357-6.855-3.357s-5.565 1.363-6.855 3.357c-1.526 2.18-3.058 2.314-4.581 0-1.29-1.994-3.873-3.357-6.855-3.357s-5.565 1.363-6.855 3.357c-1.523 2.314-3.055 2.18-4.581 0-1.29-1.994-3.873-3.357-6.855-3.357s-5.565 1.363-6.855 3.357c-1.527 2.247-3.054 2.247-4.581 0-1.29-1.994-3.873-3.357-6.855-3.357s-5.565 1.363-6.855 3.357c-1.536 2.706-1.639 5.962 1.249 5.962h84.376c2.889 0 2.785-3.256 1.249-5.962z" style="stroke:none;stroke-width:1;stroke-dasharray:none;stroke-linecap:butt;stroke-linejoin:miter;stroke-miterlimit:10;fill:#e5a83d;fill-rule:nonzero;opacity:1"/><circle cx="36.402" cy="44.362" r="1.562" style="stroke:none;stroke-width:1;stroke-dasharray:none;stroke-linecap:butt;stroke-linejoin:miter;stroke-miterlimit:10;fill:#996313;fill-rule:nonzero;opacity:1"/><circle cx="46.942" cy="44.362" r="1.562" style="stroke:none;stroke-width:1;stroke-dasharray:none;stroke-linecap:butt;stroke-linejoin:miter;stroke-miterlimit:10;fill:#996313;fill-rule:nonzero;opacity:1"/><circle cx="58.542" cy="44.362" r="1.562" style="stroke:none;stroke-width:1;stroke-dasharray:none;stroke-linecap:butt;stroke-linejoin:miter;stroke-miterlimit:10;fill:#996313;fill-rule:nonzero;opacity:1"/><circle cx="31.132" cy="50.692" r="1.562" style="stroke:none;stroke-width:1;stroke-dasharray:none;stroke-linecap:butt;stroke-linejoin:miter;stroke-miterlimit:10;fill:#996313;fill-rule:nonzero;opacity:1"/><circle cx="41.672" cy="50.692" r="1.562" style="stroke:none;stroke-width:1;stroke-dasharray:none;stroke-linecap:butt;stroke-linejoin:miter;stroke-miterlimit:10;fill:#996313;fill-rule:nonzero;opacity:1"/><circle cx="52.212" cy="50.692" r="1.562" style="stroke:none;stroke-width:1;stroke-dasharray:none;stroke-linecap:butt;stroke-linejoin:miter;stroke-miterlimit:10;fill:#996313;fill-rule:nonzero;opacity:1"/><circle cx="64.272" cy="50.692" r="1.562" style="stroke:none;stroke-width:1;stroke-dasharray:none;stroke-linecap:butt;stroke-linejoin:miter;stroke-miterlimit:10;fill:#996313;fill-rule:nonzero;opacity:1"/><path d="M22.781 62.111c-1.411.591-2.692 1.574-3.427 2.711-1.527 2.247-3.054 2.247-4.581 0-1.29-1.994-3.873-3.357-6.855-3.357s-5.565 1.363-6.855 3.357c-1.536 2.706-1.639 5.962 1.249 5.962h21.352c-.654-2.358-.957-7.515-.883-8.673z" style="stroke:none;stroke-width:1;stroke-dasharray:none;stroke-linecap:butt;stroke-linejoin:miter;stroke-miterlimit:10;fill:#d69b33;fill-rule:nonzero;opacity:1"/><path d="M65.881 21.572c-1.905.736-4.174.676-6.147-.193-1.959-.859-3.696-2.509-4.396-4.704-.341-1.085-.427-2.295-.131-3.418.068-.288.152-.529.253-.819a3.46 3.46 0 0 1 .449-.84 3.992 3.992 0 0 1 1.403-1.224c2.214-1.09 4.722-.399 6.278 1.05l-.603.554c-.693-1.148-1.096-2.588-.676-3.938a3.548 3.548 0 0 1 1.142-1.711 4.853 4.853 0 0 1 1.813-.943l.008-.002.049-.007c1.753-.262 3.589.353 4.998 1.435 1.431 1.079 2.477 2.593 3.147 4.225 1.308 3.275 1.301 7.117-.197 10.366a12.177 12.177 0 0 1-1.333 2.299 12.29 12.29 0 0 1-.808 1.028c-.298.341-.475.618-.73.923-.943 1.218-1.662 2.582-2.005 4.038-.347 1.455-.276 3.024.119 4.563.401 1.539 1.011 3.065 1.682 4.572l-.173.1c-.967-1.343-1.864-2.764-2.496-4.353-.608-1.577-1.005-3.379-.718-5.167.235-1.794 1.006-3.456 1.981-4.902.503-.772 1.037-1.348 1.438-1.985.428-.63.775-1.306 1.092-1.991a12.983 12.983 0 0 0 1.092-4.375 11.606 11.606 0 0 0-.6-4.492c-.497-1.432-1.246-2.801-2.329-3.865-1.071-1.063-2.542-1.745-4.095-1.68l.057-.01c-.576.131-1.133.353-1.589.714-.45.361-.807.842-.968 1.398-.336 1.124.062 2.362.783 3.295l1.735 2.243-2.338-1.689c-1.497-1.081-3.622-1.22-4.943-.298-.319.226-.595.484-.776.796a2.52 2.52 0 0 0-.226.493c-.059.182-.138.415-.179.614a5.144 5.144 0 0 0 .055 2.504c.469 1.657 1.72 3.129 3.313 4.058 1.595.95 3.539 1.344 5.522 1.144l.047.194zm14.546 16.084c1.704.133 3.347-.229 4.686-1.048 1.339-.801 2.376-2.049 2.762-3.43.188-.69.193-1.399.043-2.08-.097-.363-.187-.678-.329-.909a2.298 2.298 0 0 0-.619-.652c-.53-.365-1.251-.559-1.993-.529-.742.033-1.491.294-2.147.729l-2.19 1.451 1.587-2.005c.62-.783.96-1.83.679-2.777-.275-.953-1.185-1.583-2.162-1.771l.057.01a4.559 4.559 0 0 0-2.806.912c-.806.589-1.422 1.407-1.904 2.279a9.855 9.855 0 0 0-1.116 5.814 11.387 11.387 0 0 0 2.217 5.495c1.361 1.751 2.435 4.238 1.936 6.545l-.2.011c-.721-2.142-1.943-3.691-3.354-5.303-1.517-1.806-2.525-4.17-2.628-6.576-.139-2.392.415-4.848 1.784-6.835.683-.987 1.586-1.841 2.654-2.413 1.059-.586 2.307-.832 3.483-.667l.047.007.011.003a4.256 4.256 0 0 1 1.57.824c.463.383.82.908.991 1.489.366 1.173.02 2.421-.572 3.42l-.604-.554a5.311 5.311 0 0 1 2.503-1.303c.952-.205 2.008-.139 2.975.349.478.251.907.626 1.244 1.084.357.474.497 1.004.625 1.461.261.984.181 2.046-.119 2.994-.617 1.918-2.14 3.345-3.844 4.075-1.718.738-3.684.766-5.311.097l.044-.197z" style="stroke:none;stroke-width:1;stroke-dasharray:none;stroke-linecap:butt;stroke-linejoin:miter;stroke-miterlimit:10;fill:#e2e1e0;fill-rule:nonzero;opacity:1"/><path d="M61.828 34.971a5.249 5.249 0 0 1-1.48-1.885 5.424 5.424 0 0 1-.514-2.414c.056-1.68.838-3.23 1.993-4.308-.488 1.511-.97 2.906-.994 4.334-.027.709.071 1.415.245 2.123.181.707.456 1.407.75 2.15z" style="stroke:none;stroke-width:1;stroke-dasharray:none;stroke-linecap:butt;stroke-linejoin:miter;stroke-miterlimit:10;fill:#e2e1e0;fill-rule:nonzero;opacity:1"/></g></svg>