<svg xmlns="http://www.w3.org/2000/svg" xml:space="preserve" width="256" height="256"><g style="stroke:none;stroke-width:0;stroke-dasharray:none;stroke-linecap:butt;stroke-linejoin:miter;stroke-miterlimit:10;fill:none;fill-rule:nonzero;opacity:1" transform="matrix(2.81 0 0 2.81 1.407 1.407)"><path d="M44.403 66.312C21.423 64.555 22.226 45.81 24.837 23.56c.415-4.093-.062-7.185-1.312-9.406 5.513 1.662 9.862 5.1 11.655 12.439 5.863-7.645 8.687-16.562 10.063-26.084 5.346 1.517 9.401 8.095 7.793 19.883-.74 4.446.445 8.434 1.608 12.012.54-7.247 3.421-12.612 8.991-15.817-.685 4.259-1.169 7.84 0 11.603 3.788 11.078 5.439 36.441-19.232 38.122z" style="stroke:none;stroke-width:1;stroke-dasharray:none;stroke-linecap:butt;stroke-linejoin:miter;stroke-miterlimit:10;fill:#e13919;fill-rule:nonzero;opacity:1"/><path d="M47.204 25.228c-.956 3.349-2.322 6.703-5.375 9.744-7.216 7.015-9.112 11.472-10.847 15.567-1.729 7.514 4.451 11.785 13.519 12.123 9.327.383 12.202-2.365 12.669-10.382.273-7.424-2.051-13.099-6.491-17.307-.224 1.666-.9 3.339-2.117 5.019.557-6.094.33-11.277-1.358-14.764z" style="stroke:none;stroke-width:1;stroke-dasharray:none;stroke-linecap:butt;stroke-linejoin:miter;stroke-miterlimit:10;fill:#f7b239;fill-rule:nonzero;opacity:1"/><path d="M84.592 58.483H5.408C2.421 58.483 0 65.424 0 73.987S2.421 89.49 5.408 89.49h79.183V58.483z" style="stroke:none;stroke-width:1;stroke-dasharray:none;stroke-linecap:butt;stroke-linejoin:miter;stroke-miterlimit:10;fill:#996313;fill-rule:nonzero;opacity:1"/><ellipse cx="84.588" cy="73.984" rx="5.408" ry="15.504" style="stroke:none;stroke-width:1;stroke-dasharray:none;stroke-linecap:butt;stroke-linejoin:miter;stroke-miterlimit:10;fill:#d69b33;fill-rule:nonzero;opacity:1"/><path d="M30.982 69.927H7.907a.5.5 0 0 1 0-1h23.076a.5.5 0 1 1-.001 1zm19.385 9.94H36.666a.5.5 0 0 1 0-1h13.701a.5.5 0 0 1 0 1zm23.429-12.485H57.931a.5.5 0 0 1 0-1h15.865a.5.5 0 0 1 0 1z" style="stroke:none;stroke-width:1;stroke-dasharray:none;stroke-linecap:butt;stroke-linejoin:miter;stroke-miterlimit:10;fill:#d69b33;fill-rule:nonzero;opacity:1"/><path d="M84.592 81.147c-1.733 0-2.641-3.602-2.641-7.16s.907-7.161 2.641-7.161 2.641 3.603 2.641 7.161-.908 7.16-2.641 7.16zm0-13.321c-.557 0-1.641 2.175-1.641 6.161 0 3.985 1.084 6.16 1.641 6.16s1.641-2.175 1.641-6.16c-.001-3.986-1.085-6.161-1.641-6.161z" style="stroke:none;stroke-width:1;stroke-dasharray:none;stroke-linecap:butt;stroke-linejoin:miter;stroke-miterlimit:10;fill:#996313;fill-rule:nonzero;opacity:1"/><path d="M74.029 84.618h-4.467a.5.5 0 0 1 0-1h4.467a.5.5 0 0 1 0 1zm-58.596-3.167h-4.466a.5.5 0 0 1 0-1h4.466a.5.5 0 0 1 0 1zm30.09-17.42h-4.466a.5.5 0 0 1 0-1h4.466a.5.5 0 0 1 0 1z" style="stroke:none;stroke-width:1;stroke-dasharray:none;stroke-linecap:butt;stroke-linejoin:miter;stroke-miterlimit:10;fill:#d69b33;fill-rule:nonzero;opacity:1"/></g></svg>