<svg xmlns="http://www.w3.org/2000/svg" xml:space="preserve" width="256" height="256"><g style="stroke:none;stroke-width:0;stroke-dasharray:none;stroke-linecap:butt;stroke-linejoin:miter;stroke-miterlimit:10;fill:none;fill-rule:nonzero;opacity:1"><path d="M44.96 0c-.515 2.172-.692 4.047-2.896 6.321-4.179 4.17-5.192 7.071-5.844 10.099-.932 4.874 2.398 7.645 7.284 7.864 3.859 0 6.838-2.269 6.826-6.735.147-4.816-1.105-8.497-3.497-11.228-.121 1.081-.485 2.166-1.14 3.256.299-3.953.177-7.315-.733-9.577z" style="stroke:none;stroke-width:1;stroke-dasharray:none;stroke-linecap:butt;stroke-linejoin:miter;stroke-miterlimit:10;fill:#f77d2b;fill-rule:nonzero;opacity:1" transform="matrix(2.91 0 0 2.91 1.455 1.455)"/><path d="M46.025 86.147h-5.643c-3.898 0-7.087-3.189-7.087-7.087V33.129c0-3.898 3.189-7.087 7.087-7.087h5.643c3.898 0 7.087 3.189 7.087 7.087V79.06c-.001 3.898-3.19 7.087-7.087 7.087z" style="stroke:none;stroke-width:1;stroke-dasharray:none;stroke-linecap:butt;stroke-linejoin:miter;stroke-miterlimit:10;fill:#f8dcb0;fill-rule:nonzero;opacity:1" transform="matrix(2.91 0 0 2.91 1.455 1.455)"/><path d="M46.025 26.043h-5.643c-3.898 0-7.087 3.189-7.087 7.087v3.521h19.817V33.13c-.001-3.898-3.19-7.087-7.087-7.087z" style="stroke:none;stroke-width:1;stroke-dasharray:none;stroke-linecap:butt;stroke-linejoin:miter;stroke-miterlimit:10;fill:#ebcd9e;fill-rule:nonzero;opacity:1" transform="matrix(2.91 0 0 2.91 1.455 1.455)"/><path d="M39.295 79.16V33.03c0-3.784 3.093-6.884 6.908-6.979-.06-.002-.118-.009-.178-.009h-5.643c-3.898 0-7.087 3.144-7.087 6.987v46.13c0 3.843 3.189 6.987 7.087 6.987h5.643c.06 0 .118-.007.178-.009-3.816-.094-6.908-3.193-6.908-6.977zm9.095-26.492a1.578 1.578 0 0 1-1.574-1.574V36.677c0-.866.708-1.574 1.574-1.574.866 0 1.574.708 1.574 1.574v14.417c0 .866-.708 1.574-1.574 1.574z" style="stroke:none;stroke-width:1;stroke-dasharray:none;stroke-linecap:butt;stroke-linejoin:miter;stroke-miterlimit:10;fill:#ebcd9e;fill-rule:nonzero;opacity:1" transform="matrix(2.91 0 0 2.91 1.455 1.455)"/><path d="M51.537 48.912a1.578 1.578 0 0 1-1.574-1.574V32.92c0-.866.708-1.574 1.574-1.574.866 0 1.574.708 1.574 1.574v14.417a1.58 1.58 0 0 1-1.574 1.575zm-6.294-.625a1.578 1.578 0 0 1-1.574-1.574V32.296c0-.866.708-1.574 1.574-1.574.866 0 1.574.708 1.574 1.574v14.417a1.58 1.58 0 0 1-1.574 1.574zm-3.148-4.061a1.578 1.578 0 0 1-1.574-1.574V28.235c0-.866.708-1.574 1.574-1.574.866 0 1.574.708 1.574 1.574v14.417c0 .866-.708 1.574-1.574 1.574z" style="stroke:none;stroke-width:1;stroke-dasharray:none;stroke-linecap:butt;stroke-linejoin:miter;stroke-miterlimit:10;fill:#ebcd9e;fill-rule:nonzero;opacity:1" transform="matrix(2.91 0 0 2.91 1.455 1.455)"/><path d="M38.948 49.505a1.578 1.578 0 0 1-1.574-1.574V33.514c0-.866.708-1.574 1.574-1.574.866 0 1.574.708 1.574 1.574v14.417a1.58 1.58 0 0 1-1.574 1.574z" style="stroke:none;stroke-width:1;stroke-dasharray:none;stroke-linecap:butt;stroke-linejoin:miter;stroke-miterlimit:10;fill:#ebcd9e;fill-rule:nonzero;opacity:1" transform="matrix(2.91 0 0 2.91 1.455 1.455)"/><path d="M64.854 87H22.146a3.684 3.684 0 0 1-3.673-3.673 3.684 3.684 0 0 1 3.673-3.673h42.708a3.684 3.684 0 0 1 3.673 3.673A3.684 3.684 0 0 1 64.854 87z" style="stroke:none;stroke-width:1;stroke-dasharray:none;stroke-linecap:butt;stroke-linejoin:miter;stroke-miterlimit:10;fill:#b9791c;fill-rule:nonzero;opacity:1" transform="matrix(2.91 0 0 2.91 1.455 1.455)"/><path d="M43.042 32.94a1 1 0 0 1-1-1V21.284a1 1 0 1 1 2 0V31.94a1 1 0 0 1-1 1z" style="stroke:none;stroke-width:1;stroke-dasharray:none;stroke-linecap:butt;stroke-linejoin:miter;stroke-miterlimit:10;fill:#ebcd9e;fill-rule:nonzero;opacity:1" transform="matrix(2.91 0 0 2.91 1.455 1.455)"/><path d="M44.139 11.35c-.274 1.157-.369 2.156-1.543 3.367-2.226 2.221-2.765 3.766-3.113 5.379-.496 2.596 1.277 4.072 3.88 4.189 2.055 0 3.642-1.208 3.636-3.587.078-2.565-.589-4.526-1.863-5.98a4.247 4.247 0 0 1-.607 1.734c.16-2.107.094-3.898-.39-5.102z" style="stroke:none;stroke-width:1;stroke-dasharray:none;stroke-linecap:butt;stroke-linejoin:miter;stroke-miterlimit:10;fill:#f7b239;fill-rule:nonzero;opacity:1" transform="matrix(2.91 0 0 2.91 1.455 1.455)"/><path d="M27.146 85.327a3.684 3.684 0 0 1-3.673-3.673v-2h-1.327c-2.02 0-3.673 1.653-3.673 3.673S20.126 87 22.146 87h42.708a3.674 3.674 0 0 0 3.071-1.673H27.146z" style="stroke:none;stroke-width:1;stroke-dasharray:none;stroke-linecap:butt;stroke-linejoin:miter;stroke-miterlimit:10;fill:#996313;fill-rule:nonzero;opacity:1" transform="matrix(2.91 0 0 2.91 1.455 1.455)"/></g></svg>