<svg xmlns="http://www.w3.org/2000/svg" xml:space="preserve" width="256" height="256"><g style="stroke:none;stroke-width:0;stroke-dasharray:none;stroke-linecap:butt;stroke-linejoin:miter;stroke-miterlimit:10;fill:none;fill-rule:nonzero;opacity:1" transform="matrix(2.81 0 0 2.81 1.407 1.407)"><path d="M48.195 69.703c-5.617 0-10.17-4.553-10.17-10.17l-9.257.127c0 .225.004.45.011.674.355 10.417 8.912 18.754 19.416 18.754" style="stroke:none;stroke-width:1;stroke-dasharray:none;stroke-linecap:butt;stroke-linejoin:miter;stroke-miterlimit:10;fill:#f8dcb0;fill-rule:nonzero;opacity:1"/><path d="M34.866 62.363a18.843 18.843 0 0 1-.011-.673l3.392-.046a10.183 10.183 0 0 1-.222-2.109l-9.257.127c0 .225.004.45.011.673.32 9.379 7.295 17.049 16.346 18.489-5.925-3.174-10.016-9.328-10.259-16.461z" style="stroke:none;stroke-width:1;stroke-dasharray:none;stroke-linecap:butt;stroke-linejoin:miter;stroke-miterlimit:10;fill:#f4d7a9;fill-rule:nonzero;opacity:1"/><path d="M89.53 71.808c.579-2.942-.513-4.9-1.188-8.352-.673-3.059.85-3.901-.648-7.049-1.199-2.443-5.688-3.714-7.085-4.897-1.98-1.727-2.968-4.525-5.533-5.605-2.564-1.083-5.257.162-7.876-.051-1.822-.175-5.865-2.503-8.452-1.657-3.3 1.124-2.841 2.802-5.501 4.455-2.944 1.926-5.109 2.51-6.811 4.977-1.388 2.133 1.56 6.64 1.253 10.084l16.935 6.967 16.809 7.268c2.252-2.624 7.538-3.658 8.097-6.14z" style="stroke:none;stroke-width:1;stroke-dasharray:none;stroke-linecap:butt;stroke-linejoin:miter;stroke-miterlimit:10;fill:#e13919;fill-rule:nonzero;opacity:1"/><path d="m64.624 70.68 6.857 2.965c4.346-10.854.83-22.537-7.991-26.258-2.52-1.063-5.204-1.363-7.863-.999-.58.721-1.142 1.495-2.379 2.263-2.944 1.926-5.109 2.51-6.811 4.977-1.388 2.133 1.56 6.64 1.253 10.084l16.934 6.968z" style="stroke:none;stroke-width:1;stroke-dasharray:none;stroke-linecap:butt;stroke-linejoin:miter;stroke-miterlimit:10;fill:#d13315;fill-rule:nonzero;opacity:1"/><circle cx="64.202" cy="71.682" r="18.312" style="stroke:none;stroke-width:1;stroke-dasharray:none;stroke-linecap:butt;stroke-linejoin:miter;stroke-miterlimit:10;fill:#f8dcb0;fill-rule:nonzero;opacity:1"/><path d="M50.216 76.061c4.531-10.74 12.282-18.58 20.252-21.583-9.112-3.327-19.327 1.052-23.139 10.088-2.344 5.556-1.736 11.616 1.11 16.438a48.81 48.81 0 0 1 1.777-4.943z" style="stroke:none;stroke-width:1;stroke-dasharray:none;stroke-linecap:butt;stroke-linejoin:miter;stroke-miterlimit:10;fill:#f4d7a9;fill-rule:nonzero;opacity:1"/><circle cx="60.549" cy="66.769" r="2.019" style="stroke:none;stroke-width:1;stroke-dasharray:none;stroke-linecap:butt;stroke-linejoin:miter;stroke-miterlimit:10;fill:#cda058;fill-rule:nonzero;opacity:1"/><circle cx="69.929" cy="70.729" r="2.019" style="stroke:none;stroke-width:1;stroke-dasharray:none;stroke-linecap:butt;stroke-linejoin:miter;stroke-miterlimit:10;fill:#cda058;fill-rule:nonzero;opacity:1"/><path d="M71.249 77.885a9.084 9.084 0 0 1-11.901 4.839 9.084 9.084 0 0 1-4.839-11.901" style="stroke:none;stroke-width:1;stroke-dasharray:none;stroke-linecap:butt;stroke-linejoin:miter;stroke-miterlimit:10;fill:#cda058;fill-rule:nonzero;opacity:1"/><path d="M47.329 64.566c3.812-9.036 14.027-13.416 23.139-10.089.285.104.568.215.85.334-3.682 3.85-7.934 6.839-13.096 8.457-3.244 1.017-6.847 1.492-10.893 1.298zM81.073 78.801c3.931-9.318-.436-20.059-9.755-23.989-.305 8.668 2.077 16.829 9.755 23.989z" style="stroke:none;stroke-width:1;stroke-dasharray:none;stroke-linecap:butt;stroke-linejoin:miter;stroke-miterlimit:10;fill:#e5a83d;fill-rule:nonzero;opacity:1"/><path d="M70.468 54.477c-9.112-3.327-19.327 1.053-23.139 10.089 4.046.194 7.649-.281 10.893-1.297 3.022-3.629 7.292-6.436 12.246-8.792z" style="stroke:none;stroke-width:1;stroke-dasharray:none;stroke-linecap:butt;stroke-linejoin:miter;stroke-miterlimit:10;fill:#d69b33;fill-rule:nonzero;opacity:1"/><path d="M44.952 50.332c0 6.791-5.505 12.296-12.296 12.296S20.36 57.123 20.36 50.332" style="stroke:none;stroke-width:1;stroke-dasharray:none;stroke-linecap:butt;stroke-linejoin:miter;stroke-miterlimit:10;fill:#f8dcb0;fill-rule:nonzero;opacity:1"/><path d="M27.413 2.133A3.564 3.564 0 0 0 22.716.302a3.553 3.553 0 0 0-1.946 2.14 3.551 3.551 0 0 0-2.892-.016 3.562 3.562 0 0 0 2.67 6.603l4.471 10.184a2.861 2.861 0 0 0 3.758 1.465 2.861 2.861 0 0 0 1.465-3.758L25.77 6.736a3.562 3.562 0 0 0 1.643-4.603z" style="stroke:none;stroke-width:1;stroke-dasharray:none;stroke-linecap:butt;stroke-linejoin:miter;stroke-miterlimit:10;fill:#f2f2f2;fill-rule:nonzero;opacity:1"/><path d="m22.477 17.036 1.585 10.291c.404 2.622 3.183 4.148 5.612 3.082l5.661-2.485c2.405-1.056 3.177-4.092 1.568-6.169l-6.353-8.197a4.035 4.035 0 0 0-4.813-1.223l-.893.392a4.032 4.032 0 0 0-2.367 4.309z" style="stroke:none;stroke-width:1;stroke-dasharray:none;stroke-linecap:butt;stroke-linejoin:miter;stroke-miterlimit:10;fill:#b9791c;fill-rule:nonzero;opacity:1"/><path d="M33.151 28.685c-3.348 1.47-7.18-.634-7.737-4.248l-1.69-10.976a4.035 4.035 0 0 0-1.247 3.576l1.585 10.291c.404 2.622 3.183 4.148 5.612 3.082l5.661-2.485a4 4 0 0 0 1.006-.639l-3.19 1.399z" style="stroke:none;stroke-width:1;stroke-dasharray:none;stroke-linecap:butt;stroke-linejoin:miter;stroke-miterlimit:10;fill:#996313;fill-rule:nonzero;opacity:1"/><path d="M17.057 7.962a3.564 3.564 0 0 1 1.831-4.697 3.551 3.551 0 0 1 2.892.016 3.552 3.552 0 0 1 5.115-1.985 3.564 3.564 0 0 0-4.179-.994 3.553 3.553 0 0 0-1.946 2.14 3.551 3.551 0 0 0-2.892-.016 3.564 3.564 0 0 0-1.831 4.697c.325.74.871 1.311 1.526 1.675a3.554 3.554 0 0 1-.516-.836z" style="stroke:none;stroke-width:1;stroke-dasharray:none;stroke-linecap:butt;stroke-linejoin:miter;stroke-miterlimit:10;fill:#e2e1e0;fill-rule:nonzero;opacity:1"/><path d="M59.006 47.069c.361-1.441.555-2.934.555-4.465 0-11.89-11.46-21.529-25.597-21.529S8.367 30.714 8.367 42.604c0 1.531.193 3.024.555 4.465h50.084z" style="stroke:none;stroke-width:1;stroke-dasharray:none;stroke-linecap:butt;stroke-linejoin:miter;stroke-miterlimit:10;fill:#b9791c;fill-rule:nonzero;opacity:1"/><path d="M15.723 47.069c-.005-.181-.013-.361-.013-.543 0-12.248 10.288-22.472 23.992-24.9a30.285 30.285 0 0 0-5.738-.55c-14.137 0-25.597 9.639-25.597 21.529 0 1.531.193 3.024.554 4.465h6.802z" style="stroke:none;stroke-width:1;stroke-dasharray:none;stroke-linecap:butt;stroke-linejoin:miter;stroke-miterlimit:10;fill:#996313;fill-rule:nonzero;opacity:1"/><path d="M10.165 11.452a3.565 3.565 0 0 0-5.041-.03 3.553 3.553 0 0 0-1.052 2.694 3.553 3.553 0 0 0-2.707 1.019 3.563 3.563 0 0 0 4.855 5.211l7.818 7.911a2.86 2.86 0 0 0 4.033.024 2.86 2.86 0 0 0 .024-4.033l-7.818-7.911a3.56 3.56 0 0 0-.112-4.885z" style="stroke:none;stroke-width:1;stroke-dasharray:none;stroke-linecap:butt;stroke-linejoin:miter;stroke-miterlimit:10;fill:#f2f2f2;fill-rule:nonzero;opacity:1"/><path d="m10.885 27.135 5.16 9.043c1.315 2.304 4.456 2.735 6.343.871l4.397-4.345c1.869-1.847 1.503-4.958-.742-6.321L17.179 21a4.038 4.038 0 0 0-4.933.579l-.694.685a4.037 4.037 0 0 0-.667 4.871z" style="stroke:none;stroke-width:1;stroke-dasharray:none;stroke-linecap:butt;stroke-linejoin:miter;stroke-miterlimit:10;fill:#b9791c;fill-rule:nonzero;opacity:1"/><path d="M25.02 34.196c-2.601 2.57-6.932 1.976-8.745-1.2l-5.504-9.646a4.037 4.037 0 0 0 .114 3.786l5.16 9.043c1.315 2.304 4.456 2.735 6.343.871l4.397-4.345c.294-.291.527-.615.711-.957l-2.476 2.448z" style="stroke:none;stroke-width:1;stroke-dasharray:none;stroke-linecap:butt;stroke-linejoin:miter;stroke-miterlimit:10;fill:#996313;fill-rule:nonzero;opacity:1"/><path d="M2.578 20.6a3.565 3.565 0 0 1 .03-5.041 3.552 3.552 0 0 1 2.707-1.019 3.556 3.556 0 0 1 4.067-3.683 3.565 3.565 0 0 0-4.258.566 3.553 3.553 0 0 0-1.052 2.694 3.553 3.553 0 0 0-2.707 1.019 3.565 3.565 0 0 0-.03 5.041 3.538 3.538 0 0 0 2.025 1.019 3.602 3.602 0 0 1-.782-.596z" style="stroke:none;stroke-width:1;stroke-dasharray:none;stroke-linecap:butt;stroke-linejoin:miter;stroke-miterlimit:10;fill:#e2e1e0;fill-rule:nonzero;opacity:1"/><path d="M25.432 50.332h-5.073c0 6.791 5.505 12.296 12.296 12.296.87 0 1.718-.093 2.536-.265-5.573-1.169-9.759-6.11-9.759-12.031z" style="stroke:none;stroke-width:1;stroke-dasharray:none;stroke-linecap:butt;stroke-linejoin:miter;stroke-miterlimit:10;fill:#f4d7a9;fill-rule:nonzero;opacity:1"/><path d="M64.608 51.125H3.375a2.107 2.107 0 0 1-2.101-2.101c0-1.156.946-2.101 2.101-2.101h61.232c1.156 0 2.101.946 2.101 2.101a2.106 2.106 0 0 1-2.1 2.101z" style="stroke:none;stroke-width:1;stroke-dasharray:none;stroke-linecap:butt;stroke-linejoin:miter;stroke-miterlimit:10;fill:#f2f2f2;fill-rule:nonzero;opacity:1"/><path d="M15.723 46.922H3.375a2.107 2.107 0 0 0-2.101 2.101c0 1.156.946 2.101 2.101 2.101H18.06c-1.378-1.031-2.088-2.474-2.337-4.202z" style="stroke:none;stroke-width:1;stroke-dasharray:none;stroke-linecap:butt;stroke-linejoin:miter;stroke-miterlimit:10;fill:#e2e1e0;fill-rule:nonzero;opacity:1"/></g></svg>