<svg xmlns="http://www.w3.org/2000/svg" xml:space="preserve" width="256" height="256"><g style="stroke:none;stroke-width:0;stroke-dasharray:none;stroke-linecap:butt;stroke-linejoin:miter;stroke-miterlimit:10;fill:none;fill-rule:nonzero;opacity:1" transform="matrix(2.81 0 0 2.81 1.407 1.407)"><path d="M9.139 56.291c-5.293 1.41-8.441 6.844-7.03 12.137a9.88 9.88 0 0 0 5.057 6.259 9.88 9.88 0 0 0-1.273 7.946c1.41 5.293 6.844 8.441 12.137 7.03 5.102-1.359 8.198-6.458 7.152-11.565l29.9-7.966c4.217-1.123 6.748-5.493 5.624-9.709-1.123-4.217-5.493-6.748-9.709-5.624l-29.9 7.966c-1.633-4.951-6.855-7.833-11.958-6.474z" style="stroke:none;stroke-width:1;stroke-dasharray:none;stroke-linecap:butt;stroke-linejoin:miter;stroke-miterlimit:10;fill:#f2f2f2;fill-rule:nonzero;opacity:1"/><path d="m48.019 76.199 28.967.016c7.38.004 12.758-6.99 10.858-14.121l-4.428-16.62C81.534 38.411 73.515 35 67.122 38.542L41.884 52.524a11.23 11.23 0 0 0-5.409 12.714l.698 2.621a11.23 11.23 0 0 0 10.846 8.34z" style="stroke:none;stroke-width:1;stroke-dasharray:none;stroke-linecap:butt;stroke-linejoin:miter;stroke-miterlimit:10;fill:#b9791c;fill-rule:nonzero;opacity:1"/><path d="M84.581 51.799c2.619 9.831-4.794 19.473-14.968 19.467l-30.897-.017a11.228 11.228 0 0 0 9.303 4.949l28.967.016c7.38.004 12.758-6.99 10.858-14.121l-4.428-16.62a11.213 11.213 0 0 0-1.329-3.039l2.494 9.365z" style="stroke:none;stroke-width:1;stroke-dasharray:none;stroke-linecap:butt;stroke-linejoin:miter;stroke-miterlimit:10;fill:#996313;fill-rule:nonzero;opacity:1"/><path d="M20.766 87.244c-5.293 1.41-10.727-1.738-12.137-7.03a9.885 9.885 0 0 1 1.273-7.946 9.877 9.877 0 0 1-5.057-6.259c-.831-3.12-.07-6.282 1.772-8.647-3.713 2.211-5.676 6.684-4.509 11.067a9.88 9.88 0 0 0 5.057 6.259 9.88 9.88 0 0 0-1.273 7.946c1.41 5.293 6.844 8.441 12.137 7.03a9.845 9.845 0 0 0 5.255-3.485 9.86 9.86 0 0 1-2.518 1.065zm39.997-68.595c2.302.215 4.546-.252 6.384-1.356 1.836-1.08 3.272-2.781 3.809-4.685a5.933 5.933 0 0 0 .063-2.875c-.133-.498-.258-.938-.464-1.266-.213-.349-.516-.648-.877-.913-1.508-1.075-3.95-.902-5.692.321l-2.794 1.961 2.056-2.638c.837-1.074 1.298-2.504.912-3.801-.185-.642-.598-1.196-1.117-1.612-.526-.416-1.171-.671-1.836-.821l.07.012c-1.794-.069-3.49.725-4.721 1.957-1.245 1.234-2.104 2.817-2.675 4.472a13.435 13.435 0 0 0-.685 5.188 15.061 15.061 0 0 0 1.265 5.049c.367.79.765 1.571 1.259 2.299.461.737 1.078 1.402 1.664 2.304 1.132 1.685 2.028 3.622 2.297 5.713.33 2.084-.14 4.181-.852 6.011-.74 1.845-1.79 3.49-2.921 5.042l-.212-.122c.769-1.753 1.467-3.526 1.925-5.31.451-1.784.524-3.597.119-5.274-.4-1.678-1.233-3.25-2.326-4.656-.296-.353-.498-.669-.846-1.067a14.55 14.55 0 0 1-.941-1.196 14.063 14.063 0 0 1-1.554-2.676c-1.746-3.784-1.745-8.26-.219-12.07.783-1.9 2.005-3.66 3.675-4.912C57.174.473 59.315-.239 61.354.071l.062.009.008.002a5.68 5.68 0 0 1 2.11 1.101 4.14 4.14 0 0 1 1.33 1.994c.489 1.573.022 3.249-.781 4.588l-.737-.675c1.816-1.672 4.724-2.52 7.325-1.24.634.332 1.2.832 1.644 1.437.469.625.655 1.33.826 1.941.347 1.313.242 2.726-.156 3.992-.82 2.561-2.849 4.48-5.132 5.474-2.3 1.004-4.941 1.064-7.148.193l.058-.238zM43.892 37.767c-1.884.793-4.175.771-6.179-.082-1.988-.845-3.77-2.505-4.492-4.747-.351-1.108-.447-2.35-.14-3.501.15-.532.314-1.154.734-1.711a4.323 4.323 0 0 1 1.463-1.27c1.134-.57 2.369-.643 3.481-.399a6.195 6.195 0 0 1 2.914 1.529l-.738.677c-.685-1.166-1.086-2.619-.66-3.987a3.608 3.608 0 0 1 1.155-1.736 4.942 4.942 0 0 1 1.827-.963l.012-.003.059-.008c1.368-.197 2.824.086 4.061.766 1.247.664 2.304 1.655 3.102 2.803 1.6 2.312 2.248 5.172 2.09 7.959-.115 2.804-1.292 5.561-3.06 7.661-1.639 1.866-3.06 3.634-3.935 6.112l-.244-.013c-.617-2.681.624-5.594 2.201-7.629a13.23 13.23 0 0 0 2.558-6.339 11.406 11.406 0 0 0-1.274-6.712c-.553-1.008-1.259-1.956-2.185-2.639a5.256 5.256 0 0 0-3.233-1.065l.07-.012c-1.129.215-2.178.939-2.496 2.037-.324 1.091.071 2.299.79 3.201l1.942 2.434-2.68-1.756c-.759-.498-1.624-.794-2.478-.827-.854-.029-1.68.201-2.281.62a2.604 2.604 0 0 0-.698.743c-.158.26-.26.619-.372 1.037-.17.78-.168 1.591.047 2.383.44 1.585 1.628 3.026 3.169 3.958 1.541.953 3.436 1.383 5.415 1.245l.055.234z" style="stroke:none;stroke-width:1;stroke-dasharray:none;stroke-linecap:butt;stroke-linejoin:miter;stroke-miterlimit:10;fill:#e2e1e0;fill-rule:nonzero;opacity:1"/><path d="M65.408 34.422c.686-1.72 1.186-3.309 1.122-4.956-.027-1.648-.577-3.26-1.122-5.027 1.361 1.237 2.277 3.039 2.343 4.996.013.971-.184 1.95-.604 2.809a5.993 5.993 0 0 1-1.739 2.178z" style="stroke:none;stroke-width:1;stroke-dasharray:none;stroke-linecap:butt;stroke-linejoin:miter;stroke-miterlimit:10;fill:#e2e1e0;fill-rule:nonzero;opacity:1"/><circle cx="73.994" cy="44.844" r="2.814" style="stroke:none;stroke-width:1;stroke-dasharray:none;stroke-linecap:butt;stroke-linejoin:miter;stroke-miterlimit:10;fill:#996313;fill-rule:nonzero;opacity:1"/><circle cx="76.444" cy="57.064" r="2.814" style="stroke:none;stroke-width:1;stroke-dasharray:none;stroke-linecap:butt;stroke-linejoin:miter;stroke-miterlimit:10;fill:#996313;fill-rule:nonzero;opacity:1"/><circle cx="64.214" cy="52.174" r="2.814" style="stroke:none;stroke-width:1;stroke-dasharray:none;stroke-linecap:butt;stroke-linejoin:miter;stroke-miterlimit:10;fill:#996313;fill-rule:nonzero;opacity:1"/></g></svg>