<svg xmlns="http://www.w3.org/2000/svg" xml:space="preserve" width="256" height="256"><g style="stroke:none;stroke-width:0;stroke-dasharray:none;stroke-linecap:butt;stroke-linejoin:miter;stroke-miterlimit:10;fill:none;fill-rule:nonzero;opacity:1" transform="matrix(2.81 0 0 2.81 1.407 1.407)"><path d="M47.911 90h-5.822a2.065 2.065 0 0 1-2.059-2.059V78.66c0-1.132.926-2.059 2.059-2.059h5.822c1.132 0 2.059.926 2.059 2.059v9.281A2.065 2.065 0 0 1 47.911 90z" style="stroke:none;stroke-width:1;stroke-dasharray:none;stroke-linecap:butt;stroke-linejoin:miter;stroke-miterlimit:10;fill:#b9a61d;fill-rule:nonzero;opacity:1"/><ellipse cx="45.002" cy="39.576" rx="14.662" ry="39.576" style="stroke:none;stroke-width:1;stroke-dasharray:none;stroke-linecap:butt;stroke-linejoin:miter;stroke-miterlimit:10;fill:#e5a83d;fill-rule:nonzero;opacity:1"/><path d="M59.429 32.511c-5.664.877-10.356 3.277-14.383 6.717-2.381-2.616-3.773-3.763-6.311-5.373l-1.066 6.403 7.377 6.383 14.383-14.13z" style="stroke:none;stroke-width:1;stroke-dasharray:none;stroke-linecap:butt;stroke-linejoin:miter;stroke-miterlimit:10;fill:#d69b33;fill-rule:nonzero;opacity:1"/><circle cx="46.934" cy="6.074" r="1.814" style="stroke:none;stroke-width:1;stroke-dasharray:none;stroke-linecap:butt;stroke-linejoin:miter;stroke-miterlimit:10;fill:#d69b33;fill-rule:nonzero;opacity:1"/><circle cx="43.914" cy="11.764" r="1.814" style="stroke:none;stroke-width:1;stroke-dasharray:none;stroke-linecap:butt;stroke-linejoin:miter;stroke-miterlimit:10;fill:#d69b33;fill-rule:nonzero;opacity:1"/><circle cx="43.234" cy="17.944" r="1.814" style="stroke:none;stroke-width:1;stroke-dasharray:none;stroke-linecap:butt;stroke-linejoin:miter;stroke-miterlimit:10;fill:#d69b33;fill-rule:nonzero;opacity:1"/><circle cx="42.974" cy="24.134" r="1.814" style="stroke:none;stroke-width:1;stroke-dasharray:none;stroke-linecap:butt;stroke-linejoin:miter;stroke-miterlimit:10;fill:#d69b33;fill-rule:nonzero;opacity:1"/><circle cx="42.974" cy="30.314" r="1.814" style="stroke:none;stroke-width:1;stroke-dasharray:none;stroke-linecap:butt;stroke-linejoin:miter;stroke-miterlimit:10;fill:#d69b33;fill-rule:nonzero;opacity:1"/><circle cx="50.264" cy="11.764" r="1.814" style="stroke:none;stroke-width:1;stroke-dasharray:none;stroke-linecap:butt;stroke-linejoin:miter;stroke-miterlimit:10;fill:#d69b33;fill-rule:nonzero;opacity:1"/><circle cx="48.744" cy="17.834" r="1.814" style="stroke:none;stroke-width:1;stroke-dasharray:none;stroke-linecap:butt;stroke-linejoin:miter;stroke-miterlimit:10;fill:#d69b33;fill-rule:nonzero;opacity:1"/><circle cx="48.954" cy="24.134" r="1.814" style="stroke:none;stroke-width:1;stroke-dasharray:none;stroke-linecap:butt;stroke-linejoin:miter;stroke-miterlimit:10;fill:#d69b33;fill-rule:nonzero;opacity:1"/><circle cx="49.244" cy="30.194" r="1.814" style="stroke:none;stroke-width:1;stroke-dasharray:none;stroke-linecap:butt;stroke-linejoin:miter;stroke-miterlimit:10;fill:#d69b33;fill-rule:nonzero;opacity:1"/><circle cx="53.884" cy="17.854" r="1.814" style="stroke:none;stroke-width:1;stroke-dasharray:none;stroke-linecap:butt;stroke-linejoin:miter;stroke-miterlimit:10;fill:#d69b33;fill-rule:nonzero;opacity:1"/><circle cx="54.724" cy="24.014" r="1.814" style="stroke:none;stroke-width:1;stroke-dasharray:none;stroke-linecap:butt;stroke-linejoin:miter;stroke-miterlimit:10;fill:#d69b33;fill-rule:nonzero;opacity:1"/><circle cx="55.304" cy="30.224" r="1.814" style="stroke:none;stroke-width:1;stroke-dasharray:none;stroke-linecap:butt;stroke-linejoin:miter;stroke-miterlimit:10;fill:#d69b33;fill-rule:nonzero;opacity:1"/><path d="M45 79.153c-8.098 0-14.662-17.719-14.662-39.576S36.902 0 45 0c-7.331 5.298-8.753 47.69 0 79.153z" style="stroke:none;stroke-width:1;stroke-dasharray:none;stroke-linecap:butt;stroke-linejoin:miter;stroke-miterlimit:10;fill:#d69b33;fill-rule:nonzero;opacity:1"/><path d="M45 42.876c-5.449-6.51-12.738-10.06-21.338-11.502C32.714 36.99 20.908 81.985 45 83.416c24.092-1.431 12.286-46.425 21.338-52.041-9.192.791-16.854 3.823-21.338 11.501z" style="stroke:none;stroke-width:1;stroke-dasharray:none;stroke-linecap:butt;stroke-linejoin:miter;stroke-miterlimit:10;fill:#ceb923;fill-rule:nonzero;opacity:1"/><path d="M31.674 33.533a42.09 42.09 0 0 0-8.013-2.158C32.714 36.99 20.908 81.985 45 83.416a16.432 16.432 0 0 0 3.092-.498C29.879 78.315 36.911 43.58 31.674 33.533z" style="stroke:none;stroke-width:1;stroke-dasharray:none;stroke-linecap:butt;stroke-linejoin:miter;stroke-miterlimit:10;fill:#b9a61d;fill-rule:nonzero;opacity:1"/><path d="M62.025 48.864c-6.476 1.144-12.619 2.53-17.025 5.174-2.842-2.717-6.78-4.766-10.938-6.681l-.314 6.478L45 57.395l17.025-8.531" style="stroke:none;stroke-width:1;stroke-dasharray:none;stroke-linecap:butt;stroke-linejoin:miter;stroke-miterlimit:10;fill:#b9a61d;fill-rule:nonzero;opacity:1"/><path d="M45 56.659c-6.449-4.9-15.075-7.572-25.252-8.657C30.461 52.229 16.489 86.097 45 87.174c28.511-1.077 14.539-34.945 25.252-39.172-10.878.596-19.945 2.877-25.252 8.657z" style="stroke:none;stroke-width:1;stroke-dasharray:none;stroke-linecap:butt;stroke-linejoin:miter;stroke-miterlimit:10;fill:#ceb923;fill-rule:nonzero;opacity:1"/><path d="M29.23 49.626a73.685 73.685 0 0 0-9.482-1.625C30.461 52.229 16.489 86.097 45 87.174a29.833 29.833 0 0 0 3.659-.375c-21.553-3.465-13.232-29.61-19.429-37.173z" style="stroke:none;stroke-width:1;stroke-dasharray:none;stroke-linecap:butt;stroke-linejoin:miter;stroke-miterlimit:10;fill:#b9a61d;fill-rule:nonzero;opacity:1"/></g></svg>