<svg xmlns="http://www.w3.org/2000/svg" xml:space="preserve" width="256" height="256"><g style="stroke:none;stroke-width:0;stroke-dasharray:none;stroke-linecap:butt;stroke-linejoin:miter;stroke-miterlimit:10;fill:none;fill-rule:nonzero;opacity:1" transform="matrix(2.81 0 0 2.81 1.407 1.407)"><path d="M47.759 60.385c-5.717 0-10.351-4.635-10.351-10.351l-9.423.129c0 .229.004.458.012.686.361 10.604 9.071 19.089 19.763 19.089" style="stroke:none;stroke-width:1;stroke-dasharray:none;stroke-linecap:butt;stroke-linejoin:miter;stroke-miterlimit:10;fill:#f8dcb0;fill-rule:nonzero;opacity:1"/><path d="M34.193 52.914a19.519 19.519 0 0 1-.012-.685l3.453-.047a10.405 10.405 0 0 1-.226-2.147l-9.423.129c0 .229.004.458.012.685.325 9.547 7.425 17.354 16.638 18.82-6.032-3.231-10.195-9.495-10.442-16.755z" style="stroke:none;stroke-width:1;stroke-dasharray:none;stroke-linecap:butt;stroke-linejoin:miter;stroke-miterlimit:10;fill:#f4d7a9;fill-rule:nonzero;opacity:1"/><path d="M89.834 62.527c.589-2.994-.523-4.988-1.21-8.501-.685-3.114.865-3.971-.659-7.175-1.221-2.487-5.79-3.78-7.212-4.984-2.015-1.758-3.021-4.605-5.632-5.705-2.61-1.103-5.351.164-8.016-.052-1.855-.178-5.97-2.548-8.603-1.687-3.359 1.144-2.891 2.852-5.599 4.535-2.996 1.96-5.2 2.555-6.933 5.066-1.413 2.171 1.588 6.759 1.276 10.264l17.238 7.092 17.109 7.398c2.291-2.671 7.671-3.724 8.241-6.251z" style="stroke:none;stroke-width:1;stroke-dasharray:none;stroke-linecap:butt;stroke-linejoin:miter;stroke-miterlimit:10;fill:#e13919;fill-rule:nonzero;opacity:1"/><path d="m64.483 61.379 6.98 3.018c4.424-11.048.844-22.939-8.134-26.727-2.565-1.082-5.297-1.387-8.004-1.017-.59.734-1.163 1.521-2.422 2.304-2.996 1.96-5.2 2.555-6.933 5.066-1.413 2.171 1.588 6.759 1.276 10.264l17.237 7.092z" style="stroke:none;stroke-width:1;stroke-dasharray:none;stroke-linecap:butt;stroke-linejoin:miter;stroke-miterlimit:10;fill:#d13315;fill-rule:nonzero;opacity:1"/><circle cx="64.049" cy="62.399" r="18.639" style="stroke:none;stroke-width:1;stroke-dasharray:none;stroke-linecap:butt;stroke-linejoin:miter;stroke-miterlimit:10;fill:#f8dcb0;fill-rule:nonzero;opacity:1"/><path d="M49.817 66.857c4.612-10.932 12.502-18.912 20.614-21.969-9.275-3.387-19.673 1.071-23.552 10.269-2.386 5.655-1.767 11.824 1.13 16.732a49.497 49.497 0 0 1 1.808-5.032z" style="stroke:none;stroke-width:1;stroke-dasharray:none;stroke-linecap:butt;stroke-linejoin:miter;stroke-miterlimit:10;fill:#f4d7a9;fill-rule:nonzero;opacity:1"/><circle cx="60.335" cy="57.395" r="2.055" style="stroke:none;stroke-width:1;stroke-dasharray:none;stroke-linecap:butt;stroke-linejoin:miter;stroke-miterlimit:10;fill:#cda058;fill-rule:nonzero;opacity:1"/><circle cx="69.885" cy="61.425" r="2.055" style="stroke:none;stroke-width:1;stroke-dasharray:none;stroke-linecap:butt;stroke-linejoin:miter;stroke-miterlimit:10;fill:#cda058;fill-rule:nonzero;opacity:1"/><path d="M71.225 68.713c-1.985 4.705-7.409 6.911-12.114 4.926-4.705-1.985-6.911-7.409-4.926-12.114" style="stroke:none;stroke-width:1;stroke-dasharray:none;stroke-linecap:butt;stroke-linejoin:miter;stroke-miterlimit:10;fill:#cda058;fill-rule:nonzero;opacity:1"/><path d="M46.878 55.156c3.88-9.197 14.278-13.656 23.553-10.269.29.106.578.219.865.34-3.748 3.918-8.076 6.962-13.33 8.608-3.302 1.035-6.969 1.519-11.088 1.321zm34.347 14.49c4.001-9.485-.444-20.417-9.929-24.418-.311 8.823 2.114 17.13 9.929 24.418z" style="stroke:none;stroke-width:1;stroke-dasharray:none;stroke-linecap:butt;stroke-linejoin:miter;stroke-miterlimit:10;fill:#e5a83d;fill-rule:nonzero;opacity:1"/><path d="M70.431 44.887c-9.275-3.387-19.673 1.072-23.553 10.269 4.119.197 7.786-.286 11.088-1.321 3.075-3.693 7.422-6.55 12.465-8.948z" style="stroke:none;stroke-width:1;stroke-dasharray:none;stroke-linecap:butt;stroke-linejoin:miter;stroke-miterlimit:10;fill:#d69b33;fill-rule:nonzero;opacity:1"/><path d="M44.458 40.668c0 6.912-5.604 12.516-12.516 12.516S19.426 47.58 19.426 40.668" style="stroke:none;stroke-width:1;stroke-dasharray:none;stroke-linecap:butt;stroke-linejoin:miter;stroke-miterlimit:10;fill:#f8dcb0;fill-rule:nonzero;opacity:1"/><path d="M24.589 40.668h-5.163c0 6.912 5.604 12.516 12.516 12.516.885 0 1.748-.095 2.582-.269-5.673-1.191-9.935-6.22-9.935-12.247z" style="stroke:none;stroke-width:1;stroke-dasharray:none;stroke-linecap:butt;stroke-linejoin:miter;stroke-miterlimit:10;fill:#f4d7a9;fill-rule:nonzero;opacity:1"/><path d="M18.148 24.08a.5.5 0 0 1-.46-.305c-.893-2.103-.213-4.656 1.817-6.832a.5.5 0 0 1 .731.683c-1.753 1.878-2.361 4.031-1.627 5.759a.5.5 0 0 1-.461.695z" style="stroke:none;stroke-width:1;stroke-dasharray:none;stroke-linecap:butt;stroke-linejoin:miter;stroke-miterlimit:10;fill:#333;fill-rule:nonzero;opacity:1"/><ellipse cx="16.145" cy="17.537" rx="1.765" ry="2.847" style="stroke:none;stroke-width:1;stroke-dasharray:none;stroke-linecap:butt;stroke-linejoin:miter;stroke-miterlimit:10;fill:#b9a61d;fill-rule:nonzero;opacity:1" transform="rotate(-45.001 16.147 17.534)"/><path d="M14.134 15.521c.918-.51 2.275-.221 3.261.765.986.986 1.275 2.344.765 3.261l-4.026-4.026z" style="stroke:none;stroke-width:1;stroke-dasharray:none;stroke-linecap:butt;stroke-linejoin:miter;stroke-miterlimit:10;fill:#ceb923;fill-rule:nonzero;opacity:1"/><path d="M17.851 21.527C12.824 19.1 7.781 23.069 8.8 29.101c1.086 5.143 4.473 9.467 9.05 8.708 4.577.759 7.965-3.565 9.05-8.708 1.02-6.032-4.023-10.001-9.049-7.574z" style="stroke:none;stroke-width:1;stroke-dasharray:none;stroke-linecap:butt;stroke-linejoin:miter;stroke-miterlimit:10;fill:#e13919;fill-rule:nonzero;opacity:1"/><path d="M17.851 21.527c-3.022-2.427-6.053 1.542-5.44 7.574.653 5.143 2.689 9.467 5.44 8.708 2.751.759 4.788-3.565 5.44-8.708.612-6.032-2.419-10.001-5.44-7.574z" style="stroke:none;stroke-width:1;stroke-dasharray:none;stroke-linecap:butt;stroke-linejoin:miter;stroke-miterlimit:10;fill:#e13919;fill-rule:nonzero;opacity:1"/><path d="M12.41 29.101c-.455-4.485 1.104-7.826 3.175-8.249-4.151-.499-7.65 3.132-6.785 8.249 1.023 4.845 4.089 8.962 8.268 8.788-2.352-.172-4.069-4.146-4.658-8.788z" style="stroke:none;stroke-width:1;stroke-dasharray:none;stroke-linecap:butt;stroke-linejoin:miter;stroke-miterlimit:10;fill:#d13315;fill-rule:nonzero;opacity:1"/><path d="M31.08 20.778a.5.5 0 0 1-.387-.183c-1.48-1.806-1.548-4.507-.182-7.228a.499.499 0 1 1 .893.449c-1.184 2.356-1.161 4.653.062 6.145a.5.5 0 0 1-.386.817z" style="stroke:none;stroke-width:1;stroke-dasharray:none;stroke-linecap:butt;stroke-linejoin:miter;stroke-miterlimit:10;fill:#333;fill-rule:nonzero;opacity:1"/><path d="M38.053 21.887c-.013-.05-.021-.099-.036-.149-1.004-3.424-4.501-5.414-7.812-4.443-3.31.97-5.18 4.533-4.176 7.957.015.05.035.096.05.145-1.872 2.19-2.67 4.994-1.89 7.655 1.338 4.565 6.808 6.98 12.217 5.395 5.409-1.586 8.709-6.572 7.37-11.137-.78-2.661-2.965-4.59-5.723-5.423z" style="stroke:none;stroke-width:1;stroke-dasharray:none;stroke-linecap:butt;stroke-linejoin:miter;stroke-miterlimit:10;fill:#e5a83d;fill-rule:nonzero;opacity:1"/><path d="M28.631 31.75c-.78-2.661-.659-5.266.163-7.149-.015-.049-.032-.096-.047-.146-1.004-3.424-.351-6.63 1.458-7.16-3.31.97-5.18 4.533-4.176 7.957.015.05.035.096.05.145-1.872 2.19-2.67 4.994-1.89 7.655 1.338 4.565 6.808 6.98 12.217 5.395-2.955.867-6.436-2.132-7.775-6.697z" style="stroke:none;stroke-width:1;stroke-dasharray:none;stroke-linecap:butt;stroke-linejoin:miter;stroke-miterlimit:10;fill:#d69b33;fill-rule:nonzero;opacity:1"/><ellipse cx="27.369" cy="14.906" rx="1.809" ry="2.916" style="stroke:none;stroke-width:1;stroke-dasharray:none;stroke-linecap:butt;stroke-linejoin:miter;stroke-miterlimit:10;fill:#b9a61d;fill-rule:nonzero;opacity:1" transform="rotate(-61.341 27.369 14.911)"/><path d="M24.811 13.513c.755-.766 2.173-.873 3.426-.188 1.253.685 1.929 1.937 1.692 2.986l-5.118-2.798z" style="stroke:none;stroke-width:1;stroke-dasharray:none;stroke-linecap:butt;stroke-linejoin:miter;stroke-miterlimit:10;fill:#ceb923;fill-rule:nonzero;opacity:1"/><path d="M47.287 24.428a.5.5 0 0 1-.5-.498c-.011-2.284 1.604-4.377 4.317-5.598a.5.5 0 1 1 .41.912c-2.343 1.054-3.736 2.804-3.728 4.681a.5.5 0 0 1-.498.502c.001.001 0 .001-.001.001z" style="stroke:none;stroke-width:1;stroke-dasharray:none;stroke-linecap:butt;stroke-linejoin:miter;stroke-miterlimit:10;fill:#333;fill-rule:nonzero;opacity:1"/><ellipse cx="47.775" cy="17.577" rx="1.765" ry="2.847" style="stroke:none;stroke-width:1;stroke-dasharray:none;stroke-linecap:butt;stroke-linejoin:miter;stroke-miterlimit:10;fill:#b9a61d;fill-rule:nonzero;opacity:1" transform="rotate(-22.256 47.779 17.582)"/><path d="M46.701 14.945c1.043-.116 2.184.676 2.712 1.966s.269 2.654-.556 3.303l-2.156-5.269zm1.105 6.975c-3.698-4.181-9.882-2.471-11.275 3.486-.987 5.162.465 10.46 4.979 11.53 3.928 2.47 8.724-.209 11.713-4.532 3.273-5.168.157-10.778-5.417-10.484z" style="stroke:none;stroke-width:1;stroke-dasharray:none;stroke-linecap:butt;stroke-linejoin:miter;stroke-miterlimit:10;fill:#ceb923;fill-rule:nonzero;opacity:1"/><path d="M39.861 26.801c1.314-4.312 4.044-6.791 6.118-6.38-3.635-2.065-8.266-.069-9.447 4.984-.93 4.864.306 9.846 4.227 11.301-2.103-1.067-2.15-5.396-.898-9.905z" style="stroke:none;stroke-width:1;stroke-dasharray:none;stroke-linecap:butt;stroke-linejoin:miter;stroke-miterlimit:10;fill:#b9a61d;fill-rule:nonzero;opacity:1"/><path d="M64.466 41.475H2.139A2.145 2.145 0 0 1 0 39.336c0-1.176.962-2.139 2.139-2.139h62.327c1.176 0 2.139.962 2.139 2.139a2.146 2.146 0 0 1-2.139 2.139z" style="stroke:none;stroke-width:1;stroke-dasharray:none;stroke-linecap:butt;stroke-linejoin:miter;stroke-miterlimit:10;fill:#f2f2f2;fill-rule:nonzero;opacity:1"/><path d="M14.708 37.197H2.139A2.145 2.145 0 0 0 0 39.336c0 1.176.962 2.139 2.139 2.139h14.948c-1.403-1.051-2.127-2.52-2.379-4.278z" style="stroke:none;stroke-width:1;stroke-dasharray:none;stroke-linecap:butt;stroke-linejoin:miter;stroke-miterlimit:10;fill:#e2e1e0;fill-rule:nonzero;opacity:1"/></g></svg>