<svg xmlns="http://www.w3.org/2000/svg" xml:space="preserve" width="256" height="256"><g style="stroke:none;stroke-width:0;stroke-dasharray:none;stroke-linecap:butt;stroke-linejoin:miter;stroke-miterlimit:10;fill:none;fill-rule:nonzero;opacity:1" transform="matrix(2.81 0 0 2.81 1.407 1.407)"><path d="m45.186 0 .49 22.5.368 22.5c.106 7.5.425 15 .245 22.5-.085 3.75-.184 7.5-.363 11.25-.17 3.75-.388 7.5-.739 11.25h-.245c-.351-3.75-.569-7.5-.739-11.25-.179-3.75-.278-7.5-.363-11.25-.18-7.5.139-15 .245-22.5l.367-22.5.49-22.5h.244z" style="stroke:none;stroke-width:1;stroke-dasharray:none;stroke-linecap:butt;stroke-linejoin:miter;stroke-miterlimit:10;fill:#d69b33;fill-rule:nonzero;opacity:1"/><ellipse cx="38.563" cy="18.319" rx="4.613" ry="9.199" style="stroke:none;stroke-width:1;stroke-dasharray:none;stroke-linecap:butt;stroke-linejoin:miter;stroke-miterlimit:10;fill:#e5a83d;fill-rule:nonzero;opacity:1" transform="rotate(-45.001 38.56 18.322)"/><path d="M32.055 11.817c-1.207 2.524.058 6.581 3.243 9.766s7.242 4.45 9.766 3.243L32.055 11.817z" style="stroke:none;stroke-width:1;stroke-dasharray:none;stroke-linecap:butt;stroke-linejoin:miter;stroke-miterlimit:10;fill:#d69b33;fill-rule:nonzero;opacity:1"/><ellipse cx="51.569" cy="18.323" rx="9.199" ry="4.613" style="stroke:none;stroke-width:1;stroke-dasharray:none;stroke-linecap:butt;stroke-linejoin:miter;stroke-miterlimit:10;fill:#d69b33;fill-rule:nonzero;opacity:1" transform="rotate(-45.001 51.569 18.322)"/><path d="M58.073 11.817c1.207 2.524-.058 6.581-3.243 9.766-3.185 3.185-7.242 4.45-9.766 3.243l13.009-13.009z" style="stroke:none;stroke-width:1;stroke-dasharray:none;stroke-linecap:butt;stroke-linejoin:miter;stroke-miterlimit:10;fill:#e5a83d;fill-rule:nonzero;opacity:1"/><ellipse cx="38.563" cy="18.319" rx="4.613" ry="9.199" style="stroke:none;stroke-width:1;stroke-dasharray:none;stroke-linecap:butt;stroke-linejoin:miter;stroke-miterlimit:10;fill:#e5a83d;fill-rule:nonzero;opacity:1" transform="rotate(-45.001 38.56 18.322)"/><path d="M32.055 11.817c-1.207 2.524.058 6.581 3.243 9.766s7.242 4.45 9.766 3.243c-3.257-5.252-7.677-9.517-13.009-13.009z" style="stroke:none;stroke-width:1;stroke-dasharray:none;stroke-linecap:butt;stroke-linejoin:miter;stroke-miterlimit:10;fill:#d69b33;fill-rule:nonzero;opacity:1"/><ellipse cx="51.569" cy="18.323" rx="9.199" ry="4.613" style="stroke:none;stroke-width:1;stroke-dasharray:none;stroke-linecap:butt;stroke-linejoin:miter;stroke-miterlimit:10;fill:#d69b33;fill-rule:nonzero;opacity:1" transform="rotate(-45.001 51.569 18.322)"/><path d="M58.073 11.817c1.207 2.524-.058 6.581-3.243 9.766-3.185 3.185-7.242 4.45-9.766 3.243 3.157-5.121 7.493-9.457 13.009-13.009z" style="stroke:none;stroke-width:1;stroke-dasharray:none;stroke-linecap:butt;stroke-linejoin:miter;stroke-miterlimit:10;fill:#e5a83d;fill-rule:nonzero;opacity:1"/><ellipse cx="38.563" cy="25.059" rx="4.613" ry="9.199" style="stroke:none;stroke-width:1;stroke-dasharray:none;stroke-linecap:butt;stroke-linejoin:miter;stroke-miterlimit:10;fill:#e5a83d;fill-rule:nonzero;opacity:1" transform="rotate(-45.001 38.56 25.058)"/><path d="M32.055 18.553c-1.207 2.524.058 6.581 3.243 9.766s7.242 4.45 9.766 3.243c-3.257-5.252-7.677-9.517-13.009-13.009z" style="stroke:none;stroke-width:1;stroke-dasharray:none;stroke-linecap:butt;stroke-linejoin:miter;stroke-miterlimit:10;fill:#d69b33;fill-rule:nonzero;opacity:1"/><ellipse cx="51.569" cy="25.063" rx="9.199" ry="4.613" style="stroke:none;stroke-width:1;stroke-dasharray:none;stroke-linecap:butt;stroke-linejoin:miter;stroke-miterlimit:10;fill:#d69b33;fill-rule:nonzero;opacity:1" transform="rotate(-45.001 51.569 25.058)"/><path d="M58.073 18.553c1.207 2.524-.058 6.581-3.243 9.766-3.185 3.185-7.242 4.45-9.766 3.243 3.157-5.121 7.493-9.458 13.009-13.009z" style="stroke:none;stroke-width:1;stroke-dasharray:none;stroke-linecap:butt;stroke-linejoin:miter;stroke-miterlimit:10;fill:#e5a83d;fill-rule:nonzero;opacity:1"/><ellipse cx="38.563" cy="31.789" rx="4.613" ry="9.199" style="stroke:none;stroke-width:1;stroke-dasharray:none;stroke-linecap:butt;stroke-linejoin:miter;stroke-miterlimit:10;fill:#e5a83d;fill-rule:nonzero;opacity:1" transform="rotate(-45.001 38.56 31.794)"/><path d="M32.055 25.289c-1.207 2.524.058 6.581 3.243 9.766 3.185 3.185 7.242 4.45 9.766 3.243-3.257-5.252-7.677-9.518-13.009-13.009z" style="stroke:none;stroke-width:1;stroke-dasharray:none;stroke-linecap:butt;stroke-linejoin:miter;stroke-miterlimit:10;fill:#d69b33;fill-rule:nonzero;opacity:1"/><ellipse cx="51.569" cy="31.793" rx="9.199" ry="4.613" style="stroke:none;stroke-width:1;stroke-dasharray:none;stroke-linecap:butt;stroke-linejoin:miter;stroke-miterlimit:10;fill:#d69b33;fill-rule:nonzero;opacity:1" transform="rotate(-45.001 51.569 31.794)"/><path d="M58.073 25.289c1.207 2.524-.058 6.581-3.243 9.766-3.185 3.185-7.242 4.45-9.766 3.243 3.157-5.121 7.493-9.458 13.009-13.009z" style="stroke:none;stroke-width:1;stroke-dasharray:none;stroke-linecap:butt;stroke-linejoin:miter;stroke-miterlimit:10;fill:#e5a83d;fill-rule:nonzero;opacity:1"/><ellipse cx="38.563" cy="38.529" rx="4.613" ry="9.199" style="stroke:none;stroke-width:1;stroke-dasharray:none;stroke-linecap:butt;stroke-linejoin:miter;stroke-miterlimit:10;fill:#e5a83d;fill-rule:nonzero;opacity:1" transform="rotate(-45.001 38.559 38.53)"/><path d="M32.055 32.025c-1.207 2.524.058 6.581 3.243 9.766s7.242 4.45 9.766 3.243c-3.257-5.252-7.677-9.518-13.009-13.009z" style="stroke:none;stroke-width:1;stroke-dasharray:none;stroke-linecap:butt;stroke-linejoin:miter;stroke-miterlimit:10;fill:#d69b33;fill-rule:nonzero;opacity:1"/><ellipse cx="51.569" cy="38.533" rx="9.199" ry="4.613" style="stroke:none;stroke-width:1;stroke-dasharray:none;stroke-linecap:butt;stroke-linejoin:miter;stroke-miterlimit:10;fill:#d69b33;fill-rule:nonzero;opacity:1" transform="rotate(-45.001 51.568 38.53)"/><path d="M58.073 32.025c1.207 2.524-.058 6.581-3.243 9.766-3.185 3.185-7.242 4.45-9.766 3.243 3.157-5.122 7.493-9.458 13.009-13.009z" style="stroke:none;stroke-width:1;stroke-dasharray:none;stroke-linecap:butt;stroke-linejoin:miter;stroke-miterlimit:10;fill:#e5a83d;fill-rule:nonzero;opacity:1"/><ellipse cx="38.563" cy="45.269" rx="4.613" ry="9.199" style="stroke:none;stroke-width:1;stroke-dasharray:none;stroke-linecap:butt;stroke-linejoin:miter;stroke-miterlimit:10;fill:#e5a83d;fill-rule:nonzero;opacity:1" transform="rotate(-45.001 38.559 45.266)"/><path d="M32.055 38.76c-1.207 2.524.058 6.581 3.243 9.766 3.185 3.185 7.242 4.45 9.766 3.243-3.257-5.251-7.677-9.517-13.009-13.009z" style="stroke:none;stroke-width:1;stroke-dasharray:none;stroke-linecap:butt;stroke-linejoin:miter;stroke-miterlimit:10;fill:#d69b33;fill-rule:nonzero;opacity:1"/><ellipse cx="51.569" cy="45.263" rx="9.199" ry="4.613" style="stroke:none;stroke-width:1;stroke-dasharray:none;stroke-linecap:butt;stroke-linejoin:miter;stroke-miterlimit:10;fill:#d69b33;fill-rule:nonzero;opacity:1" transform="rotate(-45.001 51.568 45.266)"/><path d="M58.073 38.76c1.207 2.524-.058 6.581-3.243 9.766-3.185 3.185-7.242 4.45-9.766 3.243 3.157-5.121 7.493-9.457 13.009-13.009z" style="stroke:none;stroke-width:1;stroke-dasharray:none;stroke-linecap:butt;stroke-linejoin:miter;stroke-miterlimit:10;fill:#e5a83d;fill-rule:nonzero;opacity:1"/><ellipse cx="38.563" cy="51.999" rx="4.613" ry="9.199" style="stroke:none;stroke-width:1;stroke-dasharray:none;stroke-linecap:butt;stroke-linejoin:miter;stroke-miterlimit:10;fill:#e5a83d;fill-rule:nonzero;opacity:1" transform="rotate(-45.001 38.559 52.002)"/><path d="M32.055 45.496c-1.207 2.524.058 6.581 3.243 9.766 3.185 3.185 7.242 4.45 9.766 3.243-3.257-5.252-7.677-9.517-13.009-13.009z" style="stroke:none;stroke-width:1;stroke-dasharray:none;stroke-linecap:butt;stroke-linejoin:miter;stroke-miterlimit:10;fill:#d69b33;fill-rule:nonzero;opacity:1"/><ellipse cx="51.569" cy="52.003" rx="9.199" ry="4.613" style="stroke:none;stroke-width:1;stroke-dasharray:none;stroke-linecap:butt;stroke-linejoin:miter;stroke-miterlimit:10;fill:#d69b33;fill-rule:nonzero;opacity:1" transform="rotate(-45.001 51.568 52.002)"/><path d="M58.073 45.496c1.207 2.524-.058 6.581-3.243 9.766-3.185 3.185-7.242 4.45-9.766 3.243 3.157-5.121 7.493-9.457 13.009-13.009z" style="stroke:none;stroke-width:1;stroke-dasharray:none;stroke-linecap:butt;stroke-linejoin:miter;stroke-miterlimit:10;fill:#e5a83d;fill-rule:nonzero;opacity:1"/><ellipse cx="38.563" cy="58.739" rx="4.613" ry="9.199" style="stroke:none;stroke-width:1;stroke-dasharray:none;stroke-linecap:butt;stroke-linejoin:miter;stroke-miterlimit:10;fill:#e5a83d;fill-rule:nonzero;opacity:1" transform="rotate(-45.001 38.559 58.737)"/><path d="M32.055 52.232c-1.207 2.524.058 6.581 3.243 9.766 3.185 3.185 7.242 4.45 9.766 3.243-3.257-5.252-7.677-9.517-13.009-13.009z" style="stroke:none;stroke-width:1;stroke-dasharray:none;stroke-linecap:butt;stroke-linejoin:miter;stroke-miterlimit:10;fill:#d69b33;fill-rule:nonzero;opacity:1"/><ellipse cx="51.569" cy="58.733" rx="9.199" ry="4.613" style="stroke:none;stroke-width:1;stroke-dasharray:none;stroke-linecap:butt;stroke-linejoin:miter;stroke-miterlimit:10;fill:#d69b33;fill-rule:nonzero;opacity:1" transform="rotate(-45.001 51.568 58.738)"/><path d="M58.073 52.232c1.207 2.524-.058 6.581-3.243 9.766-3.185 3.185-7.242 4.45-9.766 3.243 3.157-5.121 7.493-9.457 13.009-13.009z" style="stroke:none;stroke-width:1;stroke-dasharray:none;stroke-linecap:butt;stroke-linejoin:miter;stroke-miterlimit:10;fill:#e5a83d;fill-rule:nonzero;opacity:1"/><path d="M45 76.17c-4.66-9.394-15.837-16.163-29.284-22.016 9.134 5.614 20.623 15.415 26.333 25.035-10.832-13.388-22.563-11.756-34.883-.274C26.051 65.684 33.8 72.843 45 89.406V76.17z" style="stroke:none;stroke-width:1;stroke-dasharray:none;stroke-linecap:butt;stroke-linejoin:miter;stroke-miterlimit:10;fill:#b9a61d;fill-rule:nonzero;opacity:1"/><path d="M45 76.17c4.66-9.394 15.837-16.163 29.284-22.016-9.134 5.615-20.622 15.415-26.333 25.036 10.832-13.389 22.563-11.756 34.882-.275C63.949 65.684 56.2 72.843 45 89.406V76.17z" style="stroke:none;stroke-width:1;stroke-dasharray:none;stroke-linecap:butt;stroke-linejoin:miter;stroke-miterlimit:10;fill:#ceb923;fill-rule:nonzero;opacity:1"/></g></svg>