<svg xmlns="http://www.w3.org/2000/svg" xml:space="preserve" width="256" height="256"><g style="stroke:none;stroke-width:0;stroke-dasharray:none;stroke-linecap:butt;stroke-linejoin:miter;stroke-miterlimit:10;fill:none;fill-rule:nonzero;opacity:1"><path d="m3.263 88.418-1.012-1.012a4.752 4.752 0 0 1 0-6.7l45.614-45.614a4.752 4.752 0 0 1 6.7 0l1.012 1.012a4.752 4.752 0 0 1 0 6.7L9.962 88.418a4.75 4.75 0 0 1-6.699 0z" style="stroke:none;stroke-width:1;stroke-dasharray:none;stroke-linecap:butt;stroke-linejoin:miter;stroke-miterlimit:10;fill:#b9791c;fill-rule:nonzero;opacity:1" transform="matrix(2.79 0 0 2.79 1.396 1.396)"/><path d="M75.734 41.626v.339c0-.116-.022-.226-.034-.339h-6.065c-.002.018-.008.035-.01.053v-.053h-6.138v11.346a3.078 3.078 0 0 0 3.069 3.069c1.59 0 2.893-1.23 3.04-2.783v16.859a3.078 3.078 0 0 0 3.069 3.069 3.078 3.078 0 0 0 3.069-3.069V58.591a3.078 3.078 0 0 0 3.069 3.069 3.078 3.078 0 0 0 3.069-3.069V41.626h-6.138z" style="stroke:none;stroke-width:1;stroke-dasharray:none;stroke-linecap:butt;stroke-linejoin:miter;stroke-miterlimit:10;fill:#e5a83d;fill-rule:nonzero;opacity:1" transform="matrix(2.79 0 0 2.79 1.396 1.396)"/><path d="M8.173 88.424 7.15 87.401a4.745 4.745 0 0 1 0-6.689l45.625-45.625c.272-.272.576-.492.892-.683-1.819-1.103-4.23-.884-5.797.683L2.245 80.712a4.745 4.745 0 0 0 0 6.689l1.023 1.023c1.567 1.567 3.978 1.786 5.797.683a4.677 4.677 0 0 1-.892-.683z" style="stroke:none;stroke-width:1;stroke-dasharray:none;stroke-linecap:butt;stroke-linejoin:miter;stroke-miterlimit:10;fill:#996313;fill-rule:nonzero;opacity:1" transform="matrix(2.79 0 0 2.79 1.396 1.396)"/><path d="M77.534 41.803 48.866 13.134c-2.172-2.172-2.172-5.726 0-7.898l1.193-1.193c2.172-2.172 5.726-2.172 7.898 0l28.668 28.668c2.172 2.172 2.172 5.726 0 7.898l-1.193 1.193c-2.171 2.173-5.726 2.173-7.898.001z" style="stroke:none;stroke-width:1;stroke-dasharray:none;stroke-linecap:butt;stroke-linejoin:miter;stroke-miterlimit:10;fill:#e5a83d;fill-rule:nonzero;opacity:1" transform="matrix(2.79 0 0 2.79 1.396 1.396)"/><path d="M70.043 49.295 41.374 20.626c-2.172-2.172-2.172-5.726 0-7.898l1.193-1.193c2.172-2.172 5.726-2.172 7.898 0l28.668 28.668c2.172 2.172 2.172 5.726 0 7.898l-1.193 1.193c-2.171 2.172-5.725 2.172-7.897.001zm9.038-20.929L62.303 11.587c-2.172-2.172-2.172-5.726 0-7.898l1.193-1.193c2.172-2.172 5.726-2.172 7.898 0l16.779 16.779c2.172 2.172 2.172 5.726 0 7.898l-1.193 1.193c-2.172 2.172-5.727 2.172-7.899 0z" style="stroke:none;stroke-width:1;stroke-dasharray:none;stroke-linecap:butt;stroke-linejoin:miter;stroke-miterlimit:10;fill:#e5a83d;fill-rule:nonzero;opacity:1" transform="matrix(2.79 0 0 2.79 1.396 1.396)"/><path d="M56.606 50.842 39.827 34.063c-2.172-2.172-2.172-5.726 0-7.898l1.193-1.193c2.172-2.172 5.726-2.172 7.898 0L65.697 41.75c2.172 2.172 2.172 5.726 0 7.898l-1.193 1.193c-2.172 2.173-5.726 2.173-7.898.001z" style="stroke:none;stroke-width:1;stroke-dasharray:none;stroke-linecap:butt;stroke-linejoin:miter;stroke-miterlimit:10;fill:#e5a83d;fill-rule:nonzero;opacity:1" transform="matrix(2.79 0 0 2.79 1.396 1.396)"/><path d="M82.031 27.392 65.239 10.6c-2.169-2.168-2.169-5.717 0-7.885l1.206-1.206c.237-.237.497-.438.764-.623-1.349.057-2.682.58-3.707 1.604l-1.206 1.206c-2.169 2.168-2.169 5.717 0 7.885l16.792 16.792c1.931 1.931 4.951 2.131 7.122.623-1.508.063-3.035-.46-4.179-1.604zm-22.5 22.467L42.74 33.067c-2.169-2.168-2.169-5.717 0-7.885l1.206-1.206c.237-.237.497-.438.764-.623-1.349.057-2.682.58-3.707 1.604l-1.206 1.206c-2.169 2.168-2.169 5.717 0 7.885L56.588 50.84c1.931 1.931 4.951 2.131 7.122.623-1.507.063-3.035-.46-4.179-1.604zm20.953-9.031L51.803 12.147c-2.168-2.169-2.168-5.717 0-7.885l1.206-1.206c.237-.237.497-.438.764-.623-1.349.057-2.682.58-3.707 1.604L48.86 5.243c-2.168 2.169-2.168 5.717 0 7.885l28.681 28.681c1.931 1.931 4.951 2.131 7.121.623-1.507.063-3.034-.46-4.178-1.604z" style="stroke:none;stroke-width:1;stroke-dasharray:none;stroke-linecap:butt;stroke-linejoin:miter;stroke-miterlimit:10;fill:#d69b33;fill-rule:nonzero;opacity:1" transform="matrix(2.79 0 0 2.79 1.396 1.396)"/><path d="M72.966 48.312 44.285 19.631c-2.168-2.169-2.168-5.717 0-7.885l1.206-1.206c.237-.237.497-.438.764-.623-1.349.057-2.682.58-3.707 1.604l-1.206 1.206c-2.168 2.169-2.168 5.717 0 7.885l28.681 28.681c1.931 1.931 4.951 2.131 7.121.623-1.506.063-3.034-.46-4.178-1.604z" style="stroke:none;stroke-width:1;stroke-dasharray:none;stroke-linecap:butt;stroke-linejoin:miter;stroke-miterlimit:10;fill:#d69b33;fill-rule:nonzero;opacity:1" transform="matrix(2.79 0 0 2.79 1.396 1.396)"/></g></svg>