<svg xmlns="http://www.w3.org/2000/svg" xml:space="preserve" width="256" height="256"><g style="stroke:none;stroke-width:0;stroke-dasharray:none;stroke-linecap:butt;stroke-linejoin:miter;stroke-miterlimit:10;fill:none;fill-rule:nonzero;opacity:1"><path d="M70.291 90H19.709c-3.898 0-7.087-3.189-7.087-7.087V9.626c0-3.898 3.189-7.087 7.087-7.087h50.582c3.898 0 7.087 3.189 7.087 7.087v73.288C77.377 86.811 74.188 90 70.291 90z" style="stroke:none;stroke-width:1;stroke-dasharray:none;stroke-linecap:butt;stroke-linejoin:miter;stroke-miterlimit:10;fill:#f2f2f2;fill-rule:nonzero;opacity:1" transform="matrix(2.81 0 0 2.81 1.407 1.407)"/><path d="M39.913 84.842c-3.898 0-7.087-3.189-7.087-7.087V4.468c0-.669.1-1.314.275-1.929H19.709c-3.898 0-7.087 3.189-7.087 7.087v73.288c0 3.898 3.189 7.087 7.087 7.087h50.582c3.229 0 5.965-2.191 6.811-5.158H39.913z" style="stroke:none;stroke-width:1;stroke-dasharray:none;stroke-linecap:butt;stroke-linejoin:miter;stroke-miterlimit:10;fill:#e2e1e0;fill-rule:nonzero;opacity:1" transform="matrix(2.81 0 0 2.81 1.407 1.407)"/><path d="M79.958 17.995c-1.038 2.091-3.117 3.52-5.517 3.52-2.4 0-4.479-1.43-5.517-3.52-1.229-2.356-2.458-2.356-3.687 0-1.038 2.091-3.117 3.52-5.517 3.52s-4.479-1.43-5.517-3.52c-1.228-2.286-2.461-2.426-3.687 0-1.038 2.091-3.117 3.52-5.517 3.52s-4.479-1.43-5.517-3.52c-1.226-2.426-2.458-2.286-3.687 0-1.038 2.091-3.117 3.52-5.517 3.52s-4.479-1.43-5.517-3.52c-1.229-2.356-2.458-2.356-3.687 0-1.038 2.091-3.117 3.52-5.517 3.52s-4.479-1.43-5.517-3.52c-1.236-2.837-1.319-6.252 1.005-6.252h67.906c2.326.001 2.243 3.415 1.007 6.252z" style="stroke:none;stroke-width:1;stroke-dasharray:none;stroke-linecap:butt;stroke-linejoin:miter;stroke-miterlimit:10;fill:#e5a83d;fill-rule:nonzero;opacity:1" transform="matrix(2.81 0 0 2.81 1.407 1.407)"/><path d="M32.827 11.744h-21.78c-2.325 0-2.241 3.415-1.005 6.252 1.038 2.091 3.117 3.52 5.517 3.52 2.4 0 4.479-1.429 5.517-3.52 1.229-2.356 2.458-2.356 3.687 0 1.038 2.091 3.117 3.52 5.517 3.52.908 0 1.77-.206 2.547-.574v-9.198z" style="stroke:none;stroke-width:1;stroke-dasharray:none;stroke-linecap:butt;stroke-linejoin:miter;stroke-miterlimit:10;fill:#d69b33;fill-rule:nonzero;opacity:1" transform="matrix(2.81 0 0 2.81 1.407 1.407)"/><path d="M81.511 12.387H8.489a4.273 4.273 0 0 1-4.26-4.26V4.26A4.273 4.273 0 0 1 8.489 0h73.022a4.273 4.273 0 0 1 4.26 4.26v3.868a4.272 4.272 0 0 1-4.26 4.259z" style="stroke:none;stroke-width:1;stroke-dasharray:none;stroke-linecap:butt;stroke-linejoin:miter;stroke-miterlimit:10;fill:#f2f2f2;fill-rule:nonzero;opacity:1" transform="matrix(2.81 0 0 2.81 1.407 1.407)"/><path d="M37.086 9.733a4.273 4.273 0 0 1-4.26-4.26V1.605c0-.568.117-1.109.321-1.605H8.489a4.273 4.273 0 0 0-4.26 4.26v3.868a4.273 4.273 0 0 0 4.26 4.26h73.022c1.775 0 3.301-1.102 3.939-2.655H37.086z" style="stroke:none;stroke-width:1;stroke-dasharray:none;stroke-linecap:butt;stroke-linejoin:miter;stroke-miterlimit:10;fill:#e2e1e0;fill-rule:nonzero;opacity:1" transform="matrix(2.81 0 0 2.81 1.407 1.407)"/><path d="M12.623 33.783v49.131c0 3.898 3.189 7.087 7.087 7.087h50.582c3.898 0 7.087-3.189 7.087-7.087V33.783H12.623z" style="stroke:none;stroke-width:1;stroke-dasharray:none;stroke-linecap:butt;stroke-linejoin:miter;stroke-miterlimit:10;fill:#e5a83d;fill-rule:nonzero;opacity:1" transform="matrix(2.81 0 0 2.81 1.407 1.407)"/><path d="M32.827 77.756V33.783H12.623v49.131c0 3.898 3.189 7.087 7.087 7.087h50.582c3.229 0 5.965-2.191 6.811-5.158h-37.19c-3.897-.001-7.086-3.19-7.086-7.087z" style="stroke:none;stroke-width:1;stroke-dasharray:none;stroke-linecap:butt;stroke-linejoin:miter;stroke-miterlimit:10;fill:#d69b33;fill-rule:nonzero;opacity:1" transform="matrix(2.81 0 0 2.81 1.407 1.407)"/></g></svg>