<svg xmlns="http://www.w3.org/2000/svg" xml:space="preserve" width="256" height="256"><g style="stroke:none;stroke-width:0;stroke-dasharray:none;stroke-linecap:butt;stroke-linejoin:miter;stroke-miterlimit:10;fill:none;fill-rule:nonzero;opacity:1" transform="matrix(2.81 0 0 2.81 1.407 1.407)"><rect width="35.37" height="35.37" x="9.64" y="54.64" rx="0" ry="0" style="stroke:none;stroke-width:1;stroke-dasharray:none;stroke-linecap:butt;stroke-linejoin:miter;stroke-miterlimit:10;fill:#232323;fill-rule:nonzero;opacity:1"/><rect width="35.37" height="35.37" x="45" y="54.63" rx="0" ry="0" style="stroke:none;stroke-width:1;stroke-dasharray:none;stroke-linecap:butt;stroke-linejoin:miter;stroke-miterlimit:10;fill:#333;fill-rule:nonzero;opacity:1"/><ellipse cx="56.228" cy="15.671" rx="20.538" ry="7.511" style="stroke:none;stroke-width:1;stroke-dasharray:none;stroke-linecap:butt;stroke-linejoin:miter;stroke-miterlimit:10;fill:#e5a83d;fill-rule:nonzero;opacity:1" transform="rotate(-49.519 56.228 15.673)"/><path d="M69.559.051c-5.271-.56-12.885 3.527-19.046 10.745s-9.001 15.379-7.62 20.497" style="stroke:none;stroke-width:1;stroke-dasharray:none;stroke-linecap:butt;stroke-linejoin:miter;stroke-miterlimit:10;fill:#d69b33;fill-rule:nonzero;opacity:1"/><ellipse cx="61.178" cy="21.931" rx="20.538" ry="7.511" style="stroke:none;stroke-width:1;stroke-dasharray:none;stroke-linecap:butt;stroke-linejoin:miter;stroke-miterlimit:10;fill:#e5a83d;fill-rule:nonzero;opacity:1" transform="rotate(-27.111 61.173 21.935)"/><path d="M79.456 12.576c-4.66-2.527-13.257-1.651-21.704 2.673S43.568 26.036 42.893 31.294" style="stroke:none;stroke-width:1;stroke-dasharray:none;stroke-linecap:butt;stroke-linejoin:miter;stroke-miterlimit:10;fill:#d69b33;fill-rule:nonzero;opacity:1"/><circle cx="45.004" cy="54.634" r="35.364" style="stroke:none;stroke-width:1;stroke-dasharray:none;stroke-linecap:butt;stroke-linejoin:miter;stroke-miterlimit:10;fill:#f8dcb0;fill-rule:nonzero;opacity:1"/><path d="M23.402 72.923c0-22.512 7.908-42.28 19.834-53.607-18.712.919-33.6 16.38-33.6 35.32 0 11.645 5.63 21.973 14.315 28.416a93.906 93.906 0 0 1-.549-10.129z" style="stroke:none;stroke-width:1;stroke-dasharray:none;stroke-linecap:butt;stroke-linejoin:miter;stroke-miterlimit:10;fill:#f4d7a9;fill-rule:nonzero;opacity:1"/><circle cx="34.819" cy="48.629" r="3.899" style="stroke:none;stroke-width:1;stroke-dasharray:none;stroke-linecap:butt;stroke-linejoin:miter;stroke-miterlimit:10;fill:#cda058;fill-rule:nonzero;opacity:1"/><circle cx="54.489" cy="48.629" r="3.899" style="stroke:none;stroke-width:1;stroke-dasharray:none;stroke-linecap:butt;stroke-linejoin:miter;stroke-miterlimit:10;fill:#cda058;fill-rule:nonzero;opacity:1"/><path d="M62.196 60.38c0 9.689-7.855 17.544-17.544 17.544S27.107 70.07 27.107 60.38" style="stroke:none;stroke-width:1;stroke-dasharray:none;stroke-linecap:butt;stroke-linejoin:miter;stroke-miterlimit:10;fill:#cda058;fill-rule:nonzero;opacity:1"/><path d="M9.636 54.636c0-18.94 14.889-34.402 33.6-35.321A35.565 35.565 0 0 1 45 19.272c-3.662 9.614-8.984 18.126-16.955 24.879-5.009 4.243-11.064 7.792-18.409 10.485zm70.728 0c0-19.531-15.833-35.364-35.364-35.364 5.963 15.654 16.328 28.387 35.364 35.364z" style="stroke:none;stroke-width:1;stroke-dasharray:none;stroke-linecap:butt;stroke-linejoin:miter;stroke-miterlimit:10;fill:#333;fill-rule:nonzero;opacity:1"/><path d="M43.236 19.315c-18.712.919-33.6 16.381-33.6 35.321 7.346-2.692 13.4-6.242 18.409-10.485 2.652-8.726 8.144-16.925 15.191-24.836z" style="stroke:none;stroke-width:1;stroke-dasharray:none;stroke-linecap:butt;stroke-linejoin:miter;stroke-miterlimit:10;fill:#232323;fill-rule:nonzero;opacity:1"/><path d="M77.208 40.07a35.4 35.4 0 0 0-6.843-10.064h-50.73a35.394 35.394 0 0 0-6.843 10.064h64.416z" style="stroke:none;stroke-width:1;stroke-dasharray:none;stroke-linecap:butt;stroke-linejoin:miter;stroke-miterlimit:10;fill:#e13919;fill-rule:nonzero;opacity:1"/><path d="M12.792 40.07h16.719c1.406-3.428 3.229-6.778 5.398-10.064H19.635a35.387 35.387 0 0 0-6.843 10.064z" style="stroke:none;stroke-width:1;stroke-dasharray:none;stroke-linecap:butt;stroke-linejoin:miter;stroke-miterlimit:10;fill:#d13315;fill-rule:nonzero;opacity:1"/></g></svg>