<svg xmlns="http://www.w3.org/2000/svg" xml:space="preserve" width="256" height="256"><g style="stroke:none;stroke-width:0;stroke-dasharray:none;stroke-linecap:butt;stroke-linejoin:miter;stroke-miterlimit:10;fill:none;fill-rule:nonzero;opacity:1" transform="matrix(2.81 0 0 2.81 1.407 1.407)"><path d="M36.635 74.242c1.43-4.567 2.277-10.19 2.277-16.277 0-15.266-5.31-27.641-11.86-27.641s-11.86 12.375-11.86 27.641c0 6.087.846 11.711 2.277 16.277 6.389 2.551 12.777 2.551 19.166 0z" style="stroke:none;stroke-width:1;stroke-dasharray:none;stroke-linecap:butt;stroke-linejoin:miter;stroke-miterlimit:10;fill:#f2f2f2;fill-rule:nonzero;opacity:1"/><path d="M23.469 70.242c-1.43-4.567-2.277-10.19-2.277-16.277 0-10.013 2.285-18.783 5.705-23.632-6.478.194-11.705 12.487-11.705 27.632 0 6.087.846 11.711 2.277 16.277 6.389 2.551 12.778 2.551 19.166 0 .248-.79.471-1.623.682-2.473-4.616.82-9.232.316-13.848-1.527z" style="stroke:none;stroke-width:1;stroke-dasharray:none;stroke-linecap:butt;stroke-linejoin:miter;stroke-miterlimit:10;fill:#e2e1e0;fill-rule:nonzero;opacity:1"/><path d="M49.654 46.27H4.672A4.685 4.685 0 0 1 0 41.598v-2.215C0 24.444 12.223 12.22 27.163 12.22c14.939 0 27.163 12.223 27.163 27.163v2.215a4.687 4.687 0 0 1-4.672 4.672z" style="stroke:none;stroke-width:1;stroke-dasharray:none;stroke-linecap:butt;stroke-linejoin:miter;stroke-miterlimit:10;fill:#e13919;fill-rule:nonzero;opacity:1"/><path d="M16.672 44.27A4.686 4.686 0 0 1 12 39.598v-2.215c0-11.287 6.979-21.02 16.834-25.106a27.21 27.21 0 0 0-1.671-.057C12.223 12.221 0 24.444 0 39.384v2.215a4.686 4.686 0 0 0 4.672 4.672h44.982a4.668 4.668 0 0 0 3.818-2h-36.8z" style="stroke:none;stroke-width:1;stroke-dasharray:none;stroke-linecap:butt;stroke-linejoin:miter;stroke-miterlimit:10;fill:#d13315;fill-rule:nonzero;opacity:1"/><path d="M48.748 77.779c3.949-2.703 8.092-6.599 11.857-11.382 9.443-11.995 12.925-25.003 7.779-29.055-5.147-4.052-16.974 2.388-26.416 14.383-3.765 4.783-6.579 9.725-8.28 14.198 3.443 5.956 8.463 9.908 15.06 11.856z" style="stroke:none;stroke-width:1;stroke-dasharray:none;stroke-linecap:butt;stroke-linejoin:miter;stroke-miterlimit:10;fill:#f2f2f2;fill-rule:nonzero;opacity:1"/><path d="M41.688 64.924c1.701-4.473 4.515-9.415 8.28-14.198 5.414-6.877 11.609-11.922 16.882-14.217-5.708-2.019-16.283 4.293-24.882 15.217-3.765 4.783-6.579 9.725-8.28 14.198 3.442 5.956 8.462 9.908 15.06 11.856a45.1 45.1 0 0 0 3.567-2.738c-4.457-2.212-8.003-5.579-10.627-10.118z" style="stroke:none;stroke-width:1;stroke-dasharray:none;stroke-linecap:butt;stroke-linejoin:miter;stroke-miterlimit:10;fill:#e2e1e0;fill-rule:nonzero;opacity:1"/><path d="M76.28 63.853 40.936 36.029a4.685 4.685 0 0 1-.781-6.56l1.37-1.74c9.241-11.739 26.406-13.782 38.145-4.541 11.739 9.241 13.782 26.406 4.541 38.145l-1.37 1.74a4.686 4.686 0 0 1-6.561.78z" style="stroke:none;stroke-width:1;stroke-dasharray:none;stroke-linecap:butt;stroke-linejoin:miter;stroke-miterlimit:10;fill:#f2f2f2;fill-rule:nonzero;opacity:1"/><path d="M50.936 40.029a4.685 4.685 0 0 1-.781-6.56l1.37-1.74c6.421-8.157 16.668-11.627 26.263-9.888-11.628-7.648-27.504-5.239-36.263 5.888l-1.37 1.74a4.685 4.685 0 0 0 .781 6.56L76.28 63.853c1.568 1.234 3.69 1.285 5.309.307L50.936 40.029z" style="stroke:none;stroke-width:1;stroke-dasharray:none;stroke-linecap:butt;stroke-linejoin:miter;stroke-miterlimit:10;fill:#e2e1e0;fill-rule:nonzero;opacity:1"/><circle cx="29.022" cy="18.132" r="1.872" style="stroke:none;stroke-width:1;stroke-dasharray:none;stroke-linecap:butt;stroke-linejoin:miter;stroke-miterlimit:10;fill:#d13315;fill-rule:nonzero;opacity:1"/><circle cx="22.022" cy="26.132" r="1.872" style="stroke:none;stroke-width:1;stroke-dasharray:none;stroke-linecap:butt;stroke-linejoin:miter;stroke-miterlimit:10;fill:#d13315;fill-rule:nonzero;opacity:1"/><circle cx="19.022" cy="36.132" r="1.872" style="stroke:none;stroke-width:1;stroke-dasharray:none;stroke-linecap:butt;stroke-linejoin:miter;stroke-miterlimit:10;fill:#d13315;fill-rule:nonzero;opacity:1"/><circle cx="40.022" cy="22.132" r="1.872" style="stroke:none;stroke-width:1;stroke-dasharray:none;stroke-linecap:butt;stroke-linejoin:miter;stroke-miterlimit:10;fill:#d13315;fill-rule:nonzero;opacity:1"/><circle cx="33.022" cy="30.132" r="1.872" style="stroke:none;stroke-width:1;stroke-dasharray:none;stroke-linecap:butt;stroke-linejoin:miter;stroke-miterlimit:10;fill:#d13315;fill-rule:nonzero;opacity:1"/><circle cx="30.022" cy="40.132" r="1.872" style="stroke:none;stroke-width:1;stroke-dasharray:none;stroke-linecap:butt;stroke-linejoin:miter;stroke-miterlimit:10;fill:#d13315;fill-rule:nonzero;opacity:1"/><circle cx="77.032" cy="26.582" r="1.872" style="stroke:none;stroke-width:1;stroke-dasharray:none;stroke-linecap:butt;stroke-linejoin:miter;stroke-miterlimit:10;fill:#e2e1e0;fill-rule:nonzero;opacity:1"/><circle cx="66.612" cy="28.682" r="1.872" style="stroke:none;stroke-width:1;stroke-dasharray:none;stroke-linecap:butt;stroke-linejoin:miter;stroke-miterlimit:10;fill:#e2e1e0;fill-rule:nonzero;opacity:1"/><circle cx="58.162" cy="34.812" r="1.872" style="stroke:none;stroke-width:1;stroke-dasharray:none;stroke-linecap:butt;stroke-linejoin:miter;stroke-miterlimit:10;fill:#e2e1e0;fill-rule:nonzero;opacity:1"/><circle cx="83.342" cy="36.432" r="1.872" style="stroke:none;stroke-width:1;stroke-dasharray:none;stroke-linecap:butt;stroke-linejoin:miter;stroke-miterlimit:10;fill:#e2e1e0;fill-rule:nonzero;opacity:1"/><circle cx="72.932" cy="38.542" r="1.872" style="stroke:none;stroke-width:1;stroke-dasharray:none;stroke-linecap:butt;stroke-linejoin:miter;stroke-miterlimit:10;fill:#e2e1e0;fill-rule:nonzero;opacity:1"/><circle cx="64.472" cy="44.672" r="1.872" style="stroke:none;stroke-width:1;stroke-dasharray:none;stroke-linecap:butt;stroke-linejoin:miter;stroke-miterlimit:10;fill:#e2e1e0;fill-rule:nonzero;opacity:1"/></g></svg>