<svg xmlns="http://www.w3.org/2000/svg" xml:space="preserve" width="256" height="256"><g style="stroke:none;stroke-width:0;stroke-dasharray:none;stroke-linecap:butt;stroke-linejoin:miter;stroke-miterlimit:10;fill:none;fill-rule:nonzero;opacity:1" transform="matrix(2.81 0 0 2.81 1.407 1.407)"><path d="M45 28.407a.5.5 0 0 1-.46-.305c-2.812-6.622-.613-14.73 5.882-21.689a.5.5 0 0 1 .73.683c-6.217 6.661-8.345 14.368-5.691 20.616a.501.501 0 0 1-.461.695z" style="stroke:none;stroke-width:1;stroke-dasharray:none;stroke-linecap:butt;stroke-linejoin:miter;stroke-miterlimit:10;fill:#333;fill-rule:nonzero;opacity:1"/><path d="M65.46 39.405c.004-.168.024-.332.024-.502 0-11.703-9.171-21.189-20.484-21.189S24.516 27.2 24.516 38.903c0 .169.021.333.024.502-7.911 5.167-13.009 13.252-13.009 22.348C11.531 77.353 26.516 90 45 90s33.469-12.647 33.469-28.248c0-9.095-5.099-17.181-13.009-22.347z" style="stroke:none;stroke-width:1;stroke-dasharray:none;stroke-linecap:butt;stroke-linejoin:miter;stroke-miterlimit:10;fill:#e5a83d;fill-rule:nonzero;opacity:1"/><path d="M26.711 61.752c0-9.095 2.786-17.181 7.109-22.348-.002-.168-.013-.332-.013-.502 0-11.703 5.012-21.189 11.194-21.189-11.313 0-20.484 9.487-20.484 21.189 0 .169.021.333.024.502-7.911 5.167-13.009 13.252-13.009 22.348C11.531 77.353 26.516 90 45 90c-10.101 0-18.289-12.647-18.289-28.248z" style="stroke:none;stroke-width:1;stroke-dasharray:none;stroke-linecap:butt;stroke-linejoin:miter;stroke-miterlimit:10;fill:#d69b33;fill-rule:nonzero;opacity:1"/><ellipse cx="38.281" cy="7.594" rx="5.931" ry="9.564" style="stroke:none;stroke-width:1;stroke-dasharray:none;stroke-linecap:butt;stroke-linejoin:miter;stroke-miterlimit:10;fill:#b9a61d;fill-rule:nonzero;opacity:1" transform="rotate(-45.001 38.276 7.596)"/><path d="M31.513.832C34.596-.882 39.157.088 42.47 3.401c3.313 3.313 4.283 7.874 2.569 10.957L31.513.832z" style="stroke:none;stroke-width:1;stroke-dasharray:none;stroke-linecap:butt;stroke-linejoin:miter;stroke-miterlimit:10;fill:#ceb923;fill-rule:nonzero;opacity:1"/></g></svg>