<svg xmlns="http://www.w3.org/2000/svg" xml:space="preserve" width="256" height="256"><g style="stroke:none;stroke-width:0;stroke-dasharray:none;stroke-linecap:butt;stroke-linejoin:miter;stroke-miterlimit:10;fill:none;fill-rule:nonzero;opacity:1" transform="matrix(2.81 0 0 2.81 1.407 1.407)"><path d="M42.573 17.272c.185-4.618-.673-9.43-2.382-14.4A1.965 1.965 0 0 1 42.05.271h2.693c.935 0 1.759.652 1.941 1.569.99 4.996 1.301 10.207 1.07 15.59-.045 1.049-.926 1.874-1.976 1.874h-1.244a1.956 1.956 0 0 1-1.961-2.032z" style="stroke:none;stroke-width:1;stroke-dasharray:none;stroke-linecap:butt;stroke-linejoin:miter;stroke-miterlimit:10;fill:#dd7128;fill-rule:nonzero;opacity:1"/><ellipse cx="28.811" cy="51.625" rx="28.811" ry="38.105" style="stroke:none;stroke-width:1;stroke-dasharray:none;stroke-linecap:butt;stroke-linejoin:miter;stroke-miterlimit:10;fill:#f77d2b;fill-rule:nonzero;opacity:1"/><ellipse cx="61.191" cy="51.625" rx="28.811" ry="38.105" style="stroke:none;stroke-width:1;stroke-dasharray:none;stroke-linecap:butt;stroke-linejoin:miter;stroke-miterlimit:10;fill:#f77d2b;fill-rule:nonzero;opacity:1"/><ellipse cx="42.612" cy="51.625" rx="30.372" ry="38.105" style="stroke:none;stroke-width:1;stroke-dasharray:none;stroke-linecap:butt;stroke-linejoin:miter;stroke-miterlimit:10;fill:#dd7128;fill-rule:nonzero;opacity:1"/><ellipse cx="45.002" cy="51.625" rx="24.322" ry="38.105" style="stroke:none;stroke-width:1;stroke-dasharray:none;stroke-linecap:butt;stroke-linejoin:miter;stroke-miterlimit:10;fill:#f77d2b;fill-rule:nonzero;opacity:1"/></g></svg>