<svg xmlns="http://www.w3.org/2000/svg" xml:space="preserve" width="256" height="256"><g style="stroke:none;stroke-width:0;stroke-dasharray:none;stroke-linecap:butt;stroke-linejoin:miter;stroke-miterlimit:10;fill:none;fill-rule:nonzero;opacity:1"><path d="M36.74 13.499a4.833 4.833 0 0 0-6.367-2.482 4.813 4.813 0 0 0-2.637 2.901 4.815 4.815 0 0 0-3.92-.022 4.828 4.828 0 0 0 3.618 8.95l6.06 13.803a3.876 3.876 0 0 0 5.093 1.985 3.876 3.876 0 0 0 1.985-5.093l-6.06-13.803a4.828 4.828 0 0 0 2.228-6.239z" style="stroke:none;stroke-width:1;stroke-dasharray:none;stroke-linecap:butt;stroke-linejoin:miter;stroke-miterlimit:10;fill:#f2f2f2;fill-rule:nonzero;opacity:1" transform="matrix(2.81 0 0 2.81 1.407 1.407)"/><path d="m30.049 33.699 2.148 13.947c.547 3.553 4.315 5.622 7.607 4.177l7.672-3.369c3.26-1.431 4.306-5.546 2.125-8.361l-8.61-11.11a5.471 5.471 0 0 0-6.524-1.658l-1.21.531a5.473 5.473 0 0 0-3.208 5.843z" style="stroke:none;stroke-width:1;stroke-dasharray:none;stroke-linecap:butt;stroke-linejoin:miter;stroke-miterlimit:10;fill:#b9791c;fill-rule:nonzero;opacity:1" transform="matrix(2.81 0 0 2.81 1.407 1.407)"/><path d="M44.517 49.487c-4.538 1.993-9.732-.859-10.486-5.758L31.74 28.852a5.47 5.47 0 0 0-1.691 4.847l2.148 13.947c.547 3.553 4.315 5.622 7.607 4.177l7.672-3.369a5.443 5.443 0 0 0 1.364-.866l-4.323 1.899z" style="stroke:none;stroke-width:1;stroke-dasharray:none;stroke-linecap:butt;stroke-linejoin:miter;stroke-miterlimit:10;fill:#996313;fill-rule:nonzero;opacity:1" transform="matrix(2.81 0 0 2.81 1.407 1.407)"/><path d="M22.703 21.4a4.832 4.832 0 0 1 2.482-6.367 4.811 4.811 0 0 1 3.92.022 4.82 4.82 0 0 1 6.932-2.691 4.831 4.831 0 0 0-5.664-1.347 4.813 4.813 0 0 0-2.637 2.901 4.815 4.815 0 0 0-3.92-.022 4.833 4.833 0 0 0-2.482 6.367 4.793 4.793 0 0 0 2.069 2.271 4.866 4.866 0 0 1-.7-1.134z" style="stroke:none;stroke-width:1;stroke-dasharray:none;stroke-linecap:butt;stroke-linejoin:miter;stroke-miterlimit:10;fill:#e2e1e0;fill-rule:nonzero;opacity:1" transform="matrix(2.81 0 0 2.81 1.407 1.407)"/><path d="M79.559 74.405c.49-1.953.752-3.976.752-6.052 0-16.115-15.533-29.179-34.693-29.179S10.925 52.238 10.925 68.353c0 2.075.262 4.099.752 6.052h67.882z" style="stroke:none;stroke-width:1;stroke-dasharray:none;stroke-linecap:butt;stroke-linejoin:miter;stroke-miterlimit:10;fill:#b9791c;fill-rule:nonzero;opacity:1" transform="matrix(2.81 0 0 2.81 1.407 1.407)"/><path d="M20.896 74.405c-.006-.245-.017-.49-.017-.737 0-16.6 13.944-30.458 32.517-33.749a41.084 41.084 0 0 0-7.778-.745c-19.161 0-34.693 13.064-34.693 29.179 0 2.075.261 4.099.751 6.051h9.22z" style="stroke:none;stroke-width:1;stroke-dasharray:none;stroke-linecap:butt;stroke-linejoin:miter;stroke-miterlimit:10;fill:#996313;fill-rule:nonzero;opacity:1" transform="matrix(2.81 0 0 2.81 1.407 1.407)"/><path d="M13.363 26.129a4.832 4.832 0 0 0-6.833-.041 4.814 4.814 0 0 0-1.425 3.652 4.814 4.814 0 0 0-3.669 1.382 4.828 4.828 0 0 0 6.58 7.063l10.596 10.723a3.877 3.877 0 0 0 5.466.033 3.877 3.877 0 0 0 .033-5.466L13.514 32.752a4.828 4.828 0 0 0-.151-6.623z" style="stroke:none;stroke-width:1;stroke-dasharray:none;stroke-linecap:butt;stroke-linejoin:miter;stroke-miterlimit:10;fill:#f2f2f2;fill-rule:nonzero;opacity:1" transform="matrix(2.81 0 0 2.81 1.407 1.407)"/><path d="m14.338 47.387 6.994 12.257c1.782 3.123 6.04 3.707 8.597 1.18l5.96-5.89c2.533-2.503 2.038-6.72-1.006-8.568L22.87 39.07a5.47 5.47 0 0 0-6.685.785l-.94.929a5.47 5.47 0 0 0-.907 6.603z" style="stroke:none;stroke-width:1;stroke-dasharray:none;stroke-linecap:butt;stroke-linejoin:miter;stroke-miterlimit:10;fill:#b9791c;fill-rule:nonzero;opacity:1" transform="matrix(2.81 0 0 2.81 1.407 1.407)"/><path d="M33.496 56.956c-3.526 3.484-9.396 2.678-11.852-1.627l-7.46-13.074a5.469 5.469 0 0 0 .155 5.131l6.994 12.257c1.782 3.123 6.04 3.707 8.597 1.18l5.96-5.89c.399-.394.714-.834.964-1.297l-3.358 3.32z" style="stroke:none;stroke-width:1;stroke-dasharray:none;stroke-linecap:butt;stroke-linejoin:miter;stroke-miterlimit:10;fill:#996313;fill-rule:nonzero;opacity:1" transform="matrix(2.81 0 0 2.81 1.407 1.407)"/><path d="M3.08 38.528a4.832 4.832 0 0 1 .041-6.833 4.813 4.813 0 0 1 3.669-1.382 4.817 4.817 0 0 1 5.511-4.992 4.831 4.831 0 0 0-5.771.767 4.814 4.814 0 0 0-1.425 3.652 4.814 4.814 0 0 0-3.669 1.382 4.832 4.832 0 0 0-.041 6.833 4.8 4.8 0 0 0 2.744 1.381 4.76 4.76 0 0 1-1.059-.808z" style="stroke:none;stroke-width:1;stroke-dasharray:none;stroke-linecap:butt;stroke-linejoin:miter;stroke-miterlimit:10;fill:#e2e1e0;fill-rule:nonzero;opacity:1" transform="matrix(2.81 0 0 2.81 1.407 1.407)"/><path d="M87.152 79.901H4.159a2.857 2.857 0 0 1-2.848-2.848 2.857 2.857 0 0 1 2.848-2.848h82.992a2.857 2.857 0 0 1 2.848 2.848 2.855 2.855 0 0 1-2.847 2.848z" style="stroke:none;stroke-width:1;stroke-dasharray:none;stroke-linecap:butt;stroke-linejoin:miter;stroke-miterlimit:10;fill:#f2f2f2;fill-rule:nonzero;opacity:1" transform="matrix(2.81 0 0 2.81 1.407 1.407)"/><path d="M20.896 74.205H4.159a2.857 2.857 0 0 0-2.848 2.848 2.857 2.857 0 0 0 2.848 2.848h19.904c-1.868-1.399-2.831-3.355-3.167-5.696zM63.23 25.548c-1.805.712-3.965.663-5.846-.158-1.867-.813-3.528-2.382-4.198-4.477-.326-1.036-.411-2.192-.128-3.266.14-.5.293-1.076.676-1.588a3.969 3.969 0 0 1 1.345-1.175c2.128-1.047 4.506-.354 5.992 1.014l-.604.554c-.657-1.095-1.039-2.466-.638-3.752a3.38 3.38 0 0 1 1.088-1.631 4.648 4.648 0 0 1 1.726-.901l.007-.002.05-.008c1.668-.254 3.42.328 4.765 1.355 1.366 1.024 2.366 2.464 3.006 4.018 1.248 3.117 1.249 6.778-.179 9.873a11.527 11.527 0 0 1-1.271 2.189c-.243.349-.503.669-.77.978-.284.325-.45.584-.692.873-.894 1.15-1.575 2.436-1.902 3.809-.331 1.371-.272 2.854.097 4.314.374 1.459.945 2.909 1.575 4.343l-.173.1c-.925-1.27-1.784-2.615-2.389-4.124-.582-1.498-.967-3.212-.697-4.917.22-1.711.953-3.295 1.878-4.673.48-.737.984-1.282 1.361-1.884.404-.596.73-1.235 1.03-1.881.58-1.302.932-2.702 1.035-4.13a10.97 10.97 0 0 0-.56-4.244c-.467-1.353-1.17-2.648-2.188-3.658-1.007-1.008-2.394-1.657-3.862-1.601l.057-.01c-.544.123-1.071.331-1.502.671-.425.341-.762.794-.914 1.319-.316 1.061.061 2.23.746 3.109l1.681 2.158-2.285-1.604c-1.425-1-3.422-1.142-4.656-.262a2.684 2.684 0 0 0-.718.746c-.168.268-.271.629-.38 1.036a4.85 4.85 0 0 0 .051 2.351c.44 1.558 1.614 2.949 3.116 3.832 1.503.903 3.339 1.285 5.222 1.109l.048.195zm13.8 15.248c1.619.112 3.169-.239 4.429-1.019 1.261-.762 2.232-1.941 2.592-3.237a4.084 4.084 0 0 0 .039-1.949c-.091-.342-.175-.636-.304-.848a2.14 2.14 0 0 0-.571-.608c-.492-.343-1.167-.531-1.866-.507-.699.027-1.406.27-2.027.677l-2.192 1.437 1.589-1.991c.589-.738.912-1.725.647-2.618-.26-.898-1.117-1.491-2.041-1.666l.057.01a4.297 4.297 0 0 0-2.644.871c-.758.559-1.335 1.334-1.787 2.159a9.33 9.33 0 0 0-1.042 5.49c.23 1.876.94 3.641 2.093 5.185 1.29 1.665 2.305 4.048 1.8 6.241l-.2.011c-.716-2.027-1.878-3.473-3.219-4.999-1.446-1.718-2.409-3.973-2.503-6.267-.129-2.28.401-4.619 1.709-6.51.653-.939 1.517-1.75 2.537-2.293 1.011-.556 2.203-.787 3.322-.626l.048.007.009.003a4.056 4.056 0 0 1 1.495.788c.441.366.782.867.945 1.42.349 1.119.021 2.308-.539 3.261l-.606-.555a5.07 5.07 0 0 1 2.383-1.251c.909-.199 1.919-.14 2.847.327.459.24.872.6 1.196 1.039.344.456.478.965.6 1.4.251.942.172 1.957-.115 2.864-.591 1.834-2.048 3.191-3.675 3.883-1.639.698-3.513.716-5.054.067l.048-.196z" style="stroke:none;stroke-width:1;stroke-dasharray:none;stroke-linecap:butt;stroke-linejoin:miter;stroke-miterlimit:10;fill:#e2e1e0;fill-rule:nonzero;opacity:1" transform="matrix(2.81 0 0 2.81 1.407 1.407)"/><path d="M59.384 38.255a4.885 4.885 0 0 1-1.422-1.782 5.11 5.11 0 0 1-.494-2.298c.054-1.6.803-3.074 1.917-4.086-.446 1.445-.895 2.764-.918 4.112-.053 1.347.356 2.647.917 4.054z" style="stroke:none;stroke-width:1;stroke-dasharray:none;stroke-linecap:butt;stroke-linejoin:miter;stroke-miterlimit:10;fill:#e2e1e0;fill-rule:nonzero;opacity:1" transform="matrix(2.81 0 0 2.81 1.407 1.407)"/></g></svg>