<svg xmlns="http://www.w3.org/2000/svg" xml:space="preserve" width="256" height="256"><g style="stroke:none;stroke-width:0;stroke-dasharray:none;stroke-linecap:butt;stroke-linejoin:miter;stroke-miterlimit:10;fill:none;fill-rule:nonzero;opacity:1" transform="matrix(2.81 0 0 2.81 1.407 1.407)"><path d="M47.759 60.385c-5.717 0-10.351-4.635-10.351-10.351l-9.423.129c0 .229.004.458.012.686.361 10.604 9.071 19.089 19.763 19.089" style="stroke:none;stroke-width:1;stroke-dasharray:none;stroke-linecap:butt;stroke-linejoin:miter;stroke-miterlimit:10;fill:#f8dcb0;fill-rule:nonzero;opacity:1"/><path d="M34.193 52.914a19.519 19.519 0 0 1-.012-.685l3.453-.047a10.405 10.405 0 0 1-.226-2.147l-9.423.129c0 .229.004.458.012.685.325 9.547 7.425 17.354 16.638 18.82-6.032-3.231-10.195-9.495-10.442-16.755z" style="stroke:none;stroke-width:1;stroke-dasharray:none;stroke-linecap:butt;stroke-linejoin:miter;stroke-miterlimit:10;fill:#f4d7a9;fill-rule:nonzero;opacity:1"/><path d="M89.834 62.527c.589-2.994-.523-4.988-1.21-8.501-.685-3.114.865-3.971-.659-7.175-1.221-2.487-5.79-3.78-7.212-4.984-2.015-1.758-3.021-4.605-5.632-5.705-2.61-1.103-5.351.164-8.016-.052-1.855-.178-5.97-2.548-8.603-1.687-3.359 1.144-2.891 2.852-5.599 4.535-2.996 1.96-5.2 2.555-6.933 5.066-1.413 2.171 1.588 6.759 1.276 10.264l17.238 7.092 17.109 7.398c2.291-2.671 7.671-3.724 8.241-6.251z" style="stroke:none;stroke-width:1;stroke-dasharray:none;stroke-linecap:butt;stroke-linejoin:miter;stroke-miterlimit:10;fill:#e13919;fill-rule:nonzero;opacity:1"/><path d="m64.483 61.379 6.98 3.018c4.424-11.048.844-22.939-8.134-26.727-2.565-1.082-5.297-1.387-8.004-1.017-.59.734-1.163 1.521-2.422 2.304-2.996 1.96-5.2 2.555-6.933 5.066-1.413 2.171 1.588 6.759 1.276 10.264l17.237 7.092z" style="stroke:none;stroke-width:1;stroke-dasharray:none;stroke-linecap:butt;stroke-linejoin:miter;stroke-miterlimit:10;fill:#d13315;fill-rule:nonzero;opacity:1"/><circle cx="64.049" cy="62.399" r="18.639" style="stroke:none;stroke-width:1;stroke-dasharray:none;stroke-linecap:butt;stroke-linejoin:miter;stroke-miterlimit:10;fill:#f8dcb0;fill-rule:nonzero;opacity:1"/><path d="M49.817 66.857c4.612-10.932 12.502-18.912 20.614-21.969-9.275-3.387-19.673 1.071-23.552 10.269-2.386 5.655-1.767 11.824 1.13 16.732a49.497 49.497 0 0 1 1.808-5.032z" style="stroke:none;stroke-width:1;stroke-dasharray:none;stroke-linecap:butt;stroke-linejoin:miter;stroke-miterlimit:10;fill:#f4d7a9;fill-rule:nonzero;opacity:1"/><circle cx="60.335" cy="57.395" r="2.055" style="stroke:none;stroke-width:1;stroke-dasharray:none;stroke-linecap:butt;stroke-linejoin:miter;stroke-miterlimit:10;fill:#cda058;fill-rule:nonzero;opacity:1"/><circle cx="69.885" cy="61.425" r="2.055" style="stroke:none;stroke-width:1;stroke-dasharray:none;stroke-linecap:butt;stroke-linejoin:miter;stroke-miterlimit:10;fill:#cda058;fill-rule:nonzero;opacity:1"/><path d="M71.225 68.713c-1.985 4.705-7.409 6.911-12.114 4.926-4.705-1.985-6.911-7.409-4.926-12.114" style="stroke:none;stroke-width:1;stroke-dasharray:none;stroke-linecap:butt;stroke-linejoin:miter;stroke-miterlimit:10;fill:#cda058;fill-rule:nonzero;opacity:1"/><path d="M46.878 55.156c3.88-9.197 14.278-13.656 23.553-10.269.29.106.578.219.865.34-3.748 3.918-8.076 6.962-13.33 8.608-3.302 1.035-6.969 1.519-11.088 1.321zm34.347 14.49c4.001-9.485-.444-20.417-9.929-24.418-.311 8.823 2.114 17.13 9.929 24.418z" style="stroke:none;stroke-width:1;stroke-dasharray:none;stroke-linecap:butt;stroke-linejoin:miter;stroke-miterlimit:10;fill:#e5a83d;fill-rule:nonzero;opacity:1"/><path d="M70.431 44.887c-9.275-3.387-19.673 1.072-23.553 10.269 4.119.197 7.786-.286 11.088-1.321 3.075-3.693 7.422-6.55 12.465-8.948z" style="stroke:none;stroke-width:1;stroke-dasharray:none;stroke-linecap:butt;stroke-linejoin:miter;stroke-miterlimit:10;fill:#d69b33;fill-rule:nonzero;opacity:1"/><path d="M44.458 40.668c0 6.912-5.604 12.516-12.516 12.516S19.426 47.58 19.426 40.668" style="stroke:none;stroke-width:1;stroke-dasharray:none;stroke-linecap:butt;stroke-linejoin:miter;stroke-miterlimit:10;fill:#f8dcb0;fill-rule:nonzero;opacity:1"/><path d="M24.589 40.668h-5.163c0 6.912 5.604 12.516 12.516 12.516.885 0 1.748-.095 2.582-.269-5.673-1.191-9.935-6.22-9.935-12.247z" style="stroke:none;stroke-width:1;stroke-dasharray:none;stroke-linecap:butt;stroke-linejoin:miter;stroke-miterlimit:10;fill:#f4d7a9;fill-rule:nonzero;opacity:1"/><path d="M64.466 41.475H2.139A2.145 2.145 0 0 1 0 39.336c0-1.176.962-2.139 2.139-2.139h62.327c1.176 0 2.139.962 2.139 2.139a2.146 2.146 0 0 1-2.139 2.139z" style="stroke:none;stroke-width:1;stroke-dasharray:none;stroke-linecap:butt;stroke-linejoin:miter;stroke-miterlimit:10;fill:#f2f2f2;fill-rule:nonzero;opacity:1"/><path d="M14.708 37.197H2.139A2.145 2.145 0 0 0 0 39.336c0 1.176.962 2.139 2.139 2.139h14.948c-1.403-1.051-2.127-2.52-2.379-4.278z" style="stroke:none;stroke-width:1;stroke-dasharray:none;stroke-linecap:butt;stroke-linejoin:miter;stroke-miterlimit:10;fill:#e2e1e0;fill-rule:nonzero;opacity:1"/><path d="m58.201 28.269-3.93 7.863a1.925 1.925 0 0 1-1.723 1.065H10.869c-.73 0-1.396-.412-1.723-1.065l-3.93-7.863h52.985z" style="stroke:none;stroke-width:1;stroke-dasharray:none;stroke-linecap:butt;stroke-linejoin:miter;stroke-miterlimit:10;fill:#f2f2f2;fill-rule:nonzero;opacity:1"/><path d="M34.302 35.9H21.919c-1.311-2.251-2.291-4.818-3.015-7.631H5.217l3.93 7.863a1.925 1.925 0 0 0 1.723 1.065h41.678c.73 0 1.396-.412 1.723-1.065l.116-.232H34.302z" style="stroke:none;stroke-width:1;stroke-dasharray:none;stroke-linecap:butt;stroke-linejoin:miter;stroke-miterlimit:10;fill:#e2e1e0;fill-rule:nonzero;opacity:1"/><path d="M53.62 26.299H10.049v-.305c0-9.372 7.668-17.039 17.039-17.039h9.492c9.372 0 17.039 7.668 17.039 17.039v.305z" style="stroke:none;stroke-width:1;stroke-dasharray:none;stroke-linecap:butt;stroke-linejoin:miter;stroke-miterlimit:10;fill:#b9791c;fill-rule:nonzero;opacity:1"/><path d="M25.915 9.023c-9.082.401-16.187 7.735-15.866 17.276h8.428v-3.065c0-5.864 2.951-11.068 7.438-14.211z" style="stroke:none;stroke-width:1;stroke-dasharray:none;stroke-linecap:butt;stroke-linejoin:miter;stroke-miterlimit:10;fill:#996313;fill-rule:nonzero;opacity:1"/><path d="M58.549 25.098c-.793-1.226-2.382-2.065-4.216-2.065s-3.423.838-4.216 2.065c-.939 1.382-1.878 1.382-2.817 0-.793-1.226-2.382-2.065-4.216-2.065s-3.423.838-4.216 2.065c-.938 1.341-1.881 1.423-2.817 0-.793-1.226-2.382-2.065-4.216-2.065s-3.423.838-4.216 2.065c-.937 1.423-1.879 1.341-2.817 0-.793-1.226-2.382-2.065-4.216-2.065s-3.423.838-4.216 2.065c-.939 1.382-1.878 1.382-2.817 0-.793-1.226-2.382-2.065-4.216-2.065s-3.423.838-4.216 2.065c-.945 1.664-1.008 3.667.768 3.667h51.894c1.775-.001 1.711-2.003.766-3.667z" style="stroke:none;stroke-width:1;stroke-dasharray:none;stroke-linecap:butt;stroke-linejoin:miter;stroke-miterlimit:10;fill:#e5a83d;fill-rule:nonzero;opacity:1"/><circle cx="26.851" cy="12.511" r=".961" style="stroke:none;stroke-width:1;stroke-dasharray:none;stroke-linecap:butt;stroke-linejoin:miter;stroke-miterlimit:10;fill:#996313;fill-rule:nonzero;opacity:1"/><circle cx="33.341" cy="12.511" r=".961" style="stroke:none;stroke-width:1;stroke-dasharray:none;stroke-linecap:butt;stroke-linejoin:miter;stroke-miterlimit:10;fill:#996313;fill-rule:nonzero;opacity:1"/><circle cx="40.471" cy="12.511" r=".961" style="stroke:none;stroke-width:1;stroke-dasharray:none;stroke-linecap:butt;stroke-linejoin:miter;stroke-miterlimit:10;fill:#996313;fill-rule:nonzero;opacity:1"/><circle cx="23.611" cy="16.401" r=".961" style="stroke:none;stroke-width:1;stroke-dasharray:none;stroke-linecap:butt;stroke-linejoin:miter;stroke-miterlimit:10;fill:#996313;fill-rule:nonzero;opacity:1"/><circle cx="30.101" cy="16.401" r=".961" style="stroke:none;stroke-width:1;stroke-dasharray:none;stroke-linecap:butt;stroke-linejoin:miter;stroke-miterlimit:10;fill:#996313;fill-rule:nonzero;opacity:1"/><circle cx="36.581" cy="16.401" r=".961" style="stroke:none;stroke-width:1;stroke-dasharray:none;stroke-linecap:butt;stroke-linejoin:miter;stroke-miterlimit:10;fill:#996313;fill-rule:nonzero;opacity:1"/><circle cx="44.001" cy="16.401" r=".961" style="stroke:none;stroke-width:1;stroke-dasharray:none;stroke-linecap:butt;stroke-linejoin:miter;stroke-miterlimit:10;fill:#996313;fill-rule:nonzero;opacity:1"/><path d="M18.477 23.43c-.868.363-1.656.968-2.108 1.667-.939 1.382-1.878 1.382-2.817 0-.793-1.226-2.382-2.065-4.216-2.065s-3.423.838-4.216 2.065c-.945 1.664-1.008 3.667.768 3.667H19.02c-.403-1.45-.589-4.621-.543-5.334z" style="stroke:none;stroke-width:1;stroke-dasharray:none;stroke-linecap:butt;stroke-linejoin:miter;stroke-miterlimit:10;fill:#d69b33;fill-rule:nonzero;opacity:1"/></g></svg>