<svg xmlns="http://www.w3.org/2000/svg" xml:space="preserve" width="256" height="256"><g style="stroke:none;stroke-width:0;stroke-dasharray:none;stroke-linecap:butt;stroke-linejoin:miter;stroke-miterlimit:10;fill:none;fill-rule:nonzero;opacity:1" transform="matrix(2.81 0 0 2.81 1.407 1.407)"><path d="M52.691 87.268V48.267c0-.725-.25-1.42-.695-1.932L40.778 33.419c-.445-.512-.695-1.207-.695-1.932V2.733C40.083 1.223 39.02 0 37.709 0H31.98c-1.311 0-2.373 1.223-2.373 2.732v28.754c0 .725-.25 1.42-.695 1.932L17.694 46.334c-.445.512-.695 1.207-.695 1.932v39.001c0 1.509 1.063 2.732 2.373 2.732h30.946c1.31.001 2.373-1.222 2.373-2.731z" style="stroke:none;stroke-width:1;stroke-dasharray:none;stroke-linecap:butt;stroke-linejoin:miter;stroke-miterlimit:10;fill:#e13919;fill-rule:nonzero;opacity:1"/><path d="M24.971 87.268V48.267c0-.725.18-1.42.499-1.932l8.056-12.915c.32-.512.499-1.207.499-1.932V2.733C34.026 1.223 34.789 0 35.731 0h1.979-5.73c-1.311 0-2.373 1.223-2.373 2.733v28.754c0 .725-.25 1.42-.695 1.932L17.694 46.334c-.445.512-.695 1.207-.695 1.932v39.001c0 1.509 1.063 2.732 2.373 2.732h7.304c-.941.001-1.705-1.222-1.705-2.731z" style="stroke:none;stroke-width:1;stroke-dasharray:none;stroke-linecap:butt;stroke-linejoin:miter;stroke-miterlimit:10;fill:#d13315;fill-rule:nonzero;opacity:1"/><rect width="22.71" height="18.27" x="29.98" y="57.72" rx="0" ry="0" style="stroke:none;stroke-width:1;stroke-dasharray:none;stroke-linecap:butt;stroke-linejoin:miter;stroke-miterlimit:10;fill:#e5a83d;fill-rule:nonzero;opacity:1"/><path d="M40.083 16.573V2.733C40.083 1.223 39.02 0 37.709 0H31.98c-1.311 0-2.373 1.223-2.373 2.733v13.84h10.476z" style="stroke:none;stroke-width:1;stroke-dasharray:none;stroke-linecap:butt;stroke-linejoin:miter;stroke-miterlimit:10;fill:#e5a83d;fill-rule:nonzero;opacity:1"/><path d="M36.406 0H31.98c-1.311 0-2.373 1.223-2.373 2.733v13.84h4.425V2.733c0-1.51 1.063-2.733 2.374-2.733z" style="stroke:none;stroke-width:1;stroke-dasharray:none;stroke-linecap:butt;stroke-linejoin:miter;stroke-miterlimit:10;fill:#d69b33;fill-rule:nonzero;opacity:1"/><circle cx="35.699" cy="3.699" r=".559" style="stroke:none;stroke-width:1;stroke-dasharray:none;stroke-linecap:butt;stroke-linejoin:miter;stroke-miterlimit:10;fill:#d69b33;fill-rule:nonzero;opacity:1"/><circle cx="35.699" cy="6.359" r=".559" style="stroke:none;stroke-width:1;stroke-dasharray:none;stroke-linecap:butt;stroke-linejoin:miter;stroke-miterlimit:10;fill:#d69b33;fill-rule:nonzero;opacity:1"/><circle cx="35.699" cy="9.019" r=".559" style="stroke:none;stroke-width:1;stroke-dasharray:none;stroke-linecap:butt;stroke-linejoin:miter;stroke-miterlimit:10;fill:#d69b33;fill-rule:nonzero;opacity:1"/><circle cx="35.699" cy="11.669" r=".559" style="stroke:none;stroke-width:1;stroke-dasharray:none;stroke-linecap:butt;stroke-linejoin:miter;stroke-miterlimit:10;fill:#d69b33;fill-rule:nonzero;opacity:1"/><circle cx="35.699" cy="14.509" r=".559" style="stroke:none;stroke-width:1;stroke-dasharray:none;stroke-linecap:butt;stroke-linejoin:miter;stroke-miterlimit:10;fill:#d69b33;fill-rule:nonzero;opacity:1"/><circle cx="38.359" cy="3.699" r=".559" style="stroke:none;stroke-width:1;stroke-dasharray:none;stroke-linecap:butt;stroke-linejoin:miter;stroke-miterlimit:10;fill:#d69b33;fill-rule:nonzero;opacity:1"/><circle cx="38.359" cy="6.359" r=".559" style="stroke:none;stroke-width:1;stroke-dasharray:none;stroke-linecap:butt;stroke-linejoin:miter;stroke-miterlimit:10;fill:#d69b33;fill-rule:nonzero;opacity:1"/><circle cx="38.359" cy="9.019" r=".559" style="stroke:none;stroke-width:1;stroke-dasharray:none;stroke-linecap:butt;stroke-linejoin:miter;stroke-miterlimit:10;fill:#d69b33;fill-rule:nonzero;opacity:1"/><circle cx="38.359" cy="11.669" r=".559" style="stroke:none;stroke-width:1;stroke-dasharray:none;stroke-linecap:butt;stroke-linejoin:miter;stroke-miterlimit:10;fill:#d69b33;fill-rule:nonzero;opacity:1"/><circle cx="38.359" cy="14.509" r=".559" style="stroke:none;stroke-width:1;stroke-dasharray:none;stroke-linecap:butt;stroke-linejoin:miter;stroke-miterlimit:10;fill:#d69b33;fill-rule:nonzero;opacity:1"/><rect width="2" height="23.44" x="60.66" y="64.44" rx="0" ry="0" style="stroke:none;stroke-width:1;stroke-dasharray:none;stroke-linecap:butt;stroke-linejoin:miter;stroke-miterlimit:10;fill:#e2e1e0;fill-rule:nonzero;opacity:1"/><path d="M51.024 40.739a29.427 29.427 0 0 0-.706 6.424c0 10.294 5.078 18.639 11.342 18.639s11.342-8.345 11.342-18.639c0-2.261-.257-4.419-.706-6.424H51.024z" style="stroke:none;stroke-width:1;stroke-dasharray:none;stroke-linecap:butt;stroke-linejoin:miter;stroke-miterlimit:10;fill:#f2f2f2;fill-rule:nonzero;opacity:1"/><path d="M56.258 47.163c0-2.261.123-4.419.336-6.424h-5.571a29.427 29.427 0 0 0-.706 6.424c0 10.294 5.078 18.639 11.342 18.639-2.982 0-5.401-8.345-5.401-18.639z" style="stroke:none;stroke-width:1;stroke-dasharray:none;stroke-linecap:butt;stroke-linejoin:miter;stroke-miterlimit:10;fill:#e2e1e0;fill-rule:nonzero;opacity:1"/><path d="M50.366 49.602c.486 9.558 5.352 17.07 11.294 17.07s10.808-7.512 11.294-17.07H50.366z" style="stroke:none;stroke-width:1;stroke-dasharray:none;stroke-linecap:butt;stroke-linejoin:miter;stroke-miterlimit:10;fill:#e13919;fill-rule:nonzero;opacity:1"/><path d="M56.281 49.602h-5.915c.486 9.558 5.352 17.07 11.294 17.07-2.83 0-5.147-7.512-5.379-17.07z" style="stroke:none;stroke-width:1;stroke-dasharray:none;stroke-linecap:butt;stroke-linejoin:miter;stroke-miterlimit:10;fill:#d13315;fill-rule:nonzero;opacity:1"/><path d="m61.66 87.49 3.47 1.26L68.6 90H54.72l3.47-1.25z" style="stroke:none;stroke-width:1;stroke-dasharray:none;stroke-linecap:butt;stroke-linejoin:miter;stroke-miterlimit:10;fill:#e2e1e0;fill-rule:nonzero;opacity:1"/></g></svg>