<svg xmlns="http://www.w3.org/2000/svg" xml:space="preserve" width="256" height="256"><g style="stroke:none;stroke-width:0;stroke-dasharray:none;stroke-linecap:butt;stroke-linejoin:miter;stroke-miterlimit:10;fill:none;fill-rule:nonzero;opacity:1" transform="matrix(2.81 0 0 2.81 1.407 1.407)"><rect width="29.36" height="2" x=".24" y="61.06" rx="0" ry="0" style="stroke:none;stroke-width:1;stroke-dasharray:none;stroke-linecap:butt;stroke-linejoin:miter;stroke-miterlimit:10;fill:#e2e1e0;fill-rule:nonzero;opacity:1" transform="rotate(-66.339 14.918 62.067)"/><path d="M20.523 16.089a36.884 36.884 0 0 0-4.039 7.014c-5.173 11.807-3.543 23.93 3.641 27.078 7.184 3.148 17.202-3.871 22.376-15.678a36.849 36.849 0 0 0 2.419-7.723L20.523 16.089z" style="stroke:none;stroke-width:1;stroke-dasharray:none;stroke-linecap:butt;stroke-linejoin:miter;stroke-miterlimit:10;fill:#f2f2f2;fill-rule:nonzero;opacity:1"/><path d="M23.298 26.088a76.141 76.141 0 0 1 3.614-7.199l-6.389-2.8a36.884 36.884 0 0 0-4.039 7.014c-5.173 11.807-3.543 23.93 3.641 27.078-3.421-1.5-2.001-12.286 3.173-24.093zM9.22 75.06l3.36 3.18 3.35 3.18-7.97-3.48L0 74.44l4.61.31z" style="stroke:none;stroke-width:1;stroke-dasharray:none;stroke-linecap:butt;stroke-linejoin:miter;stroke-miterlimit:10;fill:#e2e1e0;fill-rule:nonzero;opacity:1"/><path d="M38.343 30.711c.959 2.424-3.136 4.168-8.091 4.168H13.536c-.457 7.227 1.847 13.224 6.589 15.302 7.106 3.114 16.977-3.728 22.197-15.302.66-1.87-2.529-4.394-3.979-4.168z" style="stroke:none;stroke-width:1;stroke-dasharray:none;stroke-linecap:butt;stroke-linejoin:miter;stroke-miterlimit:10;fill:#e13919;fill-rule:nonzero;opacity:1"/><path d="M20.066 34.879h-6.53c-.457 7.227 1.847 13.224 6.589 15.302-2.538-1.113-2.406-7.342-.059-15.302z" style="stroke:none;stroke-width:1;stroke-dasharray:none;stroke-linecap:butt;stroke-linejoin:miter;stroke-miterlimit:10;fill:#d13315;fill-rule:nonzero;opacity:1"/><rect width="2" height="29.36" x="74.08" y="39.87" rx="0" ry="0" style="stroke:none;stroke-width:1;stroke-dasharray:none;stroke-linecap:butt;stroke-linejoin:miter;stroke-miterlimit:10;fill:#e2e1e0;fill-rule:nonzero;opacity:1" transform="rotate(-23.661 75.089 54.556)"/><path d="M69.477 8.576a36.884 36.884 0 0 1 4.039 7.014c5.173 11.807 3.543 23.93-3.641 27.078-7.184 3.148-17.202-3.871-22.376-15.678a36.849 36.849 0 0 1-2.419-7.723L69.477 8.576z" style="stroke:none;stroke-width:1;stroke-dasharray:none;stroke-linecap:butt;stroke-linejoin:miter;stroke-miterlimit:10;fill:#e2e1e0;fill-rule:nonzero;opacity:1"/><path d="M66.702 18.575a76.141 76.141 0 0 0-3.614-7.199l6.389-2.8a36.884 36.884 0 0 1 4.039 7.014c5.173 11.807 3.543 23.93-3.641 27.078 3.421-1.5 2.001-12.287-3.173-24.093z" style="stroke:none;stroke-width:1;stroke-dasharray:none;stroke-linecap:butt;stroke-linejoin:miter;stroke-miterlimit:10;fill:#f2f2f2;fill-rule:nonzero;opacity:1"/><path d="m80.78 67.55-3.36 3.18-3.35 3.18 7.97-3.49L90 66.93l-4.61.31z" style="stroke:none;stroke-width:1;stroke-dasharray:none;stroke-linecap:butt;stroke-linejoin:miter;stroke-miterlimit:10;fill:#e2e1e0;fill-rule:nonzero;opacity:1"/><path d="M76.464 27.365H59.749c-4.674 0-7.178-1.967-6.487-5.099-1.45-.226-6.244 3.23-5.584 5.099 5.22 11.574 15.091 18.415 22.197 15.302 4.742-2.078 7.046-8.075 6.589-15.302z" style="stroke:none;stroke-width:1;stroke-dasharray:none;stroke-linecap:butt;stroke-linejoin:miter;stroke-miterlimit:10;fill:#d13315;fill-rule:nonzero;opacity:1"/><path d="M69.934 27.365h6.53c.457 7.227-1.847 13.224-6.589 15.302 2.538-1.112 2.406-7.341.059-15.302z" style="stroke:none;stroke-width:1;stroke-dasharray:none;stroke-linecap:butt;stroke-linejoin:miter;stroke-miterlimit:10;fill:#e13919;fill-rule:nonzero;opacity:1"/></g></svg>