<svg xmlns="http://www.w3.org/2000/svg" xml:space="preserve" width="256" height="256"><g style="stroke:none;stroke-width:0;stroke-dasharray:none;stroke-linecap:butt;stroke-linejoin:miter;stroke-miterlimit:10;fill:none;fill-rule:nonzero;opacity:1" transform="matrix(2.81 0 0 2.81 1.407 1.407)"><path d="M89.939 35.59c-1.172-5.641-4.569-8.292-8.342-13.9-3.476-4.914-1.408-7.542-6.412-11.997-3.948-3.43-12.845-2.327-16.202-3.378C54.187 4.736 50.348.52 45 .523 39.652.52 35.812 4.736 31.017 6.314c-3.357 1.052-12.253-.051-16.202 3.379-5.004 4.455-2.936 7.083-6.412 11.997-3.774 5.608-7.17 8.259-8.342 13.9-.864 4.812 7.722 10.592 9.751 16.918L45 52.195l35.189.314c2.028-6.328 10.614-12.107 9.75-16.919z" style="stroke:none;stroke-width:1;stroke-dasharray:none;stroke-linecap:butt;stroke-linejoin:miter;stroke-miterlimit:10;fill:#e13919;fill-rule:nonzero;opacity:1"/><path d="m45 52.195 14.355.128c-.412-22.464-15.364-40.522-33.761-40.522-5.256 0-10.232 1.475-14.668 4.104-.487 1.71-.906 3.5-2.522 5.785-3.774 5.608-7.17 8.259-8.342 13.9-.864 4.812 7.722 10.592 9.751 16.918L45 52.195z" style="stroke:none;stroke-width:1;stroke-dasharray:none;stroke-linecap:butt;stroke-linejoin:miter;stroke-miterlimit:10;fill:#d13315;fill-rule:nonzero;opacity:1"/><circle cx="44.999" cy="54.289" r="35.189" style="stroke:none;stroke-width:1;stroke-dasharray:none;stroke-linecap:butt;stroke-linejoin:miter;stroke-miterlimit:10;fill:#f8dcb0;fill-rule:nonzero;opacity:1"/><path d="M23.509 72.484c0-22.4 7.869-42.07 19.736-53.34-18.619.915-33.434 16.299-33.434 35.144 0 11.587 5.602 21.863 14.243 28.275a93.997 93.997 0 0 1-.545-10.079z" style="stroke:none;stroke-width:1;stroke-dasharray:none;stroke-linecap:butt;stroke-linejoin:miter;stroke-miterlimit:10;fill:#f4d7a9;fill-rule:nonzero;opacity:1"/><circle cx="34.869" cy="48.319" r="3.879" style="stroke:none;stroke-width:1;stroke-dasharray:none;stroke-linecap:butt;stroke-linejoin:miter;stroke-miterlimit:10;fill:#cda058;fill-rule:nonzero;opacity:1"/><circle cx="54.439" cy="48.319" r="3.879" style="stroke:none;stroke-width:1;stroke-dasharray:none;stroke-linecap:butt;stroke-linejoin:miter;stroke-miterlimit:10;fill:#cda058;fill-rule:nonzero;opacity:1"/><path d="M62.11 60.004c0 9.641-7.816 17.457-17.457 17.457s-17.457-7.816-17.457-17.457" style="stroke:none;stroke-width:1;stroke-dasharray:none;stroke-linecap:butt;stroke-linejoin:miter;stroke-miterlimit:10;fill:#cda058;fill-rule:nonzero;opacity:1"/><path d="M9.811 54.288c0-18.846 14.815-34.231 33.433-35.146A36.527 36.527 0 0 1 45 19.1c-3.644 9.566-8.939 18.036-16.871 24.755-4.984 4.223-11.008 7.754-18.318 10.433zm70.377 0C80.188 34.854 64.434 19.1 45 19.1c5.933 15.577 16.247 28.246 35.188 35.188z" style="stroke:none;stroke-width:1;stroke-dasharray:none;stroke-linecap:butt;stroke-linejoin:miter;stroke-miterlimit:10;fill:#e5a83d;fill-rule:nonzero;opacity:1"/><path d="M43.245 19.143c-18.619.915-33.433 16.3-33.433 35.146 7.309-2.679 13.334-6.211 18.317-10.433 2.639-8.683 8.104-16.842 15.116-24.713z" style="stroke:none;stroke-width:1;stroke-dasharray:none;stroke-linecap:butt;stroke-linejoin:miter;stroke-miterlimit:10;fill:#d69b33;fill-rule:nonzero;opacity:1"/></g></svg>